<?xml version="1.0" encoding="utf-8"?>
<!-- Generator: Adobe Illustrator 19.1.0, SVG Export Plug-In . SVG Version: 6.00 Build 0)  -->
<svg version="1.1" id="Layer_1" xmlns="http://www.w3.org/2000/svg" xmlns:xlink="http://www.w3.org/1999/xlink" x="0px" y="0px"
	 viewBox="0 0 90 90" style="enable-background:new 0 0 90 90;" xml:space="preserve">
<style type="text/css">
	.st0{fill:#FB7C02;}
	.st1{fill:#B8B8B8;}
</style>
<g>
	<path class="st0" d="M36.1,67.2c-0.7,0.1-1.1,0.8-1,1.4c0.1,0.6,0.2,1.2,0.2,1.9v10.9H5.1V70.5c0-5.7,4.7-10.4,10.4-10.4h1.6
		l-3.4,11.5c-0.1,0.4,0,0.9,0.3,1.2l5.2,5.4c0.2,0.2,0.5,0.4,0.9,0.4c0.3,0,0.6-0.1,0.9-0.4l5.2-5.4c0.3-0.3,0.4-0.8,0.3-1.2
		l-3.4-11.5h1.6c3.4,0,6.6,1.7,8.6,4.5c0.4,0.6,1.2,0.7,1.7,0.3c0.6-0.4,0.7-1.2,0.3-1.7c-2.4-3.5-6.4-5.6-10.6-5.6h-3.3h-2.8h-3.3
		c-7.1,0-12.9,5.8-12.9,12.9v12.2c0,0.7,0.6,1.2,1.2,1.2h32.6c0.7,0,1.2-0.6,1.2-1.2V70.5c0-0.8-0.1-1.5-0.2-2.3
		C37.4,67.6,36.8,67.1,36.1,67.2 M20.7,60.1L24,71.6l-3.8,3.9l-3.8-3.9l3.4-11.5H20.7z"/>
	<path class="st0" d="M20.2,55.1c8,0,14.5-6.5,14.5-14.5v-3.9v-2.5c0-0.1,0-0.3,0-0.4c0,0,0-0.1,0-0.1c0-0.1,0-0.2,0-0.3
		c0,0,0,0,0-0.1c0-0.1,0-0.2,0-0.3c0,0,0,0,0-0.1c0-0.1,0-0.2,0-0.3c0,0,0,0,0,0c0-0.1,0-0.2,0-0.4c0,0,0,0,0,0
		c-0.2-1.4-0.6-2.8-1.2-4c0,0,0-0.1,0-0.1c0-0.1-0.1-0.1-0.1-0.2c0-0.1-0.1-0.1-0.1-0.2l-0.1-0.1c0-0.1-0.1-0.1-0.1-0.2
		c0,0,0-0.1,0-0.1c0-0.1-0.1-0.2-0.1-0.3c0,0,0,0,0,0c-0.8-1.4-1.8-2.7-3.1-3.7c0,0,0,0,0,0c-0.1,0-0.1-0.1-0.2-0.1
		c0,0-0.1-0.1-0.1-0.1c-0.1-0.1-0.2-0.2-0.4-0.3c-0.1-0.1-0.1-0.1-0.2-0.2c-0.1-0.1-0.2-0.1-0.2-0.2c-0.1-0.1-0.2-0.2-0.4-0.2
		c0,0-0.1-0.1-0.1-0.1c-0.2-0.1-0.3-0.2-0.5-0.3c0,0,0,0-0.1,0c-1.8-1.1-3.8-1.7-6-1.9c0,0,0,0,0,0c-0.2,0-0.4,0-0.6,0
		c0,0,0,0-0.1,0c-0.2,0-0.4,0-0.6,0c-3.6,0-7,1.3-9.7,3.7c-0.5,0.5-0.5,1.2-0.1,1.7c0.5,0.5,1.2,0.5,1.7,0.1c2.2-2,5.1-3.1,8-3.1
		c0.2,0,0.4,0,0.6,0c0.1,0,0.2,0,0.2,0c0.1,0,0.2,0,0.3,0c0.1,0,0.2,0,0.3,0c0.1,0,0.2,0,0.2,0c0.1,0,0.2,0,0.4,0.1
		c0.1,0,0.1,0,0.2,0c0.1,0,0.3,0.1,0.4,0.1c0,0,0.1,0,0.1,0c1,0.2,1.9,0.6,2.8,1l0.1,0.1c0.1,0.1,0.2,0.1,0.3,0.2
		c0.1,0,0.1,0.1,0.2,0.1l0.2,0.2c0.1,0.1,0.2,0.1,0.3,0.2c0.1,0,0.1,0.1,0.2,0.1c0.1,0.1,0.2,0.1,0.3,0.2c0,0,0.1,0.1,0.1,0.1
		c0.1,0.1,0.2,0.2,0.4,0.3c0,0,0,0,0.1,0.1c0.1,0.1,0.2,0.2,0.3,0.2c0.1,0.1,0.2,0.1,0.2,0.2c0.1,0.1,0.2,0.1,0.2,0.2
		c0.1,0.1,0.1,0.1,0.2,0.2c0.1,0.1,0.2,0.2,0.2,0.2c0.1,0.1,0.1,0.1,0.2,0.2c0.1,0.1,0.2,0.2,0.2,0.3c0,0.1,0.1,0.1,0.1,0.2
		c0.3,0.3,0.5,0.7,0.7,1c0.1,0.1,0.1,0.2,0.2,0.3c0,0.1,0.1,0.2,0.1,0.2c0.1,0.1,0.1,0.2,0.2,0.3c0,0.1,0.1,0.1,0.1,0.2
		c0.1,0.1,0.1,0.2,0.2,0.4c0,0.1,0.1,0.1,0.1,0.2c0.1,0.1,0.1,0.3,0.2,0.4c0,0.1,0,0.1,0.1,0.2c0.1,0.1,0.1,0.3,0.2,0.4
		c0,0.1,0,0.1,0.1,0.2c0,0.1,0.1,0.3,0.1,0.5c0,0,0,0.1,0,0.2c0,0.2,0.1,0.3,0.1,0.5c0,0.1,0,0.1,0,0.1c0,0.2,0.1,0.3,0.1,0.5
		c0,0,0,0.1,0,0.1c0,0.2,0,0.3,0.1,0.5c0,0.1,0,0.1,0,0.2c0,0.2,0,0.3,0,0.5c0,0,0,0.1,0,0.1c0,0.2,0,0.4,0,0.6v1
		c-2.5-0.6-4.7-2.2-6.1-4.4c-0.2-0.3-0.6-0.5-0.9-0.6c-0.4,0-0.8,0.1-1,0.4c-2.8,3.1-6.7,4.8-10.9,4.8c-1.8,0-3.5-0.3-5.2-0.9v-0.4
		c0-1.9,0.4-3.6,1.2-5.3c0.3-0.6,0.1-1.3-0.6-1.6c-0.6-0.3-1.3,0-1.6,0.6c-1,2-1.5,4.2-1.5,6.4v1.2v5.2
		C5.7,48.6,12.2,55.1,20.2,55.1 M8.1,37.2c1.7,0.5,3.4,0.8,5.2,0.8c4.3,0,8.5-1.7,11.6-4.6c1.9,2.2,4.4,3.8,7.3,4.3v2.8
		c0,6.6-5.4,12-12,12c-6.6,0-12-5.4-12-12V37.2z"/>
	<path class="st0" d="M20.2,45.6h1.6c0.7,0,1.2-0.5,1.2-1.2c0-0.7-0.5-1.2-1.2-1.2h-0.3v-2.9c0-0.7-0.6-1.2-1.2-1.2
		c-0.7,0-1.2,0.5-1.2,1.2v4.1C19,45.1,19.5,45.6,20.2,45.6"/>
	<path class="st1" d="M25.7,13.4c4.4-0.1,8.7,0.6,12.9,2c0.1,0,0.3,0.1,0.4,0.1c0.5,0,0.9-0.3,1.1-0.8l2.5-5.8
		c0.2-0.4,0.1-0.8-0.1-1.2c-0.2-0.3-0.6-0.6-1.1-0.5c-1.2,0.1-2.4,0.2-3.5,0.3c-4.4,0.5-8.7,1.7-12.7,3.6c-0.5,0.2-0.8,0.8-0.7,1.4
		C24.6,13,25.1,13.4,25.7,13.4 M38.2,9.9c0.5-0.1,0.9-0.1,1.4-0.1l-1.2,2.9c-2.2-0.7-4.4-1.1-6.7-1.4C33.8,10.7,36,10.2,38.2,9.9"/>
	<path class="st1" d="M86.6,48.7c0-0.3-0.2-0.7-0.4-0.9c-0.3-0.2-0.6-0.3-0.9-0.3l-18.5,2.3c-0.6,0.1-1.1,0.6-1.1,1.3
		c0,0.3,0,0.5,0,0.8c0,0.7,0.6,1.2,1.3,1.2c0.6,0,1-0.4,1.2-0.9l16.1-2c0.1,7-1.6,13.8-4.9,19.9l-12.9-5.5c0.3-1.1,0.6-2.2,0.8-3.3
		c3.7,0.9,6.5,1.6,7.1,1.7c0,0,0.1,0,0.1,0c0.1,0,0.3,0,0.4,0c0.6,0,1.3-0.3,1.7-0.8c0.4-0.4,0.5-1,0.5-1.6
		c-0.1-0.6-0.3-1.1-0.8-1.4c-0.1-0.1-0.2-0.2-0.4-0.3c0,0-0.1,0-0.1-0.1c-1.3-0.6-16.2-6.8-25.2-10.6c-1-3.4-4.4-5.6-8-5.2
		c-4.1,0.5-6.9,4.2-6.5,8.3c0.5,3.7,3.7,6.5,7.4,6.5c0.3,0,0.6,0,0.9-0.1c1.3-0.2,2.5-0.6,3.5-1.4l17.1,4.2
		c-0.3,1.4-0.7,2.8-1.1,4.2c-0.2,0.6,0.1,1.3,0.7,1.5l14.9,6.3c0.2,0.1,0.3,0.1,0.5,0.1c0.4,0,0.8-0.2,1.1-0.6
		C84.9,65.1,86.9,56.9,86.6,48.7 M43.8,55.5c-0.2,0-0.4,0-0.6,0c-2.5,0-4.6-1.8-4.9-4.3c-0.3-2.7,1.6-5.2,4.3-5.5c0.2,0,0.4,0,0.6,0
		c2.3,0,4.4,1.6,4.9,3.9c0,0.1,0,0.2,0.1,0.4c0.2,1.6-0.4,3.2-1.6,4.3C45.8,54.9,44.8,55.4,43.8,55.5 M49.6,54.4
		c0-0.1,0.1-0.1,0.1-0.2c0-0.1,0.1-0.1,0.1-0.2c0-0.1,0.1-0.1,0.1-0.2c0-0.1,0.1-0.1,0.1-0.2c0-0.1,0.1-0.1,0.1-0.2
		c0-0.1,0.1-0.1,0.1-0.2c0-0.1,0-0.1,0.1-0.2c0-0.1,0.1-0.1,0.1-0.2c0-0.1,0-0.1,0.1-0.2c0-0.1,0-0.2,0.1-0.2c0-0.1,0-0.1,0-0.2
		c0-0.1,0-0.1,0-0.2c0-0.1,0-0.1,0-0.2c0-0.1,0-0.2,0-0.2c0-0.1,0-0.1,0-0.2c0,0,0-0.1,0-0.1c6.4,2.7,15.1,6.3,20.1,8.4
		c-1.4-0.3-3-0.7-4.8-1.2L49.6,54.4L49.6,54.4z"/>
	<path class="st1" d="M76.3,76.1l-13.7-5.8c-0.6-0.3-1.3,0-1.6,0.6c-2.2,4.1-5,7.8-8.5,10.9c-0.4,0.3-0.5,0.9-0.3,1.4
		c0.2,0.5,0.6,0.8,1.1,0.8h17.1c0.3,0,0.6-0.1,0.8-0.3c2-1.7,3.8-3.6,5.5-5.6c0.2-0.3,0.3-0.7,0.2-1.1C77,76.6,76.7,76.3,76.3,76.1
		 M70.1,81.4H56.5c2.4-2.5,4.5-5.4,6.2-8.4l11.1,4.7C72.7,79,71.4,80.3,70.1,81.4"/>
	<path class="st1" d="M44.6,17.9c4.2,2.2,7.9,5.1,11,8.6c0.2,0.3,0.6,0.4,0.9,0.4c0.3,0,0.5-0.1,0.7-0.2l11.9-8.9
		c0.3-0.2,0.5-0.6,0.5-1c0-0.4-0.2-0.8-0.5-1c-6-4.5-13-7.3-20.3-8.2c-0.5-0.1-1.1,0.2-1.3,0.7l-3.4,8.1
		C43.8,16.9,44.1,17.6,44.6,17.9 M49.4,10.1c6.1,0.9,11.9,3.2,16.9,6.7L56.7,24c-2.9-3.1-6.2-5.7-9.9-7.8L49.4,10.1z"/>
	<path class="st1" d="M59.6,31.7c2.5,4,4.3,8.3,5.2,12.9c0.1,0.6,0.6,1,1.2,1c0.1,0,0.1,0,0.2,0l18.5-2.3c0.3,0,0.6-0.2,0.8-0.5
		c0.2-0.3,0.3-0.6,0.2-1c-1.6-8.1-5.6-15.5-11.3-21.4c-0.4-0.4-1.1-0.5-1.6-0.1l-13,9.8C59.3,30.4,59.2,31.2,59.6,31.7 M73.4,22.9
		c4.7,5.1,8,11.4,9.6,18.1l-16.1,2c-1-4.1-2.6-8.1-4.7-11.7L73.4,22.9z"/>
	<g>
		<path class="st1" d="M55.2,29.1h-8.5c-1.6,0-2.8,1.3-2.8,2.8v6.5c0,1.6,1.3,2.8,2.8,2.8h2.2l1.7,2.2c0.1,0.1,0.3,0.2,0.5,0.2h0
			c0.2,0,0.3-0.1,0.5-0.2l1.6-2.2h2.2c1.6,0,2.8-1.3,2.8-2.8v-6.5C58.1,30.3,56.8,29.1,55.2,29.1 M56.9,38.4c0,0.9-0.8,1.7-1.7,1.7
			h-2.4c-0.2,0-0.3,0.1-0.5,0.2L51,42.1l-1.4-1.8c-0.1-0.1-0.3-0.2-0.5-0.2h-2.4c-0.9,0-1.7-0.8-1.7-1.7v-6.5c0-0.9,0.8-1.7,1.7-1.7
			h8.5c0.9,0,1.7,0.8,1.7,1.7V38.4z"/>
		<g>
			<path class="st1" d="M46.4,36.7v-0.3l0.4-0.4c1-0.9,1.4-1.4,1.4-2c0-0.4-0.2-0.7-0.8-0.7c-0.3,0-0.6,0.2-0.8,0.3l-0.2-0.4
				c0.3-0.2,0.6-0.4,1.1-0.4c0.8,0,1.2,0.6,1.2,1.1c0,0.7-0.5,1.3-1.3,2l-0.3,0.3v0h1.7v0.4H46.4z"/>
			<path class="st1" d="M51.9,34.8c0,1.3-0.5,2-1.3,2c-0.7,0-1.2-0.7-1.3-1.9c0-1.3,0.5-2,1.3-2C51.5,32.8,51.9,33.5,51.9,34.8z
				 M49.9,34.8c0,1,0.3,1.5,0.8,1.5c0.5,0,0.8-0.6,0.8-1.6c0-0.9-0.2-1.5-0.8-1.5C50.2,33.2,49.9,33.8,49.9,34.8z"/>
			<path class="st1" d="M53.1,35.2L53.1,35.2c0.1-0.1,0.2-0.2,0.3-0.3l0.8-1h0.6L53.7,35l1.2,1.7h-0.6l-1-1.4l-0.3,0.3v1.1h-0.5
				v-4.1h0.5V35.2z"/>
		</g>
	</g>
	<g>
		<g>
			<path class="st1" d="M70.3,34.1h-0.8c0-0.2-0.1-0.3-0.3-0.5c-0.2-0.1-0.3-0.2-0.5-0.2c-0.3,0-0.6,0.1-0.8,0.4
				c-0.2,0.2-0.2,0.5-0.2,0.9c0,0.3,0.1,0.6,0.2,0.8c0.2,0.3,0.4,0.4,0.8,0.4c0.2,0,0.4-0.1,0.6-0.2c0.1-0.1,0.2-0.3,0.3-0.6h0.8
				c0,0.5-0.2,0.8-0.5,1.1c-0.3,0.3-0.7,0.4-1.1,0.4c-0.6,0-1-0.2-1.3-0.6c-0.3-0.4-0.5-0.8-0.5-1.4c0-0.6,0.2-1,0.5-1.4
				c0.3-0.4,0.8-0.6,1.3-0.6c0.4,0,0.8,0.1,1.1,0.3C70.1,33.4,70.2,33.7,70.3,34.1z"/>
			<path class="st1" d="M70.9,36.6v-3.7h1.7c0.4,0,0.8,0.1,1,0.4c0.2,0.2,0.3,0.5,0.3,0.8c0,0.3-0.1,0.6-0.3,0.8
				c-0.2,0.2-0.6,0.4-1,0.4h-0.9v1.3H70.9z M71.7,33.5v1.1h0.6c0.2,0,0.4,0,0.5-0.1c0.1-0.1,0.2-0.2,0.2-0.5c0-0.2-0.1-0.4-0.2-0.5
				c-0.1-0.1-0.3-0.1-0.5-0.1H71.7z"/>
			<path class="st1" d="M74.1,35.4h0.8c0,0.2,0.1,0.4,0.2,0.5c0.1,0.1,0.3,0.2,0.6,0.2c0.2,0,0.3,0,0.5-0.1c0.2-0.1,0.3-0.2,0.3-0.4
				c0-0.2-0.2-0.4-0.6-0.5c-0.7-0.2-1-0.3-1.1-0.3c-0.4-0.2-0.6-0.5-0.6-0.9c0-0.4,0.1-0.6,0.4-0.8c0.3-0.2,0.6-0.3,0.9-0.3
				c0.4,0,0.8,0.1,1,0.3c0.3,0.2,0.4,0.5,0.4,0.9h-0.8c0-0.4-0.3-0.6-0.7-0.6c-0.1,0-0.3,0-0.4,0.1C75,33.6,75,33.7,75,33.9
				c0,0.1,0.1,0.2,0.2,0.3c0.1,0,0.4,0.1,0.9,0.3c0.3,0.1,0.5,0.2,0.6,0.2c0.3,0.2,0.4,0.5,0.4,0.8c0,0.4-0.1,0.6-0.4,0.8
				c-0.3,0.2-0.7,0.3-1.1,0.3c-0.4,0-0.8-0.1-1.1-0.3C74.2,36.1,74.1,35.8,74.1,35.4z"/>
		</g>
		<g>
			<path class="st1" d="M69.6,36v2.3h-0.5v-1.5h-0.6v-0.4c0.4,0,0.6-0.1,0.7-0.5H69.6z"/>
			<path class="st1" d="M71.8,36v0.4h-1L70.7,37l0,0c0.1-0.1,0.3-0.2,0.5-0.2c0.2,0,0.4,0.1,0.5,0.2c0.1,0.1,0.2,0.3,0.2,0.6
				c0,0.2-0.1,0.4-0.3,0.6c-0.2,0.2-0.4,0.2-0.6,0.2c-0.2,0-0.4-0.1-0.6-0.2c-0.2-0.1-0.3-0.3-0.3-0.6h0.5c0,0.1,0.1,0.2,0.1,0.3
				C70.8,38,70.9,38,71,38c0.1,0,0.2,0,0.3-0.1c0.1-0.1,0.1-0.2,0.1-0.3c0-0.1,0-0.2-0.1-0.3c-0.1-0.1-0.2-0.1-0.3-0.1
				c-0.1,0-0.3,0.1-0.4,0.2h-0.4l0.2-1.3H71.8z"/>
			<path class="st1" d="M72,37.2c0-0.4,0.1-0.7,0.3-0.9c0.1-0.2,0.3-0.3,0.6-0.3c0.3,0,0.5,0.1,0.6,0.3c0.2,0.2,0.3,0.5,0.3,0.9
				c0,0.8-0.3,1.2-0.9,1.2C72.3,38.4,72,38,72,37.2z M72.5,37.2c0,0.2,0,0.4,0,0.5c0.1,0.2,0.2,0.3,0.3,0.3c0.2,0,0.3-0.1,0.3-0.3
				c0-0.1,0-0.3,0-0.5c0-0.5-0.1-0.8-0.4-0.8C72.6,36.4,72.5,36.7,72.5,37.2z"/>
			<path class="st1" d="M73.9,37.2c0-0.4,0.1-0.7,0.3-0.9c0.1-0.2,0.3-0.3,0.6-0.3c0.3,0,0.5,0.1,0.6,0.3c0.2,0.2,0.3,0.5,0.3,0.9
				c0,0.8-0.3,1.2-0.9,1.2C74.2,38.4,73.9,38,73.9,37.2z M74.4,37.2c0,0.2,0,0.4,0,0.5c0.1,0.2,0.2,0.3,0.3,0.3
				c0.2,0,0.3-0.1,0.3-0.3c0-0.1,0-0.3,0-0.5c0-0.5-0.1-0.8-0.4-0.8C74.5,36.4,74.4,36.7,74.4,37.2z"/>
		</g>
	</g>
</g>
</svg>
