<?xml version="1.0" encoding="utf-8"?>
<!-- Generator: Adobe Illustrator 19.1.0, SVG Export Plug-In . SVG Version: 6.00 Build 0)  -->
<svg version="1.1" id="Layer_1" xmlns="http://www.w3.org/2000/svg" xmlns:xlink="http://www.w3.org/1999/xlink" x="0px" y="0px"
	 viewBox="0 0 90 90" style="enable-background:new 0 0 90 90;" xml:space="preserve">
<style type="text/css">
	.st0{fill:#B8B8B8;}
	.st1{fill:#FB7C02;}
</style>
<g>
	<path class="st0" d="M42.5,43.9c1.7,0.1,2.1-0.8,2.1-2.4c-0.1-7.4,0.1-14.9-0.1-22.3c-0.1-2.6,0.9-3.3,3.3-3.2
		c3.7,0.1,7.4,0,11.1,0.1c1.4,0,2-0.4,2.5-1.9c2.2-6.5,8.2-9.9,14.8-8.6c5.6,1,10.1,6.7,9.9,12.6c-0.1,6.4-4.7,11.4-11.2,12.4
		c-5.7,0.9-12.2-3.2-13.6-8.9c-0.5-2.2-1.4-2.5-3.2-2.4c-3.5,0.1-7,0-10.6,0.1c-0.9,0.6-0.6,1.5-0.6,2.3c0,6.3,0,12.6,0,19
		c0,0.7-0.2,1.5,0.5,2.1c0.2,1.5,1.3,1.1,2.2,1.1c3,0,5.9-0.1,8.9,0c1.7,0.1,2.4-0.3,2.9-2.1c1.6-5.7,7.1-9.4,12.9-9
		c5.9,0.4,10.8,4.9,11.7,10.7c0.9,6.2-2.3,11.6-8,13.9c-6.7,2.6-14.6-1.2-16.6-8.2c-0.5-1.8-1.3-2.2-2.9-2.1c-2.9,0.1-5.9,0-8.9,0
		c-0.9,0-2-0.4-2.2,1.1c-0.5,0.4-0.5,1-0.5,1.6c0,6.7,0,13.4,0,20c0,0.7-0.1,1.4,0.6,1.8c3.7,0,7.4,0,11.1,0.1
		c1.4,0,2.1-0.2,2.6-1.8c1.5-6,7.3-10.3,13.1-9.6c7.2,0.9,11.4,5.9,11.7,12.2c0.3,6-4.1,11.9-9.9,13c-6.5,1.2-12.5-2-14.6-8.1
		c-0.7-2.1-1.7-2.5-3.7-2.4c-3.3,0.1-6.7-0.1-10,0.1c-2.7,0.1-3.7-0.7-3.6-3.5c0.2-7.3,0-14.7,0.1-22c0-1.7-0.4-2.5-2.1-2.4
		C42.5,45.7,42.5,44.8,42.5,43.9z M80.9,23.5c3.4-3.9,2.8-9.6-1.1-12.9c-4.1-3.4-10-2.9-13.5,1.2c-3,3.5-2.9,9,0.2,11.6
		c0-2.1,0-4.1,2.1-5.3c1.1-0.6,0.3-1.3,0.2-2c-0.3-2.3,0.5-4.1,2.4-5.4c1.8-1.1,3.6-1,5.4,0.1c1.9,1.2,2.4,3,2.2,5.2
		c-0.1,0.7-0.7,1.5,0.2,2.1C80.9,19.4,80.9,21.4,80.9,23.5z M66.5,51.1c0-2.4,0.1-4.4,2.1-5.6c1.1-0.6,0.3-1.3,0.2-1.9
		c-0.3-2.3,0.2-4.2,2.2-5.5c1.8-1.1,3.6-1.2,5.4-0.1c2,1.2,2.7,3.1,2.3,5.4c-0.1,0.7-0.7,1.5,0.2,2.1c1.9,1.3,2,3.3,2,5.4
		c3.3-4,2.9-9.2-0.8-12.6c-3.5-3.3-8.8-3.8-13.5,0.2C64.1,40.7,62.5,47.1,66.5,51.1z M80.9,78.5c3.4-4.6,2.8-9.9-1.3-13.3
		c-3.8-3.2-9.4-2.8-12.9,0.9c-3.4,3.5-3.5,8.9-0.2,12.3c0-1.9-0.2-3.9,1.4-5.1c1.2-0.9,1.1-1.7,0.9-2.8c-0.3-2.2,0.5-4.1,2.4-5.1
		c1.7-0.8,3.6-1.1,5.4,0.1c1.9,1.2,2.5,3,2.2,5.2C78.7,71.5,78,72.3,79,73C80.9,74.2,80.9,76.2,80.9,78.5z M73.6,74.8
		c-3.4-0.1-3.8,0.3-3.9,3.3c-0.1,3.7,0.2,4.2,3.6,4.1c2,0,4.6,0.6,4.5-3C77.8,75.4,77.4,74.8,73.6,74.8z M73.9,54.7
		c1.9,0.1,3.8,0.3,3.9-2.5c0.2-3.6-0.5-4.7-3.4-4.9c-3.5-0.2-4.5,0.5-4.7,2.9C69.6,54.4,69.7,54.5,73.9,54.7z M73.8,20.3
		c-2.3-0.5-3.9-0.1-4,2.6c-0.2,3.9,0.1,4.4,3.3,4.4c1.9-0.1,4.7,1.1,4.8-2.6C77.9,20.7,77.8,20.5,73.8,20.3z M75.7,15
		c-0.1-1.2-0.9-1.8-2.1-1.8c-1,0.1-1.8,0.8-1.8,1.8c0,1.2,0.7,1.9,2,1.9C75.1,17,75.7,16.3,75.7,15z M73.7,71.7c1.1-0.2,1.9-0.7,2-2
		c0.1-1.1-0.5-1.8-1.6-1.9c-1.3-0.1-2,0.6-2.2,1.7C71.7,70.8,72.6,71.4,73.7,71.7z M73.9,40.4c-1.3,0.1-2,0.9-2,2c0,1.1,0.8,2,2,1.9
		c1-0.1,1.7-0.7,1.8-1.8C75.8,41.2,75,40.6,73.9,40.4z"/>
	<path class="st0" d="M42.5,43.9c0,0.9,0,1.9,0,2.8c-3.2,0-6.5,0.2-9.7,0.1c-1.7,0-2.3,0.4-2.3,2.2c0.1,4.4,0.1,8.8,0,13.1
		c0,4.2-2.1,6.4-6.3,6.4c-5.1,0.1-10.3,0.1-15.4,0c-3.6,0-6-1.9-6.1-5.4c-0.2-11.8-0.1-23.6,0-35.4c0-3.1,2.2-5.5,5.2-5.5
		c6,0,12.1-0.8,18.1,0.5c3,0.6,4.4,2.3,4.5,5.2c0.1,4.5,0.1,9,0,13.4c-0.1,2.1,0.6,2.6,2.6,2.5C36.3,43.7,39.4,43.8,42.5,43.9z
		 M24.6,25.1L24.6,25.1l-0.2,0c-0.5,0-1.1,0-1.6,0c-4.8-0.3-9.5-0.3-14.3,0.1c-1.9,0.6-2.6,1.8-2.6,3.8c0.1,11,0.1,21.9,0,32.9
		c0,2.6,1.2,3.6,3.6,3.6c4.8,0,9.5,0,14.3,0c2.6,0,3.8-1.3,3.7-3.9c0-10.8,0-21.5,0-32.3C27.6,27,26.8,25.6,24.6,25.1z"/>
	<path class="st1" d="M22.8,25.1c-4.8,0.3-9.5,0.3-14.3,0.1C13.3,24.8,18,24.8,22.8,25.1z"/>
	<polygon class="st1" points="24.6,25.1 24.5,25.2 24.4,25.1 24.5,25 	"/>
	<path class="st1" d="M26.1,44.9c0,3.5-0.1,7.1,0,10.6c0,1.9-0.5,2.8-2.6,2.7c-4.7-0.1-9.3-0.1-14,0c-1.9,0-2.5-0.8-2.5-2.6
		C7,48.3,7,40.8,7,33.4c0-2,0.9-2.7,2.8-2.7c4.6,0.1,9.1,0.1,13.7,0c2,0,2.7,0.8,2.6,2.8C26,37.3,26.1,41.1,26.1,44.9z M23,44.9
		c0-3-0.1-6.1,0-9.1c0-1.3-0.3-1.9-1.7-1.8c-3.1,0.1-6.3,0.1-9.4,0c-1.4,0-1.8,0.5-1.8,1.8c0.1,5.8,0.1,11.6,0,17.4
		c0,1.4,0.3,2,1.9,2c3-0.1,6.1-0.1,9.1,0c1.6,0.1,1.9-0.6,1.9-2C23,50.4,23,47.7,23,44.9z"/>
	<path class="st1" d="M16.2,29.5c-1.2-0.6-4,1.3-3.9-1.6c0.1-2.4,2.7-1.1,4.2-1.4c1-0.2,2.1,0,3.1,0c1,0,1.7,0.5,1.7,1.5
		c0,1-0.7,1.5-1.7,1.5C18.6,29.6,17.5,29.5,16.2,29.5z"/>
</g>
</svg>
