<?xml version="1.0" encoding="utf-8"?>
<!-- Generator: Adobe Illustrator 19.1.0, SVG Export Plug-In . SVG Version: 6.00 Build 0)  -->
<svg version="1.1" id="Layer_1" xmlns="http://www.w3.org/2000/svg" xmlns:xlink="http://www.w3.org/1999/xlink" x="0px" y="0px"
	 viewBox="0 0 400 400" style="enable-background:new 0 0 400 400;" xml:space="preserve">
<style type="text/css">
	.st0{opacity:0.1;}
	.st1{fill:#11C0C9;}
	.st2{fill:#EFF4F4;}
	.st3{fill:#03283B;}
	.st4{opacity:0.2;}
	.st5{fill:#FBFBFB;}
	.st6{fill:#D3D3D3;}
	.st7{fill:#02313D;}
	.st8{fill:#284C5E;}
	.st9{fill:#FFA80F;}
	.st10{fill:#174356;}
	.st11{fill:#9E9E9E;}
	.st12{fill:#E7B21E;}
	.st13{fill:#F88B1A;}
	.st14{fill:#1FC1F0;}
	.st15{fill:#FFFFFF;}
	.st16{opacity:0.2;fill:#03283B;}
</style>
<g>
	<g>
		<g class="st0">
			<path class="st1" d="M346.7,270.2c3.8-13.4,5.7-27.3,5.7-41.4c0-20.4-4-40.2-11.8-58.9c-7.5-18-18.3-34.2-32.1-48.1
				c-13.7-13.9-29.8-24.8-47.6-32.4c-18.5-7.9-38.1-11.9-58.3-11.9c-20.2,0-39.8,4-58.3,11.9c-17.8,7.6-33.8,18.5-47.6,32.4
				c-13.7,13.9-24.5,30.1-32.1,48.1c-7.8,18.7-11.8,38.5-11.8,58.9c0,14.1,1.9,28,5.7,41.4H346.7z"/>
		</g>
		<g class="st0">
			<path class="st1" d="M319.3,270.2c4.5-13,7-26.9,7-41.4c0-69-55.3-124.9-123.6-124.9C134.3,103.9,79,159.8,79,228.8
				c0,14.5,2.5,28.4,7,41.4H319.3z"/>
		</g>
	</g>
</g>
<ellipse class="st2" cx="207.5" cy="322.7" rx="182.8" ry="14.7"/>
<g>
	<g>
		<g>
			<path class="st3" d="M315.3,155.6v114H90.2v-114c0-6,4.9-10.9,10.9-10.9h203.3C310.4,144.7,315.3,149.6,315.3,155.6z"/>
			<rect x="90.2" y="212.8" class="st4" width="225.1" height="56.8"/>
			<path class="st5" d="M307.7,157.2v98.8c0,1.4-1.1,2.5-2.5,2.5h-205c-0.5,0-1-0.2-1.4-0.4c-0.6-0.4-1.1-1.2-1.1-2v-98.8
				c0-1.4,1.1-2.5,2.5-2.5h205c0.9,0,1.6,0.4,2,1.1C307.5,156.2,307.7,156.7,307.7,157.2z"/>
			<path class="st5" d="M315.3,269.6c0,3-0.7,5.8-2,8.3c-0.8,1.6-1.9,3.1-3.2,4.3c-3.2,3.2-7.7,5.2-12.6,5.2H108
				c-6.8,0-12.8-3.9-15.8-9.5c-1.3-2.5-2-5.3-2-8.3H315.3z"/>
			<path class="st6" d="M313.3,277.9c-0.8,1.6-1.9,3.1-3.2,4.3c-3.2,3.2-7.7,5.2-12.6,5.2H108c-6.8,0-12.8-3.9-15.8-9.5H313.3z"/>
			<rect x="169.5" y="287.4" class="st3" width="66.6" height="27.8"/>
			<rect x="169.5" y="287.4" class="st4" width="66.6" height="10.2"/>
			<path class="st6" d="M260,324.7H145.6l0,0c0-5.3,4.3-9.5,9.5-9.5h95.4C255.8,315.2,260,319.4,260,324.7L260,324.7z"/>
			<g>
				<g>
					<path class="st6" d="M307.7,157.2v7.5H97.8v-7.5c0-1.4,1.1-2.5,2.5-2.5h205C306.6,154.7,307.7,155.8,307.7,157.2z"/>
					<path class="st5" d="M258.7,160.7H143.9c-0.9,0-1.6-0.7-1.6-1.6l0,0c0-0.9,0.7-1.6,1.6-1.6h114.8c0.9,0,1.6,0.7,1.6,1.6l0,0
						C260.4,159.9,259.6,160.7,258.7,160.7z"/>
					<g>
						<circle class="st7" cx="275.8" cy="159.1" r="1.7"/>
						<circle class="st7" cx="284.2" cy="159.1" r="1.7"/>
						<circle class="st7" cx="291.8" cy="159.1" r="1.7"/>
					</g>
				</g>
			</g>
			<circle class="st8" cx="203.7" cy="149.7" r="2.1"/>
		</g>
		<g>
			<g>
				<path class="st6" d="M140.4,183.3h-34.3c-1,0-1.9-0.8-1.9-1.9l0,0c0-1,0.8-1.9,1.9-1.9h34.3c1,0,1.9,0.8,1.9,1.9l0,0
					C142.3,182.4,141.4,183.3,140.4,183.3z"/>
				<path class="st6" d="M140.4,192.3h-34.3c-1,0-1.9-0.8-1.9-1.9l0,0c0-1,0.8-1.9,1.9-1.9h34.3c1,0,1.9,0.8,1.9,1.9l0,0
					C142.3,191.5,141.4,192.3,140.4,192.3z"/>
				<path class="st6" d="M140.4,201.4h-34.3c-1,0-1.9-0.8-1.9-1.9l0,0c0-1,0.8-1.9,1.9-1.9h34.3c1,0,1.9,0.8,1.9,1.9l0,0
					C142.3,200.5,141.4,201.4,140.4,201.4z"/>
				<path class="st6" d="M140.4,210.4h-34.3c-1,0-1.9-0.8-1.9-1.9l0,0c0-1,0.8-1.9,1.9-1.9h34.3c1,0,1.9,0.8,1.9,1.9l0,0
					C142.3,209.6,141.4,210.4,140.4,210.4z"/>
				<path class="st6" d="M140.4,219.5h-34.3c-1,0-1.9-0.8-1.9-1.9l0,0c0-1,0.8-1.9,1.9-1.9h34.3c1,0,1.9,0.8,1.9,1.9l0,0
					C142.3,218.6,141.4,219.5,140.4,219.5z"/>
				<path class="st6" d="M140.4,228.5h-34.3c-1,0-1.9-0.8-1.9-1.9l0,0c0-1,0.8-1.9,1.9-1.9h34.3c1,0,1.9,0.8,1.9,1.9l0,0
					C142.3,227.7,141.4,228.5,140.4,228.5z"/>
				<path class="st6" d="M140.4,237.6h-34.3c-1,0-1.9-0.8-1.9-1.9l0,0c0-1,0.8-1.9,1.9-1.9h34.3c1,0,1.9,0.8,1.9,1.9l0,0
					C142.3,236.7,141.4,237.6,140.4,237.6z"/>
				<path class="st6" d="M140.4,246.6h-34.3c-1,0-1.9-0.8-1.9-1.9l0,0c0-1,0.8-1.9,1.9-1.9h34.3c1,0,1.9,0.8,1.9,1.9l0,0
					C142.3,245.8,141.4,246.6,140.4,246.6z"/>
			</g>
			<g>
				<path class="st6" d="M299.7,183.3h-34.3c-1,0-1.9-0.8-1.9-1.9l0,0c0-1,0.8-1.9,1.9-1.9h34.3c1,0,1.9,0.8,1.9,1.9l0,0
					C301.5,182.4,300.7,183.3,299.7,183.3z"/>
				<path class="st6" d="M299.7,192.3h-34.3c-1,0-1.9-0.8-1.9-1.9l0,0c0-1,0.8-1.9,1.9-1.9h34.3c1,0,1.9,0.8,1.9,1.9l0,0
					C301.5,191.5,300.7,192.3,299.7,192.3z"/>
				<path class="st6" d="M299.7,201.4h-34.3c-1,0-1.9-0.8-1.9-1.9l0,0c0-1,0.8-1.9,1.9-1.9h34.3c1,0,1.9,0.8,1.9,1.9l0,0
					C301.5,200.5,300.7,201.4,299.7,201.4z"/>
				<path class="st6" d="M299.7,210.4h-34.3c-1,0-1.9-0.8-1.9-1.9l0,0c0-1,0.8-1.9,1.9-1.9h34.3c1,0,1.9,0.8,1.9,1.9l0,0
					C301.5,209.6,300.7,210.4,299.7,210.4z"/>
				<path class="st6" d="M299.7,219.5h-34.3c-1,0-1.9-0.8-1.9-1.9l0,0c0-1,0.8-1.9,1.9-1.9h34.3c1,0,1.9,0.8,1.9,1.9l0,0
					C301.5,218.6,300.7,219.5,299.7,219.5z"/>
				<path class="st6" d="M299.7,228.5h-34.3c-1,0-1.9-0.8-1.9-1.9l0,0c0-1,0.8-1.9,1.9-1.9h34.3c1,0,1.9,0.8,1.9,1.9l0,0
					C301.5,227.7,300.7,228.5,299.7,228.5z"/>
				<path class="st6" d="M299.7,237.6h-34.3c-1,0-1.9-0.8-1.9-1.9l0,0c0-1,0.8-1.9,1.9-1.9h34.3c1,0,1.9,0.8,1.9,1.9l0,0
					C301.5,236.7,300.7,237.6,299.7,237.6z"/>
				<path class="st6" d="M299.7,246.6h-34.3c-1,0-1.9-0.8-1.9-1.9l0,0c0-1,0.8-1.9,1.9-1.9h34.3c1,0,1.9,0.8,1.9,1.9l0,0
					C301.5,245.8,300.7,246.6,299.7,246.6z"/>
			</g>
		</g>
	</g>
	<g>
		<g>
			<g>
				<g>
					<path class="st9" d="M200.4,175.5c-0.4,1.2-0.8,2.5-1.2,3.7c0,0.1,0,0.1-0.1,0.3c1.2-0.9,2.4-1.8,3.6-2.6c0,0,0,0,0,0
						c0,0,0,0,0,0c1.2,0.9,2.4,1.8,3.7,2.7c0-0.1-0.1-0.2-0.1-0.2c-0.4-1.3-0.8-2.5-1.2-3.8c-0.1-0.2-0.1-0.4,0.2-0.5
						c1-0.7,2.1-1.5,3.1-2.3c0.1-0.1,0.2-0.1,0.2-0.2c0,0,0,0,0-0.1h-0.3c-1.3,0-2.6,0-3.9,0c-0.2,0-0.3-0.1-0.4-0.3
						c-0.2-0.6-0.4-1.2-0.6-1.9c-0.2-0.7-0.5-1.4-0.7-2.2c0,0,0,0.1,0,0.1c0,0,0,0.1,0,0.1c0,0.1,0,0.1-0.1,0.2
						c-0.4,1.2-0.8,2.4-1.2,3.7c-0.1,0.2-0.2,0.3-0.4,0.3c-1.3,0-2.6,0-3.9,0c-0.1,0-0.2,0-0.4,0c0.1,0.1,0.2,0.2,0.3,0.2
						c1,0.8,2.1,1.5,3.1,2.3C200.4,175.1,200.5,175.3,200.4,175.5z"/>
				</g>
			</g>
			<g>
				<g>
					<g>
						<path class="st9" d="M175.3,181.2c-0.4,1.2-0.8,2.5-1.2,3.7c0,0.1,0,0.1-0.1,0.3c1.2-0.9,2.4-1.8,3.6-2.6c0,0,0,0,0,0
							c0,0,0,0,0,0c1.2,0.9,2.4,1.8,3.7,2.7c0-0.1-0.1-0.2-0.1-0.2c-0.4-1.3-0.8-2.5-1.2-3.8c-0.1-0.2-0.1-0.4,0.2-0.5
							c1-0.7,2.1-1.5,3.1-2.3c0.1-0.1,0.2-0.1,0.2-0.2c0,0,0,0,0-0.1h-0.3c-1.3,0-2.6,0-3.9,0c-0.2,0-0.3-0.1-0.4-0.3
							c-0.2-0.6-0.4-1.2-0.6-1.9c-0.2-0.7-0.5-1.4-0.7-2.2c0,0,0,0.1,0,0.1c0,0,0,0.1,0,0.1c0,0.1,0,0.1-0.1,0.2
							c-0.4,1.2-0.8,2.4-1.2,3.7c-0.1,0.2-0.2,0.3-0.4,0.3c-1.3,0-2.6,0-3.9,0c-0.1,0-0.2,0-0.4,0c0.1,0.1,0.2,0.2,0.3,0.2
							c1,0.8,2.1,1.5,3.1,2.3C175.4,180.9,175.4,181,175.3,181.2z"/>
					</g>
				</g>
				<g>
					<g>
						<path class="st9" d="M155.8,195.7c-0.4,1.2-0.8,2.5-1.2,3.7c0,0.1,0,0.1-0.1,0.3c1.2-0.9,2.4-1.8,3.6-2.6c0,0,0,0,0,0
							c0,0,0,0,0,0c1.2,0.9,2.4,1.8,3.7,2.7c0-0.1-0.1-0.2-0.1-0.2c-0.4-1.3-0.8-2.5-1.2-3.8c-0.1-0.2-0.1-0.4,0.2-0.5
							c1-0.7,2.1-1.5,3.1-2.3c0.1-0.1,0.2-0.1,0.2-0.2c0,0,0,0,0-0.1h-0.3c-1.3,0-2.6,0-3.9,0c-0.2,0-0.3-0.1-0.4-0.3
							c-0.2-0.6-0.4-1.2-0.6-1.9c-0.2-0.7-0.5-1.4-0.7-2.2c0,0,0,0.1,0,0.1c0,0,0,0.1,0,0.1c0,0.1,0,0.1-0.1,0.2
							c-0.4,1.2-0.8,2.4-1.2,3.7c-0.1,0.2-0.2,0.3-0.4,0.3c-1.3,0-2.6,0-3.9,0c-0.1,0-0.2,0-0.4,0c0.1,0.1,0.2,0.2,0.3,0.2
							c1,0.8,2.1,1.5,3.1,2.3C155.9,195.3,155.9,195.5,155.8,195.7z"/>
					</g>
				</g>
				<g>
					<g>
						<path class="st9" d="M156.4,222.4c-0.4,1.2-0.8,2.5-1.2,3.7c0,0.1,0,0.1-0.1,0.3c1.2-0.9,2.4-1.8,3.6-2.6c0,0,0,0,0,0
							c0,0,0,0,0,0c1.2,0.9,2.4,1.8,3.7,2.7c0-0.1-0.1-0.2-0.1-0.2c-0.4-1.3-0.8-2.5-1.2-3.8c-0.1-0.2-0.1-0.4,0.2-0.5
							c1-0.7,2.1-1.5,3.1-2.3c0.1-0.1,0.2-0.1,0.2-0.2c0,0,0,0,0-0.1h-0.3c-1.3,0-2.6,0-3.9,0c-0.2,0-0.3-0.1-0.4-0.3
							c-0.2-0.6-0.4-1.2-0.6-1.9c-0.2-0.7-0.5-1.4-0.7-2.2c0,0,0,0.1,0,0.1c0,0,0,0.1,0,0.1c0,0.1,0,0.1-0.1,0.2
							c-0.4,1.2-0.8,2.4-1.2,3.7c-0.1,0.2-0.2,0.3-0.4,0.3c-1.3,0-2.6,0-3.9,0c-0.1,0-0.2,0-0.4,0c0.1,0.1,0.2,0.2,0.3,0.2
							c1,0.8,2.1,1.5,3.1,2.3C156.5,222,156.5,222.1,156.4,222.4z"/>
					</g>
				</g>
				<g>
					<g>
						<path class="st9" d="M168.5,246.4c-0.4,1.2-0.8,2.5-1.2,3.7c0,0.1,0,0.1-0.1,0.3c1.2-0.9,2.4-1.8,3.6-2.6c0,0,0,0,0,0
							c0,0,0,0,0,0c1.2,0.9,2.4,1.8,3.7,2.7c0-0.1-0.1-0.2-0.1-0.2c-0.4-1.3-0.8-2.5-1.2-3.8c-0.1-0.2-0.1-0.4,0.2-0.5
							c1-0.7,2.1-1.5,3.1-2.3c0.1-0.1,0.2-0.1,0.2-0.2c0,0,0,0,0-0.1h-0.3c-1.3,0-2.6,0-3.9,0c-0.2,0-0.3-0.1-0.4-0.3
							c-0.2-0.6-0.4-1.2-0.6-1.9c-0.2-0.7-0.5-1.4-0.7-2.2c0,0,0,0.1,0,0.1c0,0,0,0.1,0,0.1c0,0.1,0,0.1-0.1,0.2
							c-0.4,1.2-0.8,2.4-1.2,3.7c-0.1,0.2-0.2,0.3-0.4,0.3c-1.3,0-2.6,0-3.9,0c-0.1,0-0.2,0-0.4,0c0.1,0.1,0.2,0.2,0.3,0.2
							c1,0.8,2.1,1.5,3.1,2.3C168.6,246.1,168.6,246.2,168.5,246.4z"/>
					</g>
				</g>
			</g>
			<g>
				<g>
					<g>
						<path class="st9" d="M227.6,181.2c0.4,1.2,0.8,2.5,1.2,3.7c0,0.1,0,0.1,0.1,0.3c-1.2-0.9-2.4-1.8-3.6-2.6c0,0,0,0,0,0
							c0,0,0,0,0,0c-1.2,0.9-2.4,1.8-3.7,2.7c0-0.1,0.1-0.2,0.1-0.2c0.4-1.3,0.8-2.5,1.2-3.8c0.1-0.2,0.1-0.4-0.2-0.5
							c-1-0.7-2.1-1.5-3.1-2.3c-0.1-0.1-0.2-0.1-0.2-0.2c0,0,0,0,0-0.1h0.3c1.3,0,2.6,0,3.9,0c0.2,0,0.3-0.1,0.4-0.3
							c0.2-0.6,0.4-1.2,0.6-1.9c0.2-0.7,0.5-1.4,0.7-2.2c0,0,0,0.1,0,0.1c0,0,0,0.1,0,0.1c0,0.1,0,0.1,0.1,0.2
							c0.4,1.2,0.8,2.4,1.2,3.7c0.1,0.2,0.2,0.3,0.4,0.3c1.3,0,2.6,0,3.9,0c0.1,0,0.2,0,0.4,0c-0.1,0.1-0.2,0.2-0.3,0.2
							c-1,0.8-2.1,1.5-3.1,2.3C227.6,180.9,227.6,181,227.6,181.2z"/>
					</g>
				</g>
				<g>
					<g>
						<path class="st9" d="M247.1,195.7c0.4,1.2,0.8,2.5,1.2,3.7c0,0.1,0,0.1,0.1,0.3c-1.2-0.9-2.4-1.8-3.6-2.6c0,0,0,0,0,0
							c0,0,0,0,0,0c-1.2,0.9-2.4,1.8-3.7,2.7c0-0.1,0.1-0.2,0.1-0.2c0.4-1.3,0.8-2.5,1.2-3.8c0.1-0.2,0.1-0.4-0.2-0.5
							c-1-0.7-2.1-1.5-3.1-2.3c-0.1-0.1-0.2-0.1-0.2-0.2c0,0,0,0,0-0.1h0.3c1.3,0,2.6,0,3.9,0c0.2,0,0.3-0.1,0.4-0.3
							c0.2-0.6,0.4-1.2,0.6-1.9c0.2-0.7,0.5-1.4,0.7-2.2c0,0,0,0.1,0,0.1c0,0,0,0.1,0,0.1c0,0.1,0,0.1,0.1,0.2
							c0.4,1.2,0.8,2.4,1.2,3.7c0.1,0.2,0.2,0.3,0.4,0.3c1.3,0,2.6,0,3.9,0c0.1,0,0.2,0,0.4,0c-0.1,0.1-0.2,0.2-0.3,0.2
							c-1,0.8-2.1,1.5-3.1,2.3C247.1,195.3,247.1,195.5,247.1,195.7z"/>
					</g>
				</g>
				<g>
					<g>
						<path class="st9" d="M246.5,222.4c0.4,1.2,0.8,2.5,1.2,3.7c0,0.1,0,0.1,0.1,0.3c-1.2-0.9-2.4-1.8-3.6-2.6c0,0,0,0,0,0
							c0,0,0,0,0,0c-1.2,0.9-2.4,1.8-3.7,2.7c0-0.1,0.1-0.2,0.1-0.2c0.4-1.3,0.8-2.5,1.2-3.8c0.1-0.2,0.1-0.4-0.2-0.5
							c-1-0.7-2.1-1.5-3.1-2.3c-0.1-0.1-0.2-0.1-0.2-0.2c0,0,0,0,0-0.1h0.3c1.3,0,2.6,0,3.9,0c0.2,0,0.3-0.1,0.4-0.3
							c0.2-0.6,0.4-1.2,0.6-1.9c0.2-0.7,0.5-1.4,0.7-2.2c0,0,0,0.1,0,0.1c0,0,0,0.1,0,0.1c0,0.1,0,0.1,0.1,0.2
							c0.4,1.2,0.8,2.4,1.2,3.7c0.1,0.2,0.2,0.3,0.4,0.3c1.3,0,2.6,0,3.9,0c0.1,0,0.2,0,0.4,0c-0.1,0.1-0.2,0.2-0.3,0.2
							c-1,0.8-2.1,1.5-3.1,2.3C246.5,222,246.5,222.1,246.5,222.4z"/>
					</g>
				</g>
				<g>
					<g>
						<path class="st9" d="M234.4,246.4c0.4,1.2,0.8,2.5,1.2,3.7c0,0.1,0,0.1,0.1,0.3c-1.2-0.9-2.4-1.8-3.6-2.6c0,0,0,0,0,0
							c0,0,0,0,0,0c-1.2,0.9-2.4,1.8-3.7,2.7c0-0.1,0.1-0.2,0.1-0.2c0.4-1.3,0.8-2.5,1.2-3.8c0.1-0.2,0.1-0.4-0.2-0.5
							c-1-0.7-2.1-1.5-3.1-2.3c-0.1-0.1-0.2-0.1-0.2-0.2c0,0,0,0,0-0.1h0.3c1.3,0,2.6,0,3.9,0c0.2,0,0.3-0.1,0.4-0.3
							c0.2-0.6,0.4-1.2,0.6-1.9c0.2-0.7,0.5-1.4,0.7-2.2c0,0,0,0.1,0,0.1c0,0,0,0.1,0,0.1c0,0.1,0,0.1,0.1,0.2
							c0.4,1.2,0.8,2.4,1.2,3.7c0.1,0.2,0.2,0.3,0.4,0.3c1.3,0,2.6,0,3.9,0c0.1,0,0.2,0,0.4,0c-0.1,0.1-0.2,0.2-0.3,0.2
							c-1,0.8-2.1,1.5-3.1,2.3C234.3,246.1,234.3,246.2,234.4,246.4z"/>
					</g>
				</g>
			</g>
		</g>
		<g>
			<g>
				<g>
					<path class="st3" d="M202.9,252C202.8,252,202.8,252,202.9,252c-37.7-8.6-31.6-55.1-31.6-55.1l31.5-13.6l0.1,0l31.4,13.6
						C234.3,196.9,240.4,243.3,202.9,252z"/>
					<path class="st4" d="M202.9,252v-68.7l31.4,13.6C234.3,196.9,240.4,243.3,202.9,252z"/>
				</g>
				<g>
					<path class="st10" d="M228.1,220.3c-3.7,14.5-12.2,23.6-25.3,26.9c-13.1-3.3-21.6-12.4-25.3-26.9c-2.1-8.3-2.1-16.3-1.8-20.3
						l27.1-11.7l27.1,11.7C230.1,204,230.2,212,228.1,220.3z"/>
				</g>
				<g class="st4">
					<path d="M228.1,220.3c-3.7,14.5-12.2,23.6-25.3,26.9v-58.9l27.1,11.7C230.1,204,230.2,212,228.1,220.3z"/>
				</g>
			</g>
			<g>
				<g>
					<g>
						<g>
							<g>
								<g>
									<g>
										<path class="st5" d="M215.9,207.4h-1.3c-0.1-1.2-0.4-2.3-0.8-3.3c-1.8-4.3-6-7.4-11-7.4h-0.1c-5,0-9.3,3.1-11.1,7.4
											c-0.4,1-0.7,2.1-0.8,3.3h-1.3c-1.7,0-3,1.4-3,3v19.9c0,1.7,1.4,3,3,3h26.3c1.7,0,3-1.4,3-3v-19.9
											C219,208.8,217.6,207.4,215.9,207.4z M205.7,226.8h-6.1l1.4-5.9c-0.2-0.1-0.4-0.3-0.6-0.5c-0.6-0.6-1-1.5-1-2.4
											c0-0.5,0.1-1,0.3-1.5c0.5-1.1,1.7-1.9,3-1.9c0,0,0.1,0,0.1,0c1.3,0,2.5,0.8,3,1.9c0.2,0.5,0.4,1,0.4,1.5
											c0,0.9-0.4,1.7-1,2.3c-0.3,0.3-0.6,0.5-0.9,0.7L205.7,226.8z M194.5,207.4c0.2-1.2,0.6-2.3,1.2-3.3
											c1.5-2.3,4.1-3.9,7.1-3.9c0,0,0.1,0,0.1,0c2.9,0,5.5,1.6,7,3.9c0.6,1,1.1,2.1,1.2,3.3H194.5z"/>
									</g>
								</g>
							</g>
						</g>
					</g>
					<path class="st4" d="M195.9,203.9c-0.1,0.1-0.1,0.2-0.2,0.3c-0.6,1-1.1,2.1-1.2,3.3h-3.6c0.1-1.2,0.4-2.3,0.8-3.3
						c0-0.1,0.1-0.2,0.1-0.3H195.9z"/>
					<path class="st4" d="M214.7,207.4h-3.6c-0.2-1.2-0.6-2.3-1.2-3.3c-0.1-0.1-0.1-0.2-0.2-0.3h4.1c0,0.1,0.1,0.2,0.1,0.3
						C214.3,205.2,214.5,206.3,214.7,207.4z"/>
				</g>
				<path class="st4" d="M219,210.5v19.9c0,1.7-1.4,3-3,3h-13.2v-6.7h3l-1.4-5.7c0.3-0.2,0.7-0.4,0.9-0.7c0.6-0.6,1-1.4,1-2.3
					c0-0.5-0.1-1.1-0.4-1.5c-0.6-1.1-1.7-1.9-3-1.9c0,0-0.1,0-0.1,0v-7.2h8.3c-0.2-1.2-0.6-2.3-1.2-3.3c-1.5-2.3-4.1-3.8-7-3.9
					c0,0-0.1,0-0.1,0v-3.5h0.1c5,0,9.2,3.1,11,7.4c0.4,1,0.7,2.1,0.8,3.3h1.3C217.6,207.4,219,208.8,219,210.5z"/>
			</g>
		</g>
	</g>
</g>
<g>
	<g>
		<path class="st1" d="M298.9,99.8c0.9,0.7,1.9,1.5,2.8,2.2c0.2,0.2,0.5,0.2,0.7,0.2c0.3,0,0.6-0.1,0.9-0.4c0.4-0.5,0.3-1.2-0.2-1.6
			c-0.9-0.8-1.9-1.5-2.8-2.2c-0.5-0.4-1.2-0.3-1.6,0.2C298.3,98.7,298.4,99.4,298.9,99.8z"/>
		<path class="st1" d="M245.1,72.8c1.1,0.3,2.3,0.6,3.4,1c0.1,0,0.2,0,0.3,0c0.5,0,0.9-0.3,1.1-0.8c0.2-0.6-0.2-1.2-0.7-1.4
			c-1.1-0.3-2.3-0.7-3.5-1c-0.6-0.2-1.2,0.2-1.4,0.8C244.2,72,244.5,72.7,245.1,72.8z"/>
		<path class="st1" d="M253.4,75.4c1.1,0.4,2.2,0.8,3.3,1.2c0.1,0,0.3,0.1,0.4,0.1c0.5,0,0.9-0.3,1-0.7c0.2-0.6-0.1-1.2-0.7-1.4
			c-1.1-0.4-2.3-0.8-3.4-1.2c-0.6-0.2-1.2,0.1-1.4,0.7C252.5,74.5,252.8,75.2,253.4,75.4z"/>
		<path class="st1" d="M236.7,70.7c1.1,0.3,2.3,0.5,3.5,0.8c0.1,0,0.2,0,0.3,0c0.5,0,1-0.3,1.1-0.9c0.1-0.6-0.2-1.2-0.8-1.3
			c-1.2-0.3-2.3-0.6-3.5-0.8c-0.6-0.1-1.2,0.2-1.3,0.9C235.7,70,236.1,70.6,236.7,70.7z"/>
		<path class="st1" d="M261.5,78.4c0.9,0.4,1.8,0.7,2.6,1.1c0.2,0.1,0.4,0.2,0.6,0.3c0.1,0.1,0.3,0.1,0.4,0.1c0.4,0,0.8-0.3,1-0.7
			c0.2-0.6,0-1.2-0.6-1.5c-0.2-0.1-0.4-0.2-0.7-0.3c-0.9-0.4-1.8-0.7-2.7-1.1c-0.6-0.2-1.2,0-1.5,0.6
			C260.6,77.5,260.9,78.1,261.5,78.4z"/>
		<path class="st1" d="M284.6,90c1,0.6,2,1.2,3,1.9c0.2,0.1,0.4,0.2,0.6,0.2c0.4,0,0.7-0.2,0.9-0.5c0.3-0.5,0.2-1.2-0.3-1.5
			c-1-0.6-2-1.3-3.1-1.9c-0.5-0.3-1.2-0.2-1.5,0.4C283.9,89,284.1,89.7,284.6,90z"/>
		<path class="st1" d="M291.9,94.7c1,0.7,1.9,1.4,2.9,2c0.2,0.1,0.4,0.2,0.7,0.2c0.3,0,0.7-0.2,0.9-0.5c0.4-0.5,0.2-1.2-0.3-1.6
			c-1-0.7-2-1.4-2.9-2.1c-0.5-0.4-1.2-0.2-1.6,0.3C291.3,93.6,291.4,94.3,291.9,94.7z"/>
		<path class="st1" d="M277.1,85.7c1,0.6,2.1,1.1,3.1,1.7c0.2,0.1,0.4,0.1,0.5,0.1c0.4,0,0.8-0.2,1-0.6c0.3-0.5,0.1-1.2-0.4-1.5
			c-1-0.6-2.1-1.2-3.2-1.7c-0.5-0.3-1.2-0.1-1.5,0.5C276.4,84.7,276.6,85.4,277.1,85.7z"/>
		<path class="st1" d="M269.4,81.8c1.1,0.5,2.1,1,3.2,1.5c0.2,0.1,0.3,0.1,0.5,0.1c0.4,0,0.8-0.2,1-0.6c0.3-0.6,0-1.2-0.5-1.5
			c-1.1-0.5-2.2-1.1-3.2-1.6c-0.6-0.3-1.2,0-1.5,0.5C268.6,80.9,268.8,81.6,269.4,81.8z"/>
		<path class="st1" d="M142.9,78.9c0.1,0,0.3,0,0.4-0.1c1.1-0.4,2.2-0.9,3.3-1.3c0.6-0.2,0.9-0.9,0.6-1.4c-0.2-0.6-0.9-0.9-1.4-0.6
			c-1.1,0.4-2.2,0.9-3.3,1.3c-0.6,0.2-0.8,0.9-0.6,1.5C142.1,78.6,142.5,78.9,142.9,78.9z"/>
		<path class="st1" d="M228.2,69.1c1.2,0.2,2.3,0.4,3.5,0.6c0.1,0,0.1,0,0.2,0c0.5,0,1-0.4,1.1-0.9c0.1-0.6-0.3-1.2-0.9-1.3
			c-1.2-0.2-2.4-0.4-3.5-0.6c-0.6-0.1-1.2,0.3-1.3,0.9C227.2,68.4,227.6,69,228.2,69.1z"/>
		<path class="st1" d="M176.3,69.3c0.1,0,0.1,0,0.2,0c1.2-0.2,2.3-0.4,3.5-0.6c0.6-0.1,1-0.7,0.9-1.3c-0.1-0.6-0.7-1-1.3-0.9
			c-1.2,0.2-2.4,0.4-3.6,0.6c-0.6,0.1-1,0.7-0.9,1.3C175.3,68.9,175.8,69.3,176.3,69.3z"/>
		<path class="st1" d="M167.8,71c0.1,0,0.2,0,0.2,0c1.1-0.3,2.3-0.5,3.5-0.7c0.6-0.1,1-0.7,0.9-1.3c-0.1-0.6-0.7-1-1.3-0.9
			c-1.2,0.2-2.4,0.5-3.5,0.8c-0.6,0.1-1,0.7-0.8,1.3C166.8,70.7,167.3,71,167.8,71z"/>
		<path class="st1" d="M151.1,75.8c0.1,0,0.2,0,0.4-0.1c1.1-0.4,2.2-0.8,3.4-1.1c0.6-0.2,0.9-0.8,0.7-1.4c-0.2-0.6-0.8-0.9-1.4-0.7
			c-1.1,0.4-2.3,0.8-3.4,1.1c-0.6,0.2-0.9,0.8-0.7,1.4C150.2,75.5,150.6,75.8,151.1,75.8z"/>
		<path class="st1" d="M159.4,73.2c0.1,0,0.2,0,0.3,0c1.1-0.3,2.3-0.6,3.4-0.9c0.6-0.2,1-0.8,0.8-1.4c-0.2-0.6-0.8-1-1.4-0.8
			c-1.2,0.3-2.3,0.6-3.5,1c-0.6,0.2-0.9,0.8-0.8,1.4C158.4,72.9,158.9,73.2,159.4,73.2z"/>
		<path class="st1" d="M308.2,107.6c0.2,0.2,0.5,0.3,0.7,0.3c0.3,0,0.6-0.1,0.8-0.4c0.4-0.5,0.4-1.2-0.1-1.6
			c-0.9-0.8-1.8-1.6-2.7-2.4c-0.5-0.4-1.2-0.4-1.6,0.1c-0.4,0.5-0.4,1.2,0.1,1.6C306.5,106,307.4,106.8,308.2,107.6z"/>
		<path class="st1" d="M211,67.3c1.2,0.1,2.4,0.1,3.5,0.2c0,0,0.1,0,0.1,0c0.6,0,1.1-0.4,1.1-1c0-0.6-0.4-1.2-1-1.2
			c-1.2-0.1-2.4-0.2-3.6-0.2c0,0,0,0-0.1,0c-0.6,0-1.1,0.5-1.1,1.1C209.9,66.8,210.4,67.3,211,67.3z"/>
		<path class="st1" d="M193.6,67.4C193.7,67.4,193.7,67.4,193.6,67.4c1.2-0.1,2.4-0.1,3.6-0.2c0.6,0,1.1-0.5,1.1-1.2
			c0-0.6-0.5-1.1-1.2-1.1c-1.2,0-2.4,0.1-3.6,0.2c-0.6,0-1.1,0.6-1.1,1.2C192.6,66.9,193.1,67.4,193.6,67.4z"/>
		<path class="st1" d="M185,68.1c0,0,0.1,0,0.1,0c1.2-0.1,2.4-0.3,3.5-0.4c0.6-0.1,1.1-0.6,1-1.2c-0.1-0.6-0.6-1.1-1.2-1
			c-1.2,0.1-2.4,0.2-3.6,0.4c-0.6,0.1-1.1,0.6-1,1.2C183.9,67.7,184.4,68.1,185,68.1z"/>
		<path class="st1" d="M202.4,67.1L202.4,67.1l0.6,0c1,0,2,0,3,0c0,0,0,0,0,0c0.6,0,1.1-0.5,1.1-1.1c0-0.6-0.5-1.1-1.1-1.1
			c-1,0-2,0-3,0l-0.6,0c-0.6,0-1.1,0.5-1.1,1.1C201.2,66.6,201.7,67.1,202.4,67.1z"/>
		<path class="st1" d="M314,113.1c0.2,0.2,0.3,0.3,0.5,0.5c0.2,0.2,0.5,0.3,0.8,0.3c0.3,0,0.6-0.1,0.8-0.3c0.4-0.4,0.4-1.1,0-1.6
			c-0.2-0.2-0.3-0.3-0.5-0.5c-0.7-0.7-1.4-1.4-2.1-2.1c-0.4-0.4-1.2-0.4-1.6,0c-0.4,0.4-0.4,1.2,0,1.6
			C312.7,111.8,313.3,112.4,314,113.1z"/>
		<path class="st1" d="M349.8,168.4c0.4,1.1,0.8,2.2,1.2,3.3c0.2,0.5,0.6,0.7,1.1,0.7c0.1,0,0.3,0,0.4-0.1c0.6-0.2,0.9-0.8,0.7-1.4
			c-0.4-1.1-0.8-2.3-1.2-3.4c-0.2-0.6-0.9-0.9-1.4-0.6C349.9,167.1,349.6,167.8,349.8,168.4z"/>
		<path class="st1" d="M352.7,176.5c0.4,1.1,0.7,2.3,1,3.4c0.1,0.5,0.6,0.8,1.1,0.8c0.1,0,0.2,0,0.3,0c0.6-0.2,0.9-0.8,0.8-1.4
			c-0.3-1.1-0.7-2.3-1.1-3.4c-0.2-0.6-0.8-0.9-1.4-0.7C352.8,175.3,352.5,175.9,352.7,176.5z"/>
		<path class="st1" d="M346.5,160.4c0.4,0.9,0.8,1.8,1.2,2.7l0.2,0.6c0.2,0.4,0.6,0.7,1,0.7c0.1,0,0.3,0,0.4-0.1
			c0.6-0.2,0.8-0.9,0.6-1.5l-0.2-0.6c-0.4-0.9-0.8-1.8-1.2-2.7c-0.3-0.6-0.9-0.8-1.5-0.6C346.5,159.1,346.3,159.8,346.5,160.4z"/>
		<path class="st1" d="M359.4,210.4c0.1,1.2,0.2,2.4,0.3,3.5c0,0.6,0.5,1,1.1,1c0,0,0,0,0.1,0c0.6,0,1.1-0.6,1-1.2
			c-0.1-1.2-0.2-2.4-0.3-3.6c-0.1-0.6-0.6-1.1-1.2-1C359.8,209.2,359.4,209.8,359.4,210.4z"/>
		<path class="st1" d="M361,217.9c-0.6,0-1.1,0.5-1.1,1.2c0,1.2,0.1,2.4,0.1,3.5c0,0.6,0.5,1.1,1.1,1.1h0c0.6,0,1.1-0.5,1.1-1.1
			c0-1.2,0-2.4-0.1-3.6C362.2,218.3,361.7,217.8,361,217.9z"/>
		<path class="st1" d="M359.4,200.5c-0.6,0.1-1,0.7-0.9,1.3c0.2,1.2,0.3,2.3,0.5,3.5c0.1,0.6,0.6,1,1.1,1c0,0,0.1,0,0.1,0
			c0.6-0.1,1-0.6,1-1.2c-0.1-1.2-0.3-2.4-0.5-3.6C360.6,200.9,360,200.4,359.4,200.5z"/>
		<path class="st1" d="M357.9,192c-0.6,0.1-1,0.7-0.9,1.3c0.2,1.2,0.5,2.3,0.7,3.5c0.1,0.5,0.6,0.9,1.1,0.9c0.1,0,0.1,0,0.2,0
			c0.6-0.1,1-0.7,0.9-1.3c-0.2-1.2-0.4-2.4-0.7-3.5C359.1,192.2,358.5,191.8,357.9,192z"/>
		<path class="st1" d="M355.1,184.8c0.3,1.1,0.6,2.3,0.8,3.4c0.1,0.5,0.6,0.9,1.1,0.9c0.1,0,0.2,0,0.3,0c0.6-0.1,1-0.7,0.8-1.3
			c-0.3-1.2-0.6-2.3-0.9-3.5c-0.2-0.6-0.8-1-1.4-0.8C355.3,183.6,354.9,184.2,355.1,184.8z"/>
		<path class="st1" d="M331.2,133.4c0.2,0.3,0.6,0.5,0.9,0.5c0.2,0,0.4-0.1,0.6-0.2c0.5-0.4,0.6-1.1,0.3-1.6c-0.7-1-1.4-2-2.1-2.9
			c-0.4-0.5-1.1-0.6-1.6-0.2c-0.5,0.4-0.6,1.1-0.2,1.6C329.8,131.5,330.5,132.5,331.2,133.4z"/>
		<path class="st1" d="M336,140.6c0.2,0.3,0.6,0.5,0.9,0.5c0.2,0,0.4-0.1,0.6-0.2c0.5-0.3,0.7-1,0.4-1.5c-0.6-1-1.3-2-2-3
			c-0.3-0.5-1-0.7-1.5-0.3c-0.5,0.3-0.7,1-0.3,1.5C334.7,138.6,335.4,139.6,336,140.6z"/>
		<path class="st1" d="M326,126.5c0.2,0.3,0.5,0.4,0.9,0.4c0.2,0,0.5-0.1,0.7-0.2c0.5-0.4,0.6-1.1,0.2-1.6c-0.7-0.9-1.5-1.9-2.3-2.8
			c-0.4-0.5-1.1-0.5-1.6-0.1c-0.5,0.4-0.5,1.1-0.1,1.6C324.5,124.7,325.3,125.6,326,126.5z"/>
		<path class="st1" d="M320.4,119.9c0.2,0.2,0.5,0.4,0.8,0.4c0.3,0,0.5-0.1,0.7-0.3c0.5-0.4,0.5-1.1,0.1-1.6
			c-0.8-0.9-1.6-1.8-2.4-2.7c-0.4-0.5-1.1-0.5-1.6-0.1c-0.5,0.4-0.5,1.1-0.1,1.6C318.8,118.1,319.6,119,320.4,119.9z"/>
		<path class="st1" d="M344.4,155.7c0.2,0.4,0.6,0.6,1,0.6c0.2,0,0.3,0,0.5-0.1c0.6-0.3,0.8-0.9,0.5-1.5c-0.5-1.1-1.1-2.2-1.6-3.2
			c-0.3-0.5-1-0.8-1.5-0.5c-0.5,0.3-0.8,1-0.5,1.5C343.3,153.6,343.9,154.7,344.4,155.7z"/>
		<path class="st1" d="M348.7,285.9c-0.6-0.2-1.2,0-1.5,0.6c-0.5,1.1-1,2.2-1.4,3.2c-0.3,0.6,0,1.2,0.5,1.5c0.2,0.1,0.3,0.1,0.5,0.1
			c0.4,0,0.8-0.2,1-0.7c0.5-1.1,1-2.2,1.5-3.3C349.5,286.8,349.2,286.1,348.7,285.9z"/>
		<path class="st1" d="M342.9,299.1c0.4,0,0.8-0.2,1-0.6c0.6-1.1,1.1-2.1,1.6-3.2c0.3-0.6,0.1-1.2-0.5-1.5c-0.6-0.3-1.2-0.1-1.5,0.5
			c-0.5,1.1-1.1,2.1-1.6,3.2c-0.3,0.5-0.1,1.2,0.5,1.5C342.6,299.1,342.8,299.1,342.9,299.1z"/>
		<path class="st1" d="M338.7,306.7c0.4,0,0.7-0.2,1-0.5c0.6-1,1.2-2.1,1.8-3.1c0.3-0.5,0.1-1.2-0.4-1.5c-0.5-0.3-1.2-0.1-1.5,0.4
			c-0.6,1-1.2,2.1-1.8,3.1c-0.3,0.5-0.1,1.2,0.4,1.5C338.3,306.6,338.5,306.7,338.7,306.7z"/>
		<path class="st1" d="M340.4,148.1c0.2,0.4,0.6,0.6,1,0.6c0.2,0,0.4,0,0.5-0.1c0.5-0.3,0.7-1,0.4-1.5c-0.6-1-1.2-2.1-1.8-3.1
			c-0.3-0.5-1-0.7-1.5-0.4c-0.5,0.3-0.7,1-0.4,1.5C339.2,146,339.8,147,340.4,148.1z"/>
		<path class="st1" d="M219.6,68c1.2,0.1,2.4,0.3,3.5,0.4c0,0,0.1,0,0.1,0c0.6,0,1-0.4,1.1-1c0.1-0.6-0.4-1.2-1-1.2
			c-1.2-0.2-2.4-0.3-3.6-0.4c-0.6-0.1-1.2,0.4-1.2,1C218.6,67.4,219,67.9,219.6,68z"/>
		<path class="st1" d="M47.9,255.9c0.6-0.1,1-0.7,0.9-1.3c-0.2-1.2-0.4-2.3-0.6-3.5c-0.1-0.6-0.7-1-1.3-0.9c-0.6,0.1-1,0.7-0.9,1.3
			c0.2,1.2,0.4,2.4,0.7,3.5c0.1,0.5,0.6,0.9,1.1,0.9C47.7,255.9,47.8,255.9,47.9,255.9z"/>
		<path class="st1" d="M53,271.3c-0.4-1.1-0.7-2.3-1-3.4c-0.2-0.6-0.8-0.9-1.4-0.8c-0.6,0.2-0.9,0.8-0.8,1.4c0.3,1.1,0.7,2.3,1,3.4
			c0.2,0.5,0.6,0.8,1.1,0.8c0.1,0,0.2,0,0.3-0.1C52.9,272.5,53.2,271.9,53,271.3z"/>
		<path class="st1" d="M50.7,263c-0.3-1.1-0.6-2.3-0.8-3.4c-0.1-0.6-0.7-1-1.3-0.8c-0.6,0.1-1,0.7-0.8,1.3c0.3,1.2,0.6,2.3,0.8,3.5
			c0.1,0.5,0.6,0.8,1.1,0.8c0.1,0,0.2,0,0.3,0C50.5,264.2,50.8,263.6,50.7,263z"/>
		<path class="st1" d="M55.9,279.5c-0.4-1.1-0.8-2.2-1.2-3.3c-0.2-0.6-0.8-0.9-1.4-0.7c-0.6,0.2-0.9,0.8-0.7,1.4
			c0.4,1.1,0.8,2.3,1.2,3.4c0.2,0.4,0.6,0.7,1,0.7c0.1,0,0.3,0,0.4-0.1C55.8,280.7,56.1,280.1,55.9,279.5z"/>
		<path class="st1" d="M44.8,230C44.8,230,44.8,230,44.8,230c0.6,0,1.1-0.5,1.1-1.1c0-1.2-0.1-2.4-0.1-3.5c0-0.6-0.5-1.1-1.1-1.1h0
			c-0.6,0-1.1,0.5-1.1,1.1c0,1.2,0,2.4,0.1,3.6C43.7,229.5,44.2,230,44.8,230z"/>
		<path class="st1" d="M44.7,221.3C44.8,221.3,44.8,221.3,44.7,221.3c0.6,0,1.1-0.5,1.1-1.1c0-1.2,0.1-2.4,0.1-3.5
			c0-0.6-0.4-1.1-1.1-1.2c-0.6,0-1.1,0.4-1.2,1.1c-0.1,1.2-0.1,2.4-0.1,3.6C43.6,220.7,44.1,221.2,44.7,221.3z"/>
		<path class="st1" d="M59.1,287.5c-0.3-0.7-0.6-1.4-0.9-2.2c-0.2-0.4-0.3-0.7-0.5-1.1c-0.2-0.6-0.9-0.8-1.5-0.6
			c-0.6,0.2-0.8,0.9-0.6,1.5c0.2,0.4,0.3,0.8,0.5,1.1c0.3,0.7,0.6,1.5,0.9,2.2c0.2,0.4,0.6,0.7,1,0.7c0.2,0,0.3,0,0.4-0.1
			C59.1,288.7,59.4,288.1,59.1,287.5z"/>
		<path class="st1" d="M135,82.4c0.2,0,0.3,0,0.5-0.1c1.1-0.5,2.1-1,3.2-1.5c0.6-0.3,0.8-0.9,0.6-1.5c-0.3-0.6-0.9-0.8-1.5-0.6
			c-1.1,0.5-2.2,1-3.3,1.5c-0.6,0.3-0.8,0.9-0.5,1.5C134.1,82.2,134.5,82.4,135,82.4z"/>
		<path class="st1" d="M45.4,238.7c0.6-0.1,1.1-0.6,1-1.2c-0.1-1.2-0.2-2.4-0.3-3.5c0-0.6-0.6-1.1-1.2-1c-0.6,0-1.1,0.6-1,1.2
			c0.1,1.2,0.2,2.4,0.3,3.6C44.2,238.2,44.7,238.7,45.4,238.7C45.3,238.7,45.3,238.7,45.4,238.7z"/>
		<path class="st1" d="M358.6,252.6c-0.6-0.1-1.2,0.3-1.3,0.9c-0.2,1.2-0.5,2.3-0.7,3.5c-0.1,0.6,0.3,1.2,0.9,1.3c0.1,0,0.2,0,0.2,0
			c0.5,0,1-0.4,1.1-0.9c0.2-1.2,0.5-2.4,0.7-3.5C359.6,253.3,359.2,252.7,358.6,252.6z"/>
		<path class="st1" d="M359.9,243.9c-0.6-0.1-1.2,0.4-1.3,1c-0.2,1.2-0.3,2.4-0.5,3.5c-0.1,0.6,0.3,1.2,0.9,1.3c0.1,0,0.1,0,0.2,0
			c0.5,0,1-0.4,1.1-0.9c0.2-1.2,0.4-2.4,0.5-3.6C361,244.6,360.6,244,359.9,243.9z"/>
		<path class="st1" d="M360.8,235.3c-0.6,0-1.2,0.4-1.2,1c-0.1,1.2-0.2,2.4-0.3,3.5c-0.1,0.6,0.4,1.2,1,1.2c0,0,0.1,0,0.1,0
			c0.6,0,1.1-0.4,1.1-1c0.1-1.2,0.2-2.4,0.3-3.6C361.9,235.9,361.4,235.3,360.8,235.3z"/>
		<path class="st1" d="M361.1,226.6c-0.6,0-1.1,0.5-1.1,1.1c0,1.2-0.1,2.4-0.1,3.5c0,0.6,0.5,1.1,1.1,1.2c0,0,0,0,0,0
			c0.6,0,1.1-0.5,1.1-1.1c0.1-1.2,0.1-2.4,0.1-3.6C362.2,227.1,361.8,226.6,361.1,226.6z"/>
		<path class="st1" d="M61.3,292.2c-0.3-0.6-0.9-0.8-1.5-0.5c-0.6,0.3-0.8,0.9-0.5,1.5c0.5,1.1,1.1,2.2,1.6,3.2
			c0.2,0.4,0.6,0.6,1,0.6c0.2,0,0.3,0,0.5-0.1c0.6-0.3,0.8-1,0.5-1.5C62.3,294.3,61.8,293.2,61.3,292.2z"/>
		<path class="st1" d="M45.1,212.6C45.2,212.6,45.2,212.6,45.1,212.6c0.7,0,1.2-0.4,1.2-1c0.1-1.2,0.2-2.4,0.3-3.5
			c0.1-0.6-0.4-1.2-1-1.2c-0.6-0.1-1.2,0.4-1.2,1c-0.1,1.2-0.2,2.4-0.3,3.6C44.1,212,44.5,212.5,45.1,212.6z"/>
		<path class="st1" d="M66,304.6c0.2,0,0.4,0,0.6-0.2c0.5-0.3,0.7-1,0.4-1.5c-0.6-1-1.2-2.1-1.7-3.1c-0.3-0.5-1-0.7-1.5-0.4
			c-0.5,0.3-0.7,1-0.4,1.5c0.6,1,1.2,2.1,1.8,3.1C65.2,304.4,65.6,304.6,66,304.6z"/>
		<path class="st1" d="M351.9,277.8c-0.6-0.2-1.2,0.1-1.4,0.7c-0.4,1.1-0.8,2.2-1.3,3.3c-0.2,0.6,0.1,1.2,0.6,1.4
			c0.1,0.1,0.3,0.1,0.4,0.1c0.4,0,0.9-0.3,1-0.7c0.4-1.1,0.9-2.2,1.3-3.4C352.7,278.6,352.4,278,351.9,277.8z"/>
		<path class="st1" d="M356.8,261.1c-0.6-0.1-1.2,0.2-1.4,0.8c-0.3,1.1-0.6,2.3-0.9,3.4c-0.2,0.6,0.2,1.2,0.8,1.4c0.1,0,0.2,0,0.3,0
			c0.5,0,0.9-0.3,1.1-0.8c0.3-1.2,0.6-2.3,0.9-3.5C357.8,261.8,357.4,261.2,356.8,261.1z"/>
		<path class="st1" d="M354.6,269.5c-0.6-0.2-1.2,0.2-1.4,0.7c-0.3,1.1-0.7,2.3-1.1,3.4c-0.2,0.6,0.1,1.2,0.7,1.4
			c0.1,0,0.2,0.1,0.4,0.1c0.5,0,0.9-0.3,1.1-0.8c0.4-1.1,0.7-2.3,1.1-3.4C355.5,270.3,355.2,269.7,354.6,269.5z"/>
		<path class="st1" d="M46.4,247.3c0.6-0.1,1-0.6,1-1.3c-0.2-1.2-0.3-2.3-0.4-3.5c-0.1-0.6-0.6-1.1-1.2-1c-0.6,0.1-1.1,0.6-1,1.2
			c0.1,1.2,0.3,2.4,0.5,3.6c0.1,0.6,0.6,1,1.1,1C46.3,247.3,46.3,247.3,46.4,247.3z"/>
		<path class="st1" d="M92.3,112.2c0.3,0,0.6-0.1,0.8-0.3c0.8-0.8,1.7-1.7,2.6-2.5c0.5-0.4,0.5-1.1,0.1-1.6
			c-0.4-0.5-1.1-0.5-1.6-0.1c-0.9,0.8-1.7,1.7-2.6,2.5c-0.4,0.4-0.4,1.1,0,1.6C91.7,112.1,92,112.2,92.3,112.2z"/>
		<path class="st1" d="M86.2,118.5c0.3,0,0.6-0.1,0.8-0.4c0.8-0.9,1.6-1.7,2.4-2.6c0.4-0.4,0.4-1.2,0-1.6c-0.4-0.4-1.2-0.4-1.6,0
			c-0.8,0.9-1.7,1.7-2.5,2.6c-0.4,0.5-0.4,1.2,0.1,1.6C85.7,118.4,86,118.5,86.2,118.5z"/>
		<path class="st1" d="M74.5,131.7c0.2,0.1,0.4,0.2,0.7,0.2c0.3,0,0.7-0.2,0.9-0.5c0.7-0.9,1.4-1.9,2.1-2.8c0.4-0.5,0.3-1.2-0.2-1.6
			c-0.5-0.4-1.2-0.3-1.6,0.2c-0.7,0.9-1.5,1.9-2.2,2.9C73.9,130.7,74,131.4,74.5,131.7z"/>
		<path class="st1" d="M80.5,125.1c0.3,0,0.6-0.1,0.9-0.4c0.7-0.9,1.5-1.8,2.3-2.7c0.4-0.5,0.3-1.2-0.1-1.6
			c-0.5-0.4-1.2-0.3-1.6,0.1c-0.8,0.9-1.6,1.8-2.3,2.8c-0.4,0.5-0.3,1.2,0.2,1.6C80,125,80.3,125.1,80.5,125.1z"/>
		<path class="st1" d="M98.7,106.3c0.3,0,0.5-0.1,0.7-0.3c0.9-0.8,1.8-1.6,2.7-2.3c0.5-0.4,0.5-1.1,0.1-1.6
			c-0.4-0.5-1.1-0.5-1.6-0.1c-0.9,0.8-1.8,1.6-2.7,2.3c-0.5,0.4-0.5,1.1-0.1,1.6C98.1,106.2,98.4,106.3,98.7,106.3z"/>
		<path class="st1" d="M105.4,100.7c0.2,0,0.5-0.1,0.7-0.2c0.9-0.7,1.9-1.5,2.8-2.2c0.5-0.4,0.6-1.1,0.2-1.6
			c-0.4-0.5-1.1-0.6-1.6-0.2c-1,0.7-1.9,1.5-2.9,2.2c-0.5,0.4-0.6,1.1-0.2,1.6C104.7,100.6,105.1,100.7,105.4,100.7z"/>
		<path class="st1" d="M127.2,86.4c0.2,0,0.4,0,0.5-0.1c1-0.6,2.1-1.1,3.1-1.7c0.5-0.3,0.8-1,0.5-1.5c-0.3-0.5-1-0.8-1.5-0.5
			c-1.1,0.5-2.1,1.1-3.2,1.7c-0.5,0.3-0.7,1-0.4,1.5C126.4,86.2,126.8,86.4,127.2,86.4z"/>
		<path class="st1" d="M119.7,90.8c0.2,0,0.4-0.1,0.6-0.2c1-0.6,2-1.2,3-1.8c0.5-0.3,0.7-1,0.4-1.5c-0.3-0.5-1-0.7-1.5-0.4
			c-1,0.6-2.1,1.2-3.1,1.9c-0.5,0.3-0.7,1-0.4,1.5C118.9,90.6,119.3,90.8,119.7,90.8z"/>
		<path class="st1" d="M46,203.9c0.1,0,0.1,0,0.2,0c0.6,0,1-0.4,1.1-1c0.2-1.2,0.3-2.4,0.5-3.5c0.1-0.6-0.3-1.2-0.9-1.3
			c-0.6-0.1-1.2,0.3-1.3,0.9c-0.2,1.2-0.4,2.4-0.5,3.6C45,203.2,45.4,203.8,46,203.9z"/>
		<path class="st1" d="M112.4,95.5c0.2,0,0.4-0.1,0.6-0.2c1-0.7,2-1.3,2.9-2c0.5-0.3,0.7-1,0.3-1.5c-0.3-0.5-1-0.7-1.5-0.3
			c-1,0.7-2,1.3-3,2c-0.5,0.4-0.6,1-0.3,1.6C111.7,95.4,112,95.5,112.4,95.5z"/>
		<path class="st1" d="M54.2,170.1c0.1,0,0.3,0.1,0.4,0.1c0.5,0,0.9-0.3,1-0.7c0.4-1.1,0.8-2.2,1.3-3.3c0.2-0.6-0.1-1.2-0.6-1.5
			c-0.6-0.2-1.2,0.1-1.5,0.6c-0.4,1.1-0.9,2.2-1.3,3.4C53.3,169.2,53.6,169.9,54.2,170.1z"/>
		<path class="st1" d="M51.5,178.4c0.1,0,0.2,0.1,0.3,0.1c0.5,0,0.9-0.3,1.1-0.8c0.3-1.1,0.7-2.3,1.1-3.4c0.2-0.6-0.1-1.2-0.7-1.4
			c-0.6-0.2-1.2,0.1-1.4,0.7c-0.4,1.1-0.8,2.3-1.1,3.4C50.5,177.6,50.9,178.2,51.5,178.4z"/>
		<path class="st1" d="M49.2,186.8c0.1,0,0.2,0,0.3,0c0.5,0,1-0.3,1.1-0.8c0.3-1.1,0.6-2.3,0.9-3.4c0.2-0.6-0.2-1.2-0.8-1.4
			c-0.6-0.2-1.2,0.2-1.4,0.8c-0.3,1.2-0.6,2.3-0.9,3.5C48.2,186,48.6,186.6,49.2,186.8z"/>
		<path class="st1" d="M47.3,195.3c0.1,0,0.1,0,0.2,0c0.5,0,1-0.4,1.1-0.9c0.2-1.2,0.5-2.3,0.7-3.5c0.1-0.6-0.3-1.2-0.9-1.3
			c-0.6-0.1-1.2,0.3-1.3,0.9c-0.3,1.2-0.5,2.4-0.7,3.5C46.3,194.6,46.7,195.2,47.3,195.3z"/>
		<path class="st1" d="M61.1,154.1c0.2,0.1,0.3,0.1,0.5,0.1c0.4,0,0.8-0.2,1-0.6c0.5-1.1,1.1-2.1,1.6-3.2c0.3-0.5,0.1-1.2-0.5-1.5
			c-0.5-0.3-1.2-0.1-1.5,0.5c-0.6,1.1-1.1,2.1-1.7,3.2C60.3,153.1,60.5,153.8,61.1,154.1z"/>
		<path class="st1" d="M57.4,162c0.1,0.1,0.3,0.1,0.4,0.1c0.4,0,0.8-0.3,1-0.7c0.5-1.1,1-2.2,1.5-3.2c0.3-0.6,0-1.2-0.5-1.5
			c-0.6-0.3-1.2,0-1.5,0.5c-0.5,1.1-1,2.2-1.5,3.3C56.6,161.1,56.9,161.8,57.4,162z"/>
		<path class="st1" d="M67.7,308.5c0.1,0.2,0.2,0.4,0.4,0.6h2.6c-0.4-0.6-0.8-1.2-1.1-1.8c-0.3-0.5-1-0.7-1.5-0.4
			C67.5,307.3,67.4,308,67.7,308.5z"/>
		<path class="st1" d="M65.1,146.4c0.2,0.1,0.4,0.1,0.6,0.1c0.4,0,0.8-0.2,1-0.6c0.6-1,1.2-2.1,1.8-3.1c0.3-0.5,0.2-1.2-0.4-1.5
			c-0.5-0.3-1.2-0.2-1.5,0.4c-0.6,1-1.2,2.1-1.8,3.1C64.4,145.4,64.6,146.1,65.1,146.4z"/>
		<path class="st1" d="M69.6,138.9c0.2,0.1,0.4,0.2,0.6,0.2c0.4,0,0.7-0.2,0.9-0.5c0.6-1,1.3-2,2-3c0.3-0.5,0.2-1.2-0.3-1.6
			c-0.5-0.3-1.2-0.2-1.6,0.3c-0.7,1-1.3,2-2,3C69,137.9,69.1,138.6,69.6,138.9z"/>
	</g>
</g>
<g>
	<g>
		<polygon class="st11" points="344.1,278.4 318,290.7 344.1,307.1 370.3,290.7 		"/>
		<g>
			<path class="st12" d="M359,317.8h-29.7c-1.6,0-2.9-1.3-2.9-2.9v-39.7c0-1.6,1.3-2.9,2.9-2.9H359c1.6,0,2.9,1.3,2.9,2.9v39.7
				C361.9,316.5,360.6,317.8,359,317.8z"/>
			<g>
				<path class="st6" d="M358.1,278.9h-27.6c-0.4,0-0.7-0.3-0.7-0.7v-0.1c0-0.4,0.3-0.7,0.7-0.7h27.6c0.4,0,0.7,0.3,0.7,0.7v0.1
					C358.8,278.6,358.5,278.9,358.1,278.9z"/>
				<path class="st6" d="M358.1,282.7h-27.6c-0.4,0-0.7-0.3-0.7-0.7v-0.1c0-0.4,0.3-0.7,0.7-0.7h27.6c0.4,0,0.7,0.3,0.7,0.7v0.1
					C358.8,282.4,358.5,282.7,358.1,282.7z"/>
				<path class="st6" d="M358.1,286.4h-27.6c-0.4,0-0.7-0.3-0.7-0.7v-0.1c0-0.4,0.3-0.7,0.7-0.7h27.6c0.4,0,0.7,0.3,0.7,0.7v0.1
					C358.8,286.1,358.5,286.4,358.1,286.4z"/>
				<path class="st6" d="M358.1,290.2h-27.6c-0.4,0-0.7-0.3-0.7-0.7v-0.1c0-0.4,0.3-0.7,0.7-0.7h27.6c0.4,0,0.7,0.3,0.7,0.7v0.1
					C358.8,289.9,358.5,290.2,358.1,290.2z"/>
				<path class="st6" d="M358.1,294h-27.6c-0.4,0-0.7-0.3-0.7-0.7v-0.1c0-0.4,0.3-0.7,0.7-0.7h27.6c0.4,0,0.7,0.3,0.7,0.7v0.1
					C358.8,293.6,358.5,294,358.1,294z"/>
				<path class="st6" d="M358.1,297.7h-27.6c-0.4,0-0.7-0.3-0.7-0.7v-0.1c0-0.4,0.3-0.7,0.7-0.7h27.6c0.4,0,0.7,0.3,0.7,0.7v0.1
					C358.8,297.4,358.5,297.7,358.1,297.7z"/>
				<path class="st6" d="M358.1,301.5h-27.6c-0.4,0-0.7-0.3-0.7-0.7v-0.1c0-0.4,0.3-0.7,0.7-0.7h27.6c0.4,0,0.7,0.3,0.7,0.7v0.1
					C358.8,301.1,358.5,301.5,358.1,301.5z"/>
				<path class="st6" d="M358.1,305.2h-27.6c-0.4,0-0.7-0.3-0.7-0.7v-0.1c0-0.4,0.3-0.7,0.7-0.7h27.6c0.4,0,0.7,0.3,0.7,0.7v0.1
					C358.8,304.9,358.5,305.2,358.1,305.2z"/>
				<path class="st6" d="M358.1,309h-27.6c-0.4,0-0.7-0.3-0.7-0.7v-0.1c0-0.4,0.3-0.7,0.7-0.7h27.6c0.4,0,0.7,0.3,0.7,0.7v0.1
					C358.8,308.6,358.5,309,358.1,309z"/>
				<path class="st6" d="M358.1,312.7h-27.6c-0.4,0-0.7-0.3-0.7-0.7v-0.1c0-0.4,0.3-0.7,0.7-0.7h27.6c0.4,0,0.7,0.3,0.7,0.7v0.1
					C358.8,312.4,358.5,312.7,358.1,312.7z"/>
			</g>
		</g>
		<polygon class="st13" points="344.1,307.1 318,290.7 318,325.1 370.3,325.1 370.3,290.7 		"/>
		<polygon class="st9" points="318,325.1 344.1,307.1 370.3,325.1 		"/>
	</g>
	<g>
		<g>
			<path class="st6" d="M130.5,111.3c0,5.5-4.5,10-10,10c0,0-0.1,0-0.1,0c0,0,0,0-0.1,0c0,0-0.1,0-0.1,0H74c0,0-0.1,0-0.1,0
				c0,0-0.1,0-0.1,0c-6.8,0-12.3-5.5-12.3-12.3c0-1,0.1-2,0.4-3c1.3-5.3,6.2-9.3,11.9-9.3c2.2,0,4.3,0.6,6.2,1.7c0,0,0,0,0,0
				c0.1,0.1,0.3,0.2,0.4,0.2c0.9-7.7,7.5-13.7,15.4-13.7c7.4,0,13.6,5.2,15.2,12.1c2.9,0.6,5.5,2.3,7.2,4.7c0.8-0.2,1.6-0.3,2.4-0.3
				c4.9,0,8.9,3.5,9.8,8.1C130.4,110.1,130.5,110.7,130.5,111.3z"/>
			<path class="st14" d="M130.3,109.5c-1.2,4.1-5,7.1-9.5,7.1c0,0-0.1,0-0.1,0c0,0,0,0-0.1,0c0,0-0.1,0-0.1,0H74.3c0,0-0.1,0-0.1,0
				c0,0-0.1,0-0.1,0c-6.2,0-11.3-4.6-12.1-10.6c1.3-5.3,6.2-9.3,11.9-9.3c2.2,0,4.3,0.6,6.2,1.7c0,0,0,0,0,0
				c0.1,0.1,0.3,0.2,0.4,0.2c0.9-7.7,7.5-13.7,15.4-13.7c7.4,0,13.6,5.2,15.2,12.1c2.9,0.6,5.5,2.3,7.2,4.7c0.8-0.2,1.6-0.3,2.4-0.3
				C125.4,101.4,129.5,104.9,130.3,109.5z"/>
			<g>
				<rect x="92.2" y="101" class="st13" width="4.9" height="6.7"/>
				<g>
					<g>
						<path class="st10" d="M91.4,98.4c0.1-1.8,1.6-3.3,3.4-3.3s3.3,1.5,3.4,3.3h2c-0.1-2.9-2.4-5.3-5.4-5.3c-2.9,0-5.3,2.3-5.4,5.3
							H91.4z"/>
					</g>
					<path class="st9" d="M101.1,98.1H88.5c-0.8,0-1.5,0.6-1.5,1.5v9.6c0,0.8,0.6,1.5,1.5,1.5h12.6c0.8,0,1.4-0.6,1.4-1.5v-9.6
						C102.5,98.7,101.9,98.1,101.1,98.1z M95.9,107h-2.3l0.3-2.2c-0.4-0.3-0.7-0.7-0.7-1.2c0-0.8,0.7-1.5,1.5-1.5
						c0.8,0,1.5,0.7,1.5,1.5c0,0.5-0.3,1-0.7,1.2L95.9,107z"/>
				</g>
			</g>
		</g>
	</g>
	<g>
		<g>
			<g>
				<path class="st13" d="M229.1,47.1v17.1h-41.4V44.9c0-0.2,0-0.4,0.1-0.6c0.3-1.1,1.3-2,2.5-2h16.4c1.5,0,2.7,1.2,2.7,2.7v0.5
					l17.9,0.1C228.4,45.6,229.1,46.1,229.1,47.1z"/>
				<g>
					<path class="st15" d="M228,49.6V71c0,1.1-0.9,2-2,2h-35.3c-1.1,0-2-0.9-2-2V49.6c0-1.1,0.9-2,2-2H226
						C227.1,47.5,228,48.4,228,49.6z"/>
					<g>
						<path class="st6" d="M192.8,69.5L192.8,69.5c-0.4,0-0.7-0.3-0.7-0.7V50.9c0-0.4,0.3-0.7,0.7-0.7l0,0c0.4,0,0.7,0.3,0.7,0.7
							v17.9C193.5,69.2,193.2,69.5,192.8,69.5z"/>
						<path class="st6" d="M196.3,69.5L196.3,69.5c-0.4,0-0.7-0.3-0.7-0.7V50.9c0-0.4,0.3-0.7,0.7-0.7l0,0c0.4,0,0.7,0.3,0.7,0.7
							v17.9C197,69.2,196.6,69.5,196.3,69.5z"/>
						<path class="st6" d="M199.7,69.5L199.7,69.5c-0.4,0-0.7-0.3-0.7-0.7V50.9c0-0.4,0.3-0.7,0.7-0.7l0,0c0.4,0,0.7,0.3,0.7,0.7
							v17.9C200.4,69.2,200.1,69.5,199.7,69.5z"/>
						<path class="st6" d="M203.2,69.5L203.2,69.5c-0.4,0-0.7-0.3-0.7-0.7V50.9c0-0.4,0.3-0.7,0.7-0.7l0,0c0.4,0,0.7,0.3,0.7,0.7
							v17.9C203.9,69.2,203.6,69.5,203.2,69.5z"/>
						<path class="st6" d="M206.6,69.5L206.6,69.5c-0.4,0-0.7-0.3-0.7-0.7V50.9c0-0.4,0.3-0.7,0.7-0.7l0,0c0.4,0,0.7,0.3,0.7,0.7
							v17.9C207.4,69.2,207,69.5,206.6,69.5z"/>
						<path class="st6" d="M210.1,69.5L210.1,69.5c-0.4,0-0.7-0.3-0.7-0.7V50.9c0-0.4,0.3-0.7,0.7-0.7l0,0c0.4,0,0.7,0.3,0.7,0.7
							v17.9C210.8,69.2,210.5,69.5,210.1,69.5z"/>
						<path class="st6" d="M213.6,69.5L213.6,69.5c-0.4,0-0.7-0.3-0.7-0.7V50.9c0-0.4,0.3-0.7,0.7-0.7l0,0c0.4,0,0.7,0.3,0.7,0.7
							v17.9C214.3,69.2,214,69.5,213.6,69.5z"/>
						<path class="st6" d="M217,69.5L217,69.5c-0.4,0-0.7-0.3-0.7-0.7V50.9c0-0.4,0.3-0.7,0.7-0.7l0,0c0.4,0,0.7,0.3,0.7,0.7v17.9
							C217.8,69.2,217.4,69.5,217,69.5z"/>
						<path class="st6" d="M220.5,69.5L220.5,69.5c-0.4,0-0.7-0.3-0.7-0.7V50.9c0-0.4,0.3-0.7,0.7-0.7l0,0c0.4,0,0.7,0.3,0.7,0.7
							v17.9C221.2,69.2,220.9,69.5,220.5,69.5z"/>
						<path class="st6" d="M223.9,69.5L223.9,69.5c-0.4,0-0.7-0.3-0.7-0.7V50.9c0-0.4,0.3-0.7,0.7-0.7l0,0c0.4,0,0.7,0.3,0.7,0.7
							v17.9C224.7,69.2,224.3,69.5,223.9,69.5z"/>
					</g>
					<path class="st4" d="M228,52.2V71c0,1.1-0.9,2-2,2h-35.3c-1.1,0-2-0.9-2-2V52.2H228z"/>
				</g>
				<path class="st9" d="M229.6,55v26.6c0,0.3-0.3,0.6-0.6,0.6h-41.2c-0.3,0-0.6-0.3-0.6-0.6V55c0-0.3,0.2-0.6,0.5-0.6
					c0,0,0.1,0,0.1,0H229c0,0,0.1,0,0.1,0C229.4,54.5,229.6,54.7,229.6,55z"/>
			</g>
			<path class="st4" d="M223.6,57v25.2h-35.8c-0.3,0-0.6-0.3-0.6-0.6V55c0-0.3,0.2-0.6,0.5-0.6v-9.5c0-0.2,0-0.4,0.1-0.6h12.9
				c1.5,0,2.7,1.2,2.7,2.7v0.5l17.9,0.1c1,0,1.8,0.5,1.8,1.6v7.3C223.4,56.5,223.6,56.7,223.6,57z"/>
			<g>
				<path class="st13" d="M219.8,51.6v17.1h-41.4V49.4c0-1.4,1.2-2.6,2.6-2.6h16.4c1.5,0,2.7,1.2,2.7,2.7v0.5l17.9,0.1
					C219.1,50,219.8,50.5,219.8,51.6z"/>
				<g>
					<path class="st15" d="M218.7,54v21.4c0,1.1-0.9,2-2,2h-35.3c-1.1,0-2-0.9-2-2V54c0-1.1,0.9-2,2-2h35.3
						C217.8,52,218.7,52.9,218.7,54z"/>
					<g>
						<path class="st6" d="M183.5,73.9L183.5,73.9c-0.4,0-0.7-0.3-0.7-0.7V55.3c0-0.4,0.3-0.7,0.7-0.7l0,0c0.4,0,0.7,0.3,0.7,0.7
							v17.9C184.2,73.6,183.9,73.9,183.5,73.9z"/>
						<path class="st6" d="M186.9,73.9L186.9,73.9c-0.4,0-0.7-0.3-0.7-0.7V55.3c0-0.4,0.3-0.7,0.7-0.7l0,0c0.4,0,0.7,0.3,0.7,0.7
							v17.9C187.7,73.6,187.3,73.9,186.9,73.9z"/>
						<path class="st6" d="M190.4,73.9L190.4,73.9c-0.4,0-0.7-0.3-0.7-0.7V55.3c0-0.4,0.3-0.7,0.7-0.7l0,0c0.4,0,0.7,0.3,0.7,0.7
							v17.9C191.1,73.6,190.8,73.9,190.4,73.9z"/>
						<path class="st6" d="M193.9,73.9L193.9,73.9c-0.4,0-0.7-0.3-0.7-0.7V55.3c0-0.4,0.3-0.7,0.7-0.7l0,0c0.4,0,0.7,0.3,0.7,0.7
							v17.9C194.6,73.6,194.3,73.9,193.9,73.9z"/>
						<path class="st6" d="M197.3,73.9L197.3,73.9c-0.4,0-0.7-0.3-0.7-0.7V55.3c0-0.4,0.3-0.7,0.7-0.7l0,0c0.4,0,0.7,0.3,0.7,0.7
							v17.9C198.1,73.6,197.7,73.9,197.3,73.9z"/>
						<path class="st6" d="M200.8,73.9L200.8,73.9c-0.4,0-0.7-0.3-0.7-0.7V55.3c0-0.4,0.3-0.7,0.7-0.7l0,0c0.4,0,0.7,0.3,0.7,0.7
							v17.9C201.5,73.6,201.2,73.9,200.8,73.9z"/>
						<path class="st6" d="M204.3,73.9L204.3,73.9c-0.4,0-0.7-0.3-0.7-0.7V55.3c0-0.4,0.3-0.7,0.7-0.7l0,0c0.4,0,0.7,0.3,0.7,0.7
							v17.9C205,73.6,204.7,73.9,204.3,73.9z"/>
						<path class="st6" d="M207.7,73.9L207.7,73.9c-0.4,0-0.7-0.3-0.7-0.7V55.3c0-0.4,0.3-0.7,0.7-0.7l0,0c0.4,0,0.7,0.3,0.7,0.7
							v17.9C208.4,73.6,208.1,73.9,207.7,73.9z"/>
						<path class="st6" d="M211.2,73.9L211.2,73.9c-0.4,0-0.7-0.3-0.7-0.7V55.3c0-0.4,0.3-0.7,0.7-0.7l0,0c0.4,0,0.7,0.3,0.7,0.7
							v17.9C211.9,73.6,211.6,73.9,211.2,73.9z"/>
						<path class="st6" d="M214.6,73.9L214.6,73.9c-0.4,0-0.7-0.3-0.7-0.7V55.3c0-0.4,0.3-0.7,0.7-0.7l0,0c0.4,0,0.7,0.3,0.7,0.7
							v17.9C215.4,73.6,215,73.9,214.6,73.9z"/>
					</g>
					<path class="st4" d="M218.7,56.6v18.8c0,1.1-0.9,2-2,2h-35.3c-1.1,0-2-0.9-2-2V56.6H218.7z"/>
				</g>
				<path class="st9" d="M217.5,86.6h-36.6c-1.6,0-2.9-1.3-2.9-2.9V61.7c0-1.6,1.3-2.9,2.9-2.9h36.6c1.6,0,2.9,1.3,2.9,2.9v22.1
					C220.3,85.4,219.1,86.6,217.5,86.6z"/>
			</g>
		</g>
	</g>
	<g>
		<g>
			<g>
				<g>
					<path class="st15" d="M374.2,208.9h-24.5c-1.3,0-2.3-1-2.3-2.3v-40.3c0-1.3,1-2.3,2.3-2.3h24.5c1.3,0,2.3,1,2.3,2.3v40.3
						C376.5,207.9,375.5,208.9,374.2,208.9z"/>
					<g>
						<path class="st6" d="M351.5,168.7L351.5,168.7c0-0.5,0.3-0.8,0.8-0.8h20.5c0.4,0,0.8,0.4,0.8,0.8l0,0c0,0.5-0.3,0.8-0.8,0.8
							h-20.5C351.8,169.5,351.5,169.2,351.5,168.7z"/>
						<path class="st6" d="M351.5,172.7L351.5,172.7c0-0.5,0.3-0.8,0.8-0.8h20.5c0.4,0,0.8,0.4,0.8,0.8l0,0c0,0.5-0.3,0.8-0.8,0.8
							h-20.5C351.8,173.5,351.5,173.1,351.5,172.7z"/>
						<path class="st6" d="M351.5,176.6L351.5,176.6c0-0.5,0.3-0.8,0.8-0.8h20.5c0.4,0,0.8,0.4,0.8,0.8l0,0c0,0.5-0.3,0.8-0.8,0.8
							h-20.5C351.8,177.4,351.5,177.1,351.5,176.6z"/>
						<path class="st6" d="M351.5,180.6L351.5,180.6c0-0.5,0.3-0.8,0.8-0.8h20.5c0.4,0,0.8,0.4,0.8,0.8l0,0c0,0.5-0.3,0.8-0.8,0.8
							h-20.5C351.8,181.4,351.5,181,351.5,180.6z"/>
						<path class="st6" d="M351.5,184.5L351.5,184.5c0-0.5,0.3-0.8,0.8-0.8h20.5c0.4,0,0.8,0.4,0.8,0.8l0,0c0,0.5-0.3,0.8-0.8,0.8
							h-20.5C351.8,185.4,351.5,185,351.5,184.5z"/>
						<path class="st6" d="M351.5,188.5L351.5,188.5c0-0.5,0.3-0.8,0.8-0.8h20.5c0.4,0,0.8,0.4,0.8,0.8l0,0c0,0.5-0.3,0.8-0.8,0.8
							h-20.5C351.8,189.3,351.5,188.9,351.5,188.5z"/>
						<path class="st6" d="M351.5,192.5L351.5,192.5c0-0.5,0.3-0.8,0.8-0.8h20.5c0.4,0,0.8,0.4,0.8,0.8l0,0c0,0.5-0.3,0.8-0.8,0.8
							h-20.5C351.8,193.3,351.5,192.9,351.5,192.5z"/>
						<path class="st6" d="M351.5,196.4L351.5,196.4c0-0.5,0.3-0.8,0.8-0.8h20.5c0.4,0,0.8,0.4,0.8,0.8l0,0c0,0.5-0.3,0.8-0.8,0.8
							h-20.5C351.8,197.2,351.5,196.9,351.5,196.4z"/>
						<path class="st6" d="M351.5,200.4L351.5,200.4c0-0.5,0.3-0.8,0.8-0.8h20.5c0.4,0,0.8,0.4,0.8,0.8l0,0c0,0.5-0.3,0.8-0.8,0.8
							h-20.5C351.8,201.2,351.5,200.8,351.5,200.4z"/>
						<path class="st6" d="M351.5,204.3L351.5,204.3c0-0.5,0.3-0.8,0.8-0.8h20.5c0.4,0,0.8,0.4,0.8,0.8l0,0c0,0.5-0.3,0.8-0.8,0.8
							h-20.5C351.8,205.2,351.5,204.8,351.5,204.3z"/>
					</g>
					<path class="st4" d="M371.2,208.9h-21.6c-1.3,0-2.3-1-2.3-2.3v-40.3c0-1.3,1-2.3,2.3-2.3h21.6V208.9z"/>
				</g>
				<g>
					<path class="st12" d="M368,163.6v40.3c0,1.3-1,2.3-2.3,2.3h-24.5c-1.3,0-2.3-1-2.3-2.3v-40.3c0-1.3,1-2.3,2.3-2.3h24.5
						C366.9,161.3,368,162.3,368,163.6z"/>
					<g>
						<path class="st6" d="M364.1,165.1h-4.6c-0.5,0-0.8,0.4-0.8,0.8l0,0c0,0.5,0.4,0.8,0.8,0.8h4.6c0.4,0,0.8-0.4,0.8-0.8
							S364.5,165.1,364.1,165.1z"/>
						<path class="st6" d="M364.1,169h-4.6c-0.5,0-0.8,0.4-0.8,0.8l0,0c0,0.5,0.4,0.8,0.8,0.8h4.6c0.4,0,0.8-0.4,0.8-0.8
							S364.5,169,364.1,169z"/>
						<path class="st6" d="M364.1,173h-4.6c-0.5,0-0.8,0.4-0.8,0.8l0,0c0,0.5,0.4,0.8,0.8,0.8h4.6c0.4,0,0.8-0.4,0.8-0.8
							C364.9,173.4,364.5,173,364.1,173z"/>
						<path class="st6" d="M364.1,177h-4.6c-0.5,0-0.8,0.4-0.8,0.8l0,0c0,0.5,0.4,0.8,0.8,0.8h4.6c0.4,0,0.8-0.4,0.8-0.8
							C364.9,177.3,364.5,177,364.1,177z"/>
						<path class="st6" d="M342.9,181.7L342.9,181.7c0-0.5,0.3-0.8,0.8-0.8h20.5c0.4,0,0.8,0.4,0.8,0.8v0c0,0.5-0.3,0.8-0.8,0.8
							h-20.5C343.2,182.6,342.9,182.2,342.9,181.7z"/>
						<path class="st6" d="M342.9,185.7L342.9,185.7c0-0.5,0.3-0.8,0.8-0.8h20.5c0.4,0,0.8,0.4,0.8,0.8l0,0c0,0.5-0.3,0.8-0.8,0.8
							h-20.5C343.2,186.5,342.9,186.2,342.9,185.7z"/>
						<path class="st6" d="M342.9,189.7L342.9,189.7c0-0.5,0.3-0.8,0.8-0.8h20.5c0.4,0,0.8,0.4,0.8,0.8l0,0c0,0.5-0.3,0.8-0.8,0.8
							h-20.5C343.2,190.5,342.9,190.1,342.9,189.7z"/>
						<path class="st6" d="M342.9,193.6L342.9,193.6c0-0.5,0.3-0.8,0.8-0.8h20.5c0.4,0,0.8,0.4,0.8,0.8l0,0c0,0.5-0.3,0.8-0.8,0.8
							h-20.5C343.2,194.5,342.9,194.1,342.9,193.6z"/>
						<path class="st6" d="M342.9,197.6L342.9,197.6c0-0.5,0.3-0.8,0.8-0.8h20.5c0.4,0,0.8,0.4,0.8,0.8l0,0c0,0.5-0.3,0.8-0.8,0.8
							h-20.5C343.2,198.4,342.9,198,342.9,197.6z"/>
						<path class="st6" d="M342.9,201.5L342.9,201.5c0-0.5,0.3-0.8,0.8-0.8h20.5c0.4,0,0.8,0.4,0.8,0.8l0,0c0,0.5-0.3,0.8-0.8,0.8
							h-20.5C343.2,202.4,342.9,202,342.9,201.5z"/>
					</g>
				</g>
			</g>
			<g>
				<g>
					<path class="st3" d="M353.9,172.1v4.3h-9.2v-9.2h5.6c0.5,0,0.9-0.4,0.9-0.9l0,0c0-0.5-0.4-0.9-0.9-0.9h-6
						c-0.8,0-1.5,0.7-1.5,1.5v10c0,0.8,0.7,1.5,1.5,1.5h10c0.8,0,1.5-0.7,1.5-1.5v-4.7c0-0.5-0.4-0.9-0.9-0.9l0,0
						C354.4,171.1,353.9,171.6,353.9,172.1z"/>
				</g>
				<g>
					<path class="st3" d="M349,174.1C349,174.1,348.9,174.1,349,174.1c-0.4,0-0.7-0.2-0.8-0.5l-1.8-2.7c-0.3-0.5-0.2-1.1,0.3-1.4
						c0.5-0.3,1.1-0.2,1.4,0.3l1.1,1.6l6.5-7.1c0.4-0.4,1-0.4,1.4-0.1c0.4,0.4,0.4,1,0.1,1.4l-7.4,8
						C349.5,174,349.3,174.1,349,174.1z"/>
				</g>
			</g>
		</g>
	</g>
	<g>
		<g>
			
				<rect x="291.8" y="106.6" transform="matrix(0.7071 0.7071 -0.7071 0.7071 171.8544 -172.7639)" class="st7" width="5.3" height="28.9"/>
			
				<rect x="300.2" y="110" transform="matrix(0.7071 -0.7071 0.7071 0.7071 9.0241 247.1575)" class="st9" width="5.2" height="5.3"/>
			
				<rect x="284" y="127.9" transform="matrix(0.7071 -0.7071 0.7071 0.7071 -8.8645 239.7478)" class="st9" width="2" height="5.3"/>
			
				<rect x="284.1" y="128.3" transform="matrix(0.7072 -0.7071 0.7071 0.7072 -9.2317 239.5796)" class="st13" width="1" height="5.3"/>
			<path class="st13" d="M306.6,112.7l-1.4,1.4c-0.7-0.5-1.4-1.1-2-1.7c-0.6-0.6-1.2-1.3-1.7-2l1.4-1.4L306.6,112.7z"/>
			<circle class="st7" cx="314.4" cy="101.1" r="14.5"/>
			<path class="st6" d="M325.2,101.5c0,0.2,0,0.5-0.1,0.7c0,0.1,0,0.1,0,0.2c-0.1,0.7-0.3,1.5-0.5,2.2c-0.2,0.6-0.4,1.1-0.7,1.7
				c-0.1,0.1-0.1,0.2-0.2,0.3c-0.4,0.7-0.8,1.3-1.4,1.9c-0.1,0.1-0.2,0.2-0.3,0.3c-0.3,0.3-0.5,0.5-0.8,0.7
				c-0.2,0.2-0.4,0.3-0.6,0.5c0,0-0.1,0.1-0.1,0.1c-0.7,0.4-1.4,0.8-2.1,1.1c-0.4,0.1-0.8,0.3-1.1,0.4c-0.6,0.2-1.1,0.3-1.7,0.3
				c-2.8,0.3-5.6-0.5-7.9-2.4c-0.3-0.2-0.5-0.5-0.8-0.7c-0.1-0.1-0.2-0.2-0.3-0.3c-0.6-0.7-1.1-1.4-1.6-2.2c0,0,0,0,0,0
				c-0.3-0.5-0.5-1.1-0.7-1.7c-0.2-0.6-0.4-1.3-0.5-2c0-0.1,0-0.2,0-0.2c0-0.1,0-0.3,0-0.4c0-0.2,0-0.3,0-0.5v0c0-0.6,0-1.2,0.1-1.8
				c0.1-0.5,0.1-0.9,0.3-1.3c0,0,0-0.1,0-0.1c0.1-0.2,0.1-0.4,0.2-0.6c0.2-0.6,0.5-1.2,0.8-1.8c0.5-0.8,1-1.6,1.7-2.3
				c0,0,0,0,0.1-0.1c0.1-0.1,0.2-0.2,0.4-0.4c1.1-0.9,2.2-1.6,3.5-2.1c3.6-1.3,7.8-0.6,10.9,2.1c0.1,0.1,0.3,0.3,0.4,0.4
				c0.7,0.7,1.3,1.5,1.7,2.3c0.1,0.1,0.1,0.2,0.2,0.4c0.4,0.7,0.6,1.4,0.8,2.2c0.1,0.4,0.2,0.9,0.3,1.3
				C325.2,100.3,325.2,100.9,325.2,101.5z"/>
			<path class="st5" d="M325.1,102.4c-0.1,0.7-0.3,1.5-0.5,2.2c-0.2,0.6-0.4,1.1-0.7,1.7c-0.1,0.1-0.1,0.2-0.2,0.3
				c-0.4,0.7-0.8,1.3-1.4,1.9c-0.1,0.1-0.2,0.2-0.3,0.3c-0.3,0.3-0.5,0.5-0.8,0.7c-0.2,0.2-0.4,0.3-0.6,0.5c0,0-0.1,0.1-0.1,0.1
				c-0.7,0.4-1.4,0.8-2.1,1.1c-0.4,0.1-0.8,0.3-1.1,0.4c-0.6,0.2-1.1,0.3-1.7,0.3c-2.8,0.3-5.6-0.5-7.9-2.4
				c-0.3-0.2-0.5-0.5-0.8-0.7c-0.1-0.1-0.2-0.2-0.3-0.3c-0.6-0.7-1.1-1.4-1.6-2.2c0,0,0,0,0,0c-0.3-0.5-0.5-1.1-0.7-1.7
				c-0.2-0.6-0.4-1.3-0.5-2c0-0.1,0-0.2,0-0.2c0-0.1,0-0.1,0-0.2c0.1-0.5,0.1-0.9,0.3-1.3c0,0,0-0.1,0-0.1c0.1-0.2,0.1-0.4,0.2-0.6
				c0.2-0.6,0.5-1.2,0.8-1.8c0.5-0.8,1-1.6,1.7-2.3c0,0,0,0,0.1-0.1c0.1-0.1,0.2-0.2,0.4-0.4c1.1-0.9,2.2-1.6,3.5-2.1
				c3.6-1.3,7.8-0.6,10.9,2.1c0.1,0.1,0.3,0.3,0.4,0.4c0.7,0.7,1.3,1.5,1.7,2.3c0.1,0.1,0.1,0.2,0.2,0.4c0.4,0.7,0.6,1.4,0.8,2.2
				c0.1,0.4,0.2,0.9,0.3,1.3C325.1,102.3,325.1,102.4,325.1,102.4z"/>
		</g>
	</g>
	<g>
		<g>
			<g>
				<g>
					<path class="st9" d="M66.5,176.2c-0.1-2.4-2-4.2-4.4-4.2l-4.1,0.1l-0.9,0l-2.1,0l-3.4,0.1l-1.3,0l-0.4,0
						c-1.3,0-2.4,0.6-3.2,1.6c-0.5,0.6-0.8,1.4-0.9,2.2c0,0.2,0,0.4,0,0.7l0,0.6l0,0.6l0.2,7l0,1.8l0,2.2v0c0.1,2.4,2,4.2,4.4,4.2
						l12.3-0.3c2.4-0.1,4.2-2,4.2-4.4L66.5,176.2z M57.1,183.8l-1.5,0c-0.5,0-0.9-0.1-1.3-0.2c-1-0.4-1.8-1.4-2-2.5
						c0-0.2-0.1-0.4-0.1-0.5l0-0.1l0-1.4c0-0.6,0.1-1.2,0.4-1.7c0.6-1,1.6-1.7,2.8-1.7l0.2,0l1.3,0c0.7,0,1.3,0.2,1.8,0.5
						c0.9,0.6,1.5,1.6,1.6,2.8l0,1.5C60.5,182.2,59,183.8,57.1,183.8z"/>
					<path class="st9" d="M61.7,191.1l0.7,30c-4.7,0.1-8.7-3.6-8.8-8.4l-0.1-2.6l-1.7,0l0-2.1l1.7,0l0-1.5l-1.7,0l0-2.1l1.7,0l0-1.1
						l-1.7,0l0-2.1l1.7,0l-0.2-9.7L61.7,191.1z"/>
					<path class="st13" d="M60,215.5L60,215.5c-0.5,0-0.8-0.3-0.8-0.8l-0.4-19.8c0-0.4,0.3-0.8,0.8-0.8l0.1,0c0.4,0,0.8,0.3,0.8,0.8
						l0.4,19.8C60.8,215.1,60.5,215.5,60,215.5z"/>
					<path class="st13" d="M56.3,213.5L56.3,213.5c-0.5,0-0.8-0.3-0.8-0.8L55.1,195c0-0.4,0.3-0.8,0.8-0.8l0.1,0
						c0.4,0,0.8,0.3,0.8,0.8l0.4,17.7C57.1,213.2,56.7,213.5,56.3,213.5z"/>
				</g>
				<path class="st16" d="M55,172.2l-3.4,0.1l-1.3,0c-0.1,0.3-0.2,0.6-0.4,0.9l-0.8,1.3c-0.2,0.4-0.5,0.7-0.8,0.9
					c-0.7,0.5-1.7,0.8-2.6,0.6c0,0.2,0,0.4,0,0.7l0,0.6l0,0.6l0.2,7l0,1.8c1.6,0.2,3.2-0.5,4.1-2l2.3-3.7c0-0.2-0.1-0.4-0.1-0.5
					l0-0.1l0-1.4c0-0.6,0.1-1.2,0.4-1.7c0.6-1,1.6-1.7,2.8-1.7l0.2,0l0.8-1.3c0.4-0.7,0.6-1.4,0.6-2.2L55,172.2z"/>
				<g>
					<path class="st9" d="M53.4,166.8l-10.4-6.5c-2-1.2-4.7-0.6-5.9,1.4l-6.5,10.4c-1.2,2-0.6,4.7,1.4,5.9l10.4,6.5
						c1.1,0.7,2.3,0.8,3.5,0.5c1-0.3,1.9-0.9,2.4-1.8l1.9-3.1l1.7-2.7l2.8-4.5c0.1-0.2,0.2-0.3,0.3-0.5
						C55.9,170.3,55.2,167.9,53.4,166.8z M42.8,173.9l-1.3-0.8c-1.6-1-2-3-1.1-4.6l0.8-1.3c1-1.6,3-2,4.6-1.1l1.3,0.8
						c1.6,1,2.1,3,1.1,4.6l-0.8,1.3c-0.2,0.4-0.5,0.7-0.8,0.9c-1,0.8-2.5,0.9-3.6,0.3C42.9,174,42.8,173.9,42.8,173.9z"/>
					<path class="st9" d="M42.6,182.5L26.8,208c-4-2.5-5.3-7.8-2.8-11.8l1.4-2.2l-1.5-0.9l1.1-1.8l1.5,0.9l0.8-1.3l-1.5-0.9l1.1-1.8
						l1.5,0.9l0.6-1l-1.5-0.9l1.1-1.8l1.5,0.9l5.1-8.3L42.6,182.5z"/>
					<path class="st13" d="M27.9,202L27.9,202c-0.4-0.3-0.5-0.7-0.3-1.1L38,184.1c0.2-0.4,0.7-0.5,1.1-0.3l0,0
						c0.4,0.2,0.5,0.7,0.3,1.1L29,201.8C28.7,202.1,28.3,202.3,27.9,202z"/>
					<path class="st13" d="M25.8,198.3L25.8,198.3c-0.4-0.3-0.5-0.7-0.3-1.1l9.4-15.1c0.2-0.4,0.7-0.5,1.1-0.3l0,0
						c0.4,0.2,0.5,0.7,0.3,1.1l-9.4,15.1C26.7,198.5,26.2,198.6,25.8,198.3z"/>
				</g>
			</g>
			<g>
				<path class="st16" d="M52.2,179.1l0,1.4c-0.3-0.1-0.7-0.1-1-0.2c-0.4-0.1-0.7-0.2-1-0.3c0,0,0,0,0,0c-1.6-0.5-3.1-1.4-4.3-2.5
					c-0.1-0.1-0.1-0.1-0.2-0.2c-0.3-0.2-0.5-0.4-0.7-0.7c-0.3-0.3-0.5-0.6-0.8-0.8c-0.5-0.6-0.9-1.2-1.3-1.8
					c1.2,0.7,2.6,0.5,3.6-0.3c0,0,0.1,0.1,0.1,0.1c0,0,0,0,0,0c0.1,0.1,0.2,0.3,0.3,0.4c0.4,0.4,0.8,0.8,1.3,1.2
					c0.1,0,0.1,0.1,0.2,0.1c1,0.8,2.2,1.3,3.5,1.7c0,0,0,0,0,0c0.2,0.1,0.5,0.1,0.7,0.2C52.4,177.9,52.2,178.5,52.2,179.1z"/>
				<path class="st3" d="M55.5,152.2c-5.6,0-10.4,3.4-12.5,8.2l2.7,1.7c1.5-4,5.3-6.8,9.8-6.8c5.7,0,10.4,4.7,10.4,10.4
					c0,2.5-0.9,4.8-2.3,6.6c1,0.3,1.9,1.1,2.4,2c1.9-2.3,3.1-5.3,3.1-8.6C69.1,158.2,63,152.2,55.5,152.2z M58.8,176.1
					c-0.2-0.2-0.5-0.3-0.8-0.4c-0.8,0.2-1.6,0.3-2.5,0.3c-0.5,0-1,0-1.4-0.1c-0.4-0.1-0.9-0.1-1.3-0.3c-1.3-0.3-2.4-0.9-3.5-1.7
					c-0.5-0.4-1-0.8-1.4-1.3c-0.1-0.1-0.2-0.2-0.3-0.4c-1.5-1.8-2.5-4.1-2.5-6.6c-1.1-0.4-2.2-0.2-3.1,0.5c0.2,3,1.3,5.8,3.1,8
					c0.2,0.3,0.5,0.6,0.8,0.8c0.3,0.3,0.6,0.6,0.9,0.8c1.3,1.1,2.7,1.9,4.3,2.5c0.4,0.1,0.7,0.2,1.1,0.3c1.1,0.3,2.2,0.4,3.3,0.4
					c1.7,0,3.3-0.3,4.8-0.9C60.1,177.4,59.6,176.6,58.8,176.1z"/>
			</g>
		</g>
	</g>
	<g>
		<path class="st13" d="M87.4,318.6H41.2V300c0-2.1,1.7-3.7,3.7-3.7h38.8c2.1,0,3.7,1.7,3.7,3.7V318.6z"/>
		<g>
			<g>
				<path class="st3" d="M80.5,316H48.1c-1.3,0-2.3-1-2.3-2.3V247c0-1.3,1-2.3,2.3-2.3h32.4c1.3,0,2.3,1,2.3,2.3v66.7
					C82.8,315,81.8,316,80.5,316z"/>
				<path class="st5" d="M79.5,255.6v49.3c0,0.9-0.8,1.7-1.7,1.7h-27c-0.4,0-0.7-0.1-1-0.3c-0.5-0.3-0.7-0.8-0.7-1.4v-49.3
					c0-1.1,0.9-2,2-2h26.5C78.6,253.7,79.5,254.5,79.5,255.6z"/>
			</g>
			<g>
				<g>
					<g>
						<path class="st3" d="M64.3,295.6C64.3,295.6,64.3,295.6,64.3,295.6c-14.4-3.3-12.1-21.1-12.1-21.1l12.1-5.2l0,0l12,5.2
							C76.4,274.5,78.7,292.3,64.3,295.6z"/>
						<path class="st4" d="M64.3,295.6v-26.3l12,5.2C76.4,274.5,78.7,292.3,64.3,295.6z"/>
					</g>
					<g>
						<path class="st10" d="M74,283.5c-1.4,5.6-4.7,9-9.7,10.3c-5-1.3-8.3-4.7-9.7-10.3c-0.8-3.2-0.8-6.3-0.7-7.8l10.4-4.5l10.4,4.5
							C74.8,277.3,74.8,280.3,74,283.5z"/>
					</g>
					<g class="st4">
						<path d="M74,283.5c-1.4,5.6-4.7,9-9.7,10.3v-22.5l10.4,4.5C74.8,277.3,74.8,280.3,74,283.5z"/>
					</g>
				</g>
				<g>
					<g>
						<g>
							<g>
								<g>
									<g>
										<path class="st5" d="M69.3,278.6h-0.5c0-0.4-0.2-0.9-0.3-1.3c-0.7-1.7-2.3-2.8-4.2-2.8h0c-1.9,0-3.5,1.2-4.2,2.8
											c-0.2,0.4-0.3,0.8-0.3,1.3h-0.5c-0.6,0-1.2,0.5-1.2,1.2v7.6c0,0.6,0.5,1.2,1.2,1.2h10.1c0.6,0,1.2-0.5,1.2-1.2v-7.6
											C70.5,279.1,70,278.6,69.3,278.6z M65.4,286h-2.3l0.5-2.3c-0.1,0-0.2-0.1-0.2-0.2c-0.2-0.2-0.4-0.6-0.4-0.9
											c0-0.2,0-0.4,0.1-0.6c0.2-0.4,0.6-0.7,1.1-0.7c0,0,0,0,0,0c0.5,0,0.9,0.3,1.2,0.7c0.1,0.2,0.1,0.4,0.1,0.6
											c0,0.4-0.1,0.7-0.4,0.9c-0.1,0.1-0.2,0.2-0.4,0.3L65.4,286z M61.1,278.6c0.1-0.5,0.2-0.9,0.5-1.3c0.6-0.9,1.6-1.5,2.7-1.5
											c0,0,0,0,0,0c1.1,0,2.1,0.6,2.7,1.5c0.2,0.4,0.4,0.8,0.5,1.3H61.1z"/>
									</g>
								</g>
							</g>
						</g>
						<path class="st4" d="M61.7,277.2c0,0-0.1,0.1-0.1,0.1c-0.2,0.4-0.4,0.8-0.5,1.3h-1.4c0-0.4,0.2-0.9,0.3-1.3c0,0,0-0.1,0-0.1
							H61.7z"/>
						<path class="st4" d="M68.8,278.6h-1.4c-0.1-0.5-0.2-0.9-0.5-1.3c0,0-0.1-0.1-0.1-0.1h1.5c0,0,0,0.1,0,0.1
							C68.7,277.7,68.8,278.1,68.8,278.6z"/>
					</g>
					<path class="st4" d="M70.5,279.7v7.6c0,0.6-0.5,1.2-1.2,1.2h-5V286h1.1l-0.5-2.2c0.1-0.1,0.3-0.2,0.4-0.3
						c0.2-0.2,0.4-0.5,0.4-0.9c0-0.2-0.1-0.4-0.1-0.6c-0.2-0.4-0.6-0.7-1.2-0.7c0,0,0,0,0,0v-2.7h3.2c-0.1-0.5-0.2-0.9-0.5-1.3
						c-0.6-0.9-1.6-1.5-2.7-1.5c0,0,0,0,0,0v-1.4h0c1.9,0,3.5,1.2,4.2,2.8c0.2,0.4,0.3,0.8,0.3,1.3h0.5
						C70,278.6,70.5,279.1,70.5,279.7z"/>
				</g>
			</g>
			<path class="st6" d="M79.5,255.6v2.6H49.1v-2.6c0-1.1,0.9-2,2-2h26.5C78.6,253.7,79.5,254.5,79.5,255.6z"/>
			<circle class="st8" cx="64.3" cy="310.7" r="2"/>
			<path class="st8" d="M73.2,250.7H56.4c-0.5,0-1-0.4-1-1v-0.1c0-0.5,0.4-1,1-1h16.8c0.5,0,1,0.4,1,1v0.1
				C74.2,250.2,73.7,250.7,73.2,250.7z"/>
		</g>
		<rect x="41.2" y="314.3" class="st9" width="46.2" height="10.7"/>
		<rect x="41.2" y="319.6" class="st13" width="46.2" height="5.4"/>
	</g>
</g>
<g>
	<path class="st15" d="M37.9,239.1c-11.9,0.7-12.5,1.3-13.2,13.2c-0.7-11.9-1.3-12.5-13.2-13.2c11.9-0.7,12.5-1.3,13.2-13.2
		C25.4,237.7,26,238.3,37.9,239.1z"/>
	<path class="st15" d="M362.6,122.6c-11.9,0.7-12.5,1.3-13.2,13.2c-0.7-11.9-1.3-12.5-13.2-13.2c11.9-0.7,12.5-1.3,13.2-13.2
		C350.1,121.3,350.6,121.9,362.6,122.6z"/>
</g>
</svg>
