<?xml version="1.0" encoding="utf-8"?>
<!-- Generator: Adobe Illustrator 19.1.0, SVG Export Plug-In . SVG Version: 6.00 Build 0)  -->
<svg version="1.1" id="Layer_1" xmlns="http://www.w3.org/2000/svg" xmlns:xlink="http://www.w3.org/1999/xlink" x="0px" y="0px"
	 viewBox="0 0 90 90" style="enable-background:new 0 0 90 90;" xml:space="preserve">
<style type="text/css">
	.st0{fill:#B8B8B8;}
	.st1{fill:#FB7C02;}
</style>
<g>
	<path class="st0" d="M0.7,70.7V13.4c0.6-2,2-2.4,3.7-2.4c26.7,0,53.4,0,80.1,0c0.4,0,0.8,0,1.1,0.1c1.4,0.3,2.3,1.5,2.3,3.1v49.8
		c0,2,0,4,0,6c0,1.5-1.2,2.8-2.8,2.9c-1.3,0-2.6,0-3.9,0c-0.2,0-0.5,0.1-0.6,0.2c-2.5,2-5.2,3.6-8.3,4.6c-4.5,1.5-9.1,1.9-13.9,1.2
		c-4.9-0.7-9.4-2.5-13.3-5.7c-0.4-0.3-0.8-0.5-1.3-0.5c-13.3,0-26.6,0-40,0c-0.3,0-0.5,0-0.8,0c-0.9,0-1.6-0.5-2-1.3
		C0.9,71.3,0.8,71,0.7,70.7 M41.4,47.3c0.1,0,0.1,0,0.1-0.1c4.3-4.2,8.5-8.5,12.8-12.7c0.2-0.2,0.2-0.3,0.1-0.5
		c-0.7-1.5-0.9-3.1-0.7-4.7c0.6-4,4.2-7,8.3-6.8c4.2,0.2,7.5,3.4,7.7,7.5c0.4,6.1-5.9,10.4-11.4,7.8c-0.3-0.2-0.5-0.1-0.8,0.1
		c-4.3,4.3-8.6,8.5-12.9,12.8c-0.5,0.5-0.8,0.9-0.9,1.6c-0.5,2.5-2.9,4.2-5.3,3.8c-2.7-0.4-4.4-2.6-4.1-5.3c0-0.2,0-0.4-0.1-0.5
		c-1.6-2.2-3.2-4.5-4.8-6.7c-0.2-0.2-0.3-0.3-0.5-0.2c-1.1,0.3-2.1,0.2-3.1-0.2c-0.3-0.1-0.4-0.1-0.6,0.1c-2.6,2.5-5.1,5-7.7,7.5
		c-0.2,0.2-0.5,0.3-0.7,0.3c-3,0-6,0-9.1,0H7.1v15.3h32.1c-0.4-0.8-0.8-1.5-1.2-2.3c-0.2-0.3-0.2-0.6,0-0.9
		c2.5-4.8,6.1-8.7,10.8-11.5c5.6-3.3,11.7-4.4,18.2-3.7c5.5,0.6,10.3,2.8,14.4,6.5c0.1,0.1,0.2,0.2,0.3,0.3v-0.4
		c0-11.8,0-23.5,0-35.3c0-1.3-0.7-2-2-2H9.1c-1.3,0-2,0.7-2,2V46v0.5c2.6,0,5.1,0,7.6,0c0.4,0,0.6-0.1,0.9-0.3
		c2.3-2.3,4.6-4.5,7-6.8c0.2-0.2,0.3-0.4,0.3-0.7c0-0.4,0.1-0.8,0.2-1.1c0.7-2.3,3.1-3.7,5.4-3.2c2.4,0.5,4,2.6,3.9,5
		c0,0.2,0,0.4,0.1,0.6c1.7,2.3,3.3,4.6,5,6.9c0.1,0.1,0.2,0.2,0.4,0.1C39,46.6,40.2,46.7,41.4,47.3 M62.4,73.1c0,0,0-0.1,0-0.1
		c-4.6-0.3-8-3.8-8.6-8c-0.3-2.4,0.3-4.7,1.7-6.7c1.5-2,3.4-3.1,5.8-3.7c-0.4,0-0.9,0-1.3,0.1c-3.2,0.3-6.3,1.2-9.2,2.7
		c-2.6,1.5-4.8,3.4-6.5,5.9c-0.2,0.3-0.2,0.5,0,0.8c1.3,2.1,3,3.8,5,5.2c2.7,1.8,5.7,2.9,9,3.3C59.7,72.9,61,73,62.4,73.1 M63.5,73
		c0.6,0,1.2-0.1,1.8-0.1c3.3-0.3,6.5-1.1,9.5-2.7c2.6-1.4,4.8-3.3,6.5-5.7c0.3-0.4,0.3-0.7,0-1.1c-0.8-1-1.5-2-2.3-2.9
		c-3-3-6.7-4.7-10.8-5.5c-1.4-0.2-2.8-0.4-4.2-0.5c0,0,0,0.1,0,0.1c4.6,0.5,8.2,4.4,8.2,9.1C72.3,68.5,68.5,72.7,63.5,73 M61.7,33.9
		c1.9,0,3.4-1.5,3.4-3.4c0-1.9-1.5-3.4-3.4-3.4c-1.9,0-3.4,1.5-3.4,3.4C58.2,32.3,59.8,33.9,61.7,33.9 M63,60.6
		c-1.7,0-3.1,1.4-3.1,3.1c0,1.7,1.4,3.1,3.1,3.1c1.7,0,3.1-1.4,3.1-3.1C66.1,62,64.7,60.7,63,60.6"/>
	<path class="st1" d="M64.2,54.6c0,0,0-0.1,0-0.1l-2.6,0.2c-2.4,0.5-4.4,1.7-5.8,3.7c-1.5,2-2,4.2-1.7,6.7c0.5,4.3,4,7.7,8.6,8
		l1.1,0.1c5-0.4,8.7-4.5,8.7-9.4C72.4,59,68.8,55.1,64.2,54.6z M63.2,66.9c-1.7,0-3.1-1.4-3.1-3.1c0-1.7,1.4-3.1,3.1-3.1
		c1.7,0,3.1,1.4,3.1,3.1C66.3,65.5,64.9,66.8,63.2,66.9z"/>
	<g>
		<polygon class="st1" points="7,46.5 7,46.5 7,46 		"/>
		<path class="st1" d="M62,22.6c-4.1-0.2-7.7,2.7-8.3,6.8c-0.3,1.6,0,3.2,0.7,4.7c0.1,0.2,0.1,0.3-0.1,0.5
			C50,38.8,45.7,43,41.5,47.3c0,0,0,0-0.1,0.1c-1.2-0.6-2.3-0.7-3.6-0.4c-0.1,0-0.3,0-0.4-0.1c-1.7-2.3-3.3-4.6-5-6.9
			c-0.1-0.1-0.1-0.4-0.1-0.6c0.2-2.5-1.5-4.6-3.9-5c-2.3-0.4-4.7,0.9-5.4,3.2c-0.1,0.4-0.2,0.8-0.2,1.1c0,0.3-0.1,0.5-0.3,0.7
			c-2.3,2.3-4.7,4.5-7,6.8c-0.2,0.2-0.5,0.4-0.9,0.3c-2.5,0-5,0-7.6,0l0,4.8h0.5c3,0,6,0,9.1,0c0.2,0,0.5-0.1,0.7-0.3
			c2.6-2.5,5.1-5,7.7-7.5c0.2-0.2,0.4-0.3,0.6-0.1c1,0.4,2,0.5,3.1,0.2c0.3-0.1,0.4,0,0.5,0.2c1.6,2.2,3.2,4.5,4.8,6.7
			c0.1,0.1,0.2,0.3,0.1,0.5c-0.3,2.7,1.4,4.9,4.1,5.3c2.4,0.4,4.8-1.3,5.3-3.8c0.1-0.7,0.4-1.1,0.9-1.6c4.3-4.3,8.6-8.5,12.9-12.8
			c0.3-0.3,0.4-0.3,0.8-0.1c5.5,2.5,11.8-1.8,11.4-7.8C69.5,26,66.1,22.8,62,22.6z M61.7,33.9c-1.9,0-3.4-1.6-3.4-3.4
			c0-1.9,1.6-3.4,3.4-3.4c1.9,0,3.4,1.5,3.4,3.4C65.1,32.4,63.6,33.9,61.7,33.9z"/>
	</g>
</g>
</svg>
