<?xml version="1.0" encoding="utf-8"?>
<!-- Generator: Adobe Illustrator 19.1.0, SVG Export Plug-In . SVG Version: 6.00 Build 0)  -->
<svg version="1.1" id="Layer_1" xmlns="http://www.w3.org/2000/svg" xmlns:xlink="http://www.w3.org/1999/xlink" x="0px" y="0px"
	 viewBox="0 0 400 400" style="enable-background:new 0 0 400 400;" xml:space="preserve">
<style type="text/css">
	.st0{fill:none;stroke:#999B9E;stroke-width:0.8946;stroke-miterlimit:10;}
	.st1{fill:none;stroke:#474EBB;stroke-width:0.8946;stroke-miterlimit:10;}
	.st2{fill:#FB7C02;}
	.st3{fill:#E7B21E;}
	.st4{fill:#11C0C9;}
	.st5{fill:#1FC1F0;}
	.st6{fill:#474EBB;}
	.st7{fill:#305399;}
	.st8{fill:#8EBA27;}
	.st9{fill:#FFFFFF;}
	.st10{fill-rule:evenodd;clip-rule:evenodd;fill:#FFFFFF;}
</style>
<g>
	<line class="st0" x1="163.7" y1="133.4" x2="233.8" y2="176.9"/>
	<line class="st0" x1="72.2" y1="159.6" x2="157.6" y2="131.4"/>
	<polyline class="st0" points="29.5,271.6 75.8,158.3 112,267.8 163,126.5 174.2,220.4 238.6,170.3 370.1,133.7 283.3,121.1 
		233.7,170.3 310.6,221.8 372.3,276.3 224.3,266.9 106.7,262.9 	"/>
	<line class="st0" x1="174.6" y1="215.5" x2="126.3" y2="249.9"/>
	<polyline class="st0" points="231.9,178.4 224.3,266.9 311.5,220 	"/>
	<line class="st0" x1="173.3" y1="217.7" x2="222.5" y2="264.3"/>
	<line class="st0" x1="362.5" y1="132.3" x2="310.6" y2="221.8"/>
</g>
<g>
	<circle class="st2" cx="76.5" cy="163.8" r="43.6"/>
	<circle class="st3" cx="163.7" cy="133.4" r="23.9"/>
	<circle class="st4" cx="283.3" cy="121.1" r="20.6"/>
	<circle class="st5" cx="232.3" cy="173" r="30.9"/>
	<circle class="st6" cx="370.3" cy="275.7" r="18.6"/>
	<circle class="st2" cx="364.5" cy="133.4" r="26.2"/>
	<circle class="st7" cx="29.5" cy="271.6" r="23.5"/>
	<circle class="st3" cx="225.4" cy="264" r="27.5"/>
	<circle class="st8" cx="308.6" cy="219.3" r="39.1"/>
	<circle class="st5" cx="110" cy="260" r="36.5"/>
	<circle class="st6" cx="174.9" cy="217.1" r="23.9"/>
</g>
<path class="st9" d="M89.9,142.7c0.7,1.3,0.9,2.6,0.9,4.1c0,11.7,0,23.4,0,35.1c0,4.1-2.5,6.6-6.5,6.6c-5.7,0-11.3,0-17,0l0,0.1
	c0-0.2-0.2-0.2-0.3-0.2c-2.9-1.3-4.3-3.4-4.2-6.7c0.1-11.7,0-23.3,0-35c0-4.2,2.4-6.6,6.7-6.6c4.6,0,9.2,0.1,13.8,0
	c2.6-0.1,4.7,0.5,6.5,2.4c0.1,0.2,0.2,0.5,0.5,0.3C90,142.7,89.9,142.7,89.9,142.7z M66,161.4c0,5,0,9.9,0,14.9c0,1,0.3,1.3,1.2,1.3
	c6.3,0,12.5,0,18.8,0c1,0,1.3-0.3,1.3-1.3c0-9.9,0-19.7,0-29.6c0-1-0.3-1.4-1.3-1.3c-6.2,0-12.4,0-18.7,0c-1.1,0-1.4,0.3-1.4,1.4
	C66.1,151.6,66,156.5,66,161.4z M76.7,185c2.5,0,2.2,0.2,2.2-1.9c0-2.8,0.4-2.5-2-2.5c-2.7,0-2.3-0.3-2.4,2
	C74.5,185,74.5,185,76.7,185z"/>
<path class="st9" d="M327.4,232c-12.1,0-24.1,0-36.2,0c0-0.2,0-0.3,0-0.5c0-7.1,0-14.2,0-21.3c0-1.1,0.5-1.6,1.6-1.6c11,0,22,0,33,0
	c1.1,0,1.6,0.5,1.6,1.6c0,7.1,0,14.2,0,21.3C327.4,231.7,327.4,231.8,327.4,232z"/>
<path class="st9" d="M286.7,232.8c0.2,0,0.3,0,0.5,0c5.7,0,11.3,0,17,0c0.2,0,0.4,0.2,0.6,0.2c0.2,0.1,0.3,0.1,0.5,0.1
	c2.7,0,5.4,0,8,0c0.2,0,0.4-0.2,0.6-0.2c0.1,0,0.2-0.1,0.3-0.1c5.8,0,11.6,0,17.5,0c0.1,0,0.1,0,0.2,0c0,0.6,0.2,1.2-0.3,1.7
	c-0.2,0.3-0.6,0.4-0.9,0.6c-0.1,0.1-0.3,0-0.5,0c-14,0-28,0-41.9,0c-1,0-1.4-0.4-1.6-1.1C286.6,233.6,286.7,233.2,286.7,232.8z"/>
<g>
	<path class="st10" d="M99.5,269.3c0.9-4.1,1.8-8.2,2.8-12.3c0.3-1.5,1.5-2.2,2.8-1.8c4.8,1.3,9.5,2.6,14.3,3.8
		c0.2,0,0.3,0.1,0.5,0.1c0.1,0,0.2,0.1,0.4,0.1c2.5,0.7,5,1.4,7.5,2c0.1,0,0.2,0,0.3,0.1c0.3,0.1,0.4,0.4,0.2,0.6
		c-0.1,0.1-0.2,0.1-0.2,0.2c-1.6,1.4-3.3,2.8-4.9,4.2c-0.2,0.2-0.4,0.4-0.4,0.7c-1,4.6-2.1,9.3-3.1,13.9c-0.4,1.6-1.5,2.3-2.9,1.9
		c-5.5-1.5-11.1-3-16.6-4.5c-1.4-0.4-2.1-1.6-1.8-3.2c0.4-1.8,0.8-3.7,1.2-5.5C99.5,269.6,99.5,269.5,99.5,269.3 M111.8,265.2
		c2,0.5,4,1.1,6,1.6c0.3,0.1,0.4,0,0.4-0.3c0.1-0.5,0.2-1.1,0.4-1.6c0.1-0.3,0-0.4-0.3-0.5c-3.7-1-7.4-2-11-3
		c-0.4-0.1-0.8-0.2-1.2-0.3c-0.2-0.1-0.3,0-0.3,0.2c-0.1,0.6-0.3,1.2-0.4,1.8c-0.1,0.3,0.1,0.3,0.3,0.3
		C107.7,264.2,109.8,264.7,111.8,265.2 M111.3,267.5c-2-0.5-4-1.1-6-1.6c-0.3-0.1-0.4-0.1-0.5,0.3c-0.1,0.5-0.2,1.1-0.4,1.6
		c-0.1,0.3,0,0.4,0.2,0.4c1.7,0.4,3.4,0.9,5.1,1.4c2.3,0.6,4.6,1.2,6.9,1.9c0.4,0.1,0.5,0,0.5-0.4c0.1-0.5,0.2-1,0.3-1.5
		c0.1-0.3,0-0.4-0.3-0.5C115.3,268.6,113.3,268.1,111.3,267.5 M111.8,275.1c1.3,0.4,2.6,0.7,3.9,1.1c0.3,0.1,0.4,0,0.4-0.3
		c0.1-0.5,0.2-1.1,0.4-1.6c0.1-0.2,0-0.4-0.2-0.4c-2.7-0.7-5.3-1.4-8-2.1c-0.2-0.1-0.3,0-0.4,0.3c-0.1,0.6-0.2,1.1-0.4,1.7
		c-0.1,0.3,0,0.4,0.2,0.4C109.2,274.4,110.5,274.8,111.8,275.1"/>
	<path class="st10" d="M98.4,268c0.9-4.1,1.8-8.2,2.8-12.3c0.3-1.5,1.5-2.2,2.8-1.8c4.8,1.3,9.5,2.6,14.3,3.8c0.2,0,0.3,0.1,0.5,0.1
		c0.5-2.3,1-4.6,1.5-6.8c0.3-1.2-0.1-2.3-1.1-2.9c-0.2-0.1-0.4-0.2-0.7-0.2c-7.6-2-15.1-4.1-22.7-6.1c-0.2-0.1-0.4-0.2-0.6,0.1
		c-0.2,0.2,0,0.4,0,0.6c0.9,2.1,1.7,4.1,2.6,6.2c0.1,0.3,0.2,0.5,0.1,0.9c-1.1,4.9-2.2,9.8-3.3,14.7c-0.3,1.2,0,2.2,0.9,2.8
		c0.2,0.2,0.5,0.3,0.8,0.3C97.1,267.6,97.7,267.8,98.4,268"/>
</g>
<g>
	<path class="st9" d="M357.1,125.2c0,0.8,0,1.6,0,2.4c0,3.3,0,6.6,0,10c0,0.4,0,0.9,0.1,1.3c0.2,1,0.9,1.5,1.8,1.6
		c1.1,0.1,2.3,0.1,3.4,0c1.3-0.1,2.1-1,2.2-2.4c0-1.6,0-3.1,0-4.7c0-2.8,0-5.6,0-8.4c0-0.2,0.1-0.3,0.3-0.3c3.1,0,6.2,0,9.3,0
		c1.6,0,3.1,1.3,3.1,3.1c0,4,0,7.9,0,11.9c0,0.8-0.2,1.4-0.7,2c-0.6,0.6-1.3,1-2.1,1c-2.8,0-5.7,0-8.5,0c-2.4,0-4.8,0-7.1,0
		c-1.1,0-1.9-0.3-2.6-1.2c-0.4-0.5-0.6-1.1-0.6-1.7c0-4.1,0-8.1,0-12.2c0-0.9,0.4-1.7,1.1-2.3C356.8,125.4,356.9,125.3,357.1,125.2z
		 M370.6,130L370.6,130c1.1,0,2.3,0,3.4,0c0.3,0,0.4,0,0.4-0.4c0-0.5,0-1.1,0-1.6c0-0.2-0.1-0.3-0.3-0.3c-2.3,0-4.6,0-6.9,0
		c-0.2,0-0.3,0.1-0.3,0.3c0,0.5,0,1,0,1.6c0,0.4,0,0.4,0.4,0.4C368.4,130,369.5,130,370.6,130z M367.6,139.8
		C367.6,139.8,367.6,139.8,367.6,139.8c0.2,0,0.3,0,0.5,0c0.2,0,0.3-0.1,0.3-0.3c0-0.3,0-0.7,0-1c0-0.2-0.1-0.3-0.3-0.3
		c-0.3,0-0.7,0-1,0c-0.2,0-0.3,0.1-0.3,0.3c0,0.3,0,0.7,0,1c0,0.2,0.1,0.2,0.2,0.2C367.3,139.8,367.4,139.8,367.6,139.8z M368.4,136
		C368.4,136,368.4,136,368.4,136c0-0.2,0-0.3,0-0.5c0-0.2-0.1-0.3-0.3-0.3c-0.3,0-0.7,0-1,0c-0.2,0-0.2,0.1-0.2,0.2c0,0.3,0,0.7,0,1
		c0,0.2,0.1,0.3,0.3,0.3c0.3,0,0.7,0,1,0c0.2,0,0.3-0.1,0.3-0.3C368.4,136.4,368.4,136.2,368.4,136z M373.6,135.3
		c-0.2,0-0.3,0-0.5,0c-0.2,0-0.2,0.1-0.2,0.2c0,0.4,0,0.7,0,1.1c0,0.1,0.1,0.2,0.2,0.2c0.4,0,0.7,0,1.1,0c0.2,0,0.2-0.1,0.2-0.3
		c0-0.2,0-0.5,0-0.7c0-0.6,0.1-0.6-0.6-0.6C373.7,135.3,373.7,135.3,373.6,135.3z M374.4,139C374.4,139,374.4,139,374.4,139
		c0-0.2,0-0.4,0-0.6c0-0.2-0.1-0.2-0.2-0.2c-0.3,0-0.7,0-1,0c-0.2,0-0.3,0.1-0.3,0.2c0,0.4,0,0.7,0,1.1c0,0.1,0.1,0.2,0.2,0.2
		c0.4,0,0.7,0,1.1,0c0.2,0,0.2-0.1,0.2-0.3C374.4,139.4,374.4,139.2,374.4,139z M367.6,133.8C367.6,133.8,367.6,133.8,367.6,133.8
		c0.2,0,0.3,0,0.5,0c0.2,0,0.3-0.1,0.3-0.3c0-0.3,0-0.7,0-1c0-0.2-0.1-0.2-0.3-0.2c-0.3,0-0.7,0-1,0c-0.2,0-0.3,0.1-0.3,0.3
		c0,0.3,0,0.7,0,1c0,0.2,0.1,0.2,0.2,0.2C367.3,133.8,367.4,133.8,367.6,133.8z M369.9,139c0,0.2,0,0.3,0,0.5c0,0.2,0.1,0.3,0.2,0.3
		c0.3,0,0.7,0,1,0c0.2,0,0.3-0.1,0.3-0.2c0-0.4,0-0.7,0-1.1c0-0.2-0.1-0.2-0.3-0.2c-0.3,0-0.7,0-1,0c-0.2,0-0.2,0.1-0.2,0.3
		C369.9,138.7,369.9,138.9,369.9,139z M370.6,135.3c-0.2,0-0.3,0-0.5,0c-0.2,0-0.3,0.1-0.3,0.3c0,0.3,0,0.7,0,1
		c0,0.2,0.1,0.2,0.2,0.3c0.3,0,0.7,0,1,0c0.2,0,0.2-0.1,0.2-0.2c0-0.2,0-0.4,0-0.5C371.4,135.2,371.5,135.3,370.6,135.3z
		 M373.6,133.8c0.2,0,0.3,0,0.5,0c0.1,0,0.2-0.1,0.2-0.2c0-0.4,0-0.7,0-1.1c0-0.1-0.1-0.2-0.2-0.2c-0.4,0-0.7,0-1.1,0
		c-0.1,0-0.2,0.1-0.2,0.2c0,0.4,0,0.7,0,1.1c0,0.1,0.1,0.2,0.2,0.2C373.2,133.8,373.4,133.8,373.6,133.8z M370.6,133.8
		c0.2,0,0.3,0,0.5,0c0.2,0,0.2-0.1,0.2-0.2c0-0.3,0-0.7,0-1c0-0.2-0.1-0.3-0.3-0.3c-0.3,0-0.7,0-1,0c-0.2,0-0.2,0.1-0.2,0.2
		c0,0.3,0,0.7,0,1c0,0.2,0.1,0.2,0.2,0.2C370.3,133.8,370.4,133.8,370.6,133.8z"/>
	<path class="st9" d="M357.9,131.1c0-2.1,0-4.2,0-6.3c0-0.7,0.2-1.3,0.8-1.8c0.4-0.3,0.8-0.5,1.3-0.5c0.6,0,1.1,0,1.7,0
		c1.3,0.1,2.1,1,2.1,2.3c0,4.2,0,8.4,0,12.6c0,1.4-1,2.3-2.3,2.3c-0.5,0-0.9,0-1.4,0c-1.3,0-2.2-1-2.2-2.2
		C357.9,135.4,357.9,133.3,357.9,131.1z"/>
</g>
<g>
	<path class="st10" d="M176.2,205.8c3.1,0.6,5.4,2.9,5.8,5.7c0.2,1.2,0,2.5,0.1,3.7c0,0.3,0.1,0.5,0.3,0.8c1.4,1.9,1.9,4,1.4,6.2
		c-0.8,3.5-3.6,6-7.5,6.7c-1.9,0.2-3.4,0-3.4,0c-6.8-1.2-9.9-7.8-6-12.9c0.1-0.2,0.2-0.4,0.2-0.6c0-1,0-2,0-3c0-0.9,0.2-1.7,0.6-2.5
		c1-2.1,2.8-3.4,5.3-4C173,205.8,174.4,205.5,176.2,205.8z M169.9,215.4c3.2-1.9,6.2-1.9,9.4,0c0-1.1,0-2.2,0-3.3
		c-0.1-2-1.9-3.7-4.1-3.9c-2.3-0.2-4.5,1.1-5,3C169.7,212.6,169.9,214,169.9,215.4z M176.4,219.9c0-0.8-0.6-1.4-1.4-1.6
		c-0.8-0.2-1.6,0.1-2.1,0.8c-0.4,0.7-0.3,1.5,0.4,2c0.3,0.2,0.4,0.4,0.3,0.7c0,0.7,0,1.4,0,2.1c0,0.5,0.4,0.9,0.9,0.9
		c0.5,0,0.9-0.4,1-0.9c0-0.8,0-1.6,0-2.3c0-0.2,0.1-0.3,0.2-0.5C176.2,220.8,176.4,220.4,176.4,219.9z"/>
</g>
<path class="st9" d="M39.1,277.8l-1.4-10.4l0,0l-0.2-1.7c-0.1-0.4-0.4-0.7-0.8-0.6l-8.5,1.1l0-0.2c-0.1-0.4-0.4-0.7-0.8-0.6l-7.8,1
	c-0.4,0.1-0.7,0.4-0.7,0.8l1.7,13l0,0.1l0,0l0,0.3c0.1,0.4,0.4,0.7,0.8,0.6l17-2.2c0.4-0.1,0.7-0.4,0.7-0.8L39.1,277.8z M36.9,266
	l0.1,0.7l0,0.3c0,0-0.1,0-0.1,0l-8.1,1c-0.3,0-0.6,0.3-0.6,0.6l-0.2,0.8l-7.9,1l0-0.3l-0.2-1.9L36.9,266z"/>
<path class="st9" d="M222.7,163.5c0.9,0.4,1.2-0.1,1.5-1.2c0.6-2.4,2.2-4.2,4.6-5c0.9-0.3,1.9-0.7,2.9-0.5c1.8,0.2,3.6,0.7,4.9,2
	c1.2,1.2,2,2.5,2.2,4.2c0.1,0.6,0.3,0.8,0.9,0.7c0.9-0.2,1.7,0.1,2.6,0.2c1.5,0.3,2.6,1,3.6,2c3.2,3,2.8,8.9-1.1,11.4
	c-0.8,0.5-0.9,0.8-0.6,1.8c1.5,4-0.7,8.8-5.2,9.8c-2.7,0.6-5.2,0.1-7.2-2c-0.3-0.3-0.5-0.3-0.8,0c-1,1.2-2.5,1.5-4,1.9
	c-2.3,0.6-4.3,0-6.1-1.4c-2.7-2.1-3.5-5.7-2.2-8.8c0.2-0.6,0.3-0.8-0.4-1.2c-4.2-2.5-5-8.1-1.7-11.7c0.8-0.8,1.7-1.5,2.8-1.8
	C220.6,163.7,221.5,163.5,222.7,163.5z M223.4,185.4c2-1,4-1.8,5.7-2.8c2.5-1.5,5.2-2.3,8.1-1.9c0.3,0,0.5,0,0.8,0c1.2,0,2-0.8,2-2
	c0-3.4,0-6.8,0-10.3c0-1.2-0.7-1.9-1.9-1.9c-4.8,0-9.6,0-14.4,0c-0.3,0-0.6,0-0.8,0.1c-1.1,0.4-1.1,1.4-1.2,2.3c0,3.1,0,6.2,0,9.2
	c0,1.4,0.6,2.7,2.5,2.5c0.6-0.1,0.6,0.2,0.4,0.7C224.1,182.6,223.8,183.9,223.4,185.4z"/>
<path id="XMLID_18_" class="st9" d="M173.8,127.9c-0.1,0-0.3,0-0.4,0.1c-0.9-2.4-3.4-3.9-6-3.5c-1.2,0.2-2.2,0.8-3,1.6
	c-1.3-1.5-3.3-2.3-5.4-2c-3.1,0.5-5.2,3.5-4.6,6.5c0,0.2,0.1,0.4,0.1,0.6c-0.1,0-0.3,0-0.4,0.1c-3.1,0.5-5.2,3.5-4.6,6.5
	c0.5,3.1,3.5,5.1,6.6,4.6l19.7-3.4c3.1-0.5,5.2-3.5,4.6-6.5C179.8,129.4,176.9,127.3,173.8,127.9z"/>
<g>
	<path class="st9" d="M274.4,130.2c-0.1,0-0.1-0.1-0.2-0.1c-0.1-0.1-0.2-0.1-0.3-0.1c-0.2-0.1-0.3-0.2-0.5-0.3c0,0-0.1,0-0.1,0
		c-0.2-0.1-0.3-0.2-0.5-0.3c-0.1-0.1-0.1-0.1-0.2-0.2c-0.1-0.1-0.2-0.2-0.3-0.3c-0.1-0.1-0.2-0.2-0.3-0.3c-0.1-0.1-0.2-0.2-0.2-0.3
		c0-0.1,0-0.1-0.1-0.2c-0.2-0.4-0.4-0.7-0.6-1.1c0-0.2-0.1-0.3-0.2-0.5c-0.1-0.4-0.2-0.8-0.3-1.2c0-0.1,0-0.2,0-0.3
		c0-0.3,0-0.5,0-0.8c0-0.1,0-0.2,0-0.2c0-0.3,0.1-0.6,0.1-0.8c0.1-0.1,0.1-0.2,0.1-0.3c0-0.1,0.1-0.3,0.1-0.4c0.6-1.7,1.6-3,3.4-3.7
		c0.2-0.1,0.5-0.1,0.6-0.2c0.1-0.2,0-0.5,0-0.7c0-0.1,0-0.2,0-0.3c0-0.3,0.1-0.5,0.1-0.8c0-0.2,0.1-0.3,0.1-0.5
		c0.1-0.1,0.1-0.2,0.1-0.2c0.1-0.1,0.1-0.2,0.2-0.3c0.1-0.2,0.2-0.3,0.3-0.5c0,0,0-0.1,0.1-0.1c0.2-0.1,0.3-0.3,0.4-0.4
		c0.1,0,0.1-0.1,0.1-0.1c0.1-0.1,0.3-0.2,0.4-0.3c0.1-0.1,0.2-0.1,0.2-0.1c0.1,0,0.3-0.1,0.4-0.2c0.9-0.3,1.8-0.3,2.6,0.1
		c0.1,0.1,0.2,0.2,0.4,0.2c0,0,0.1,0.1,0.1,0.1c0.2,0.2,0.1-0.1,0.2-0.2c0.1-0.2,0.2-0.4,0.3-0.6c0.1-0.1,0.2-0.3,0.3-0.4
		c0.4-0.5,0.9-0.9,1.4-1.2c0.2-0.1,0.4-0.2,0.6-0.3c0.4-0.1,0.7-0.2,1.1-0.3c0.2,0,0.3-0.1,0.5-0.1c0.2,0,0.4,0,0.6-0.1
		c0.1,0,0.2,0,0.2,0c0.3,0,0.7,0,1,0c0.1,0,0.2,0,0.3,0c0.2,0,0.4,0.1,0.6,0.1c0.2,0,0.3,0.1,0.5,0.1c0.4,0.1,0.7,0.3,1.1,0.4
		c0.1,0.1,0.3,0.2,0.4,0.2c0,0.1,0.1,0.1,0.2,0.1c0.1,0.1,0.2,0.2,0.4,0.3c0.1,0.1,0.1,0.1,0.2,0.2c0.1,0.1,0.2,0.2,0.3,0.3
		c0,0.1,0.1,0.1,0.2,0.2c0.1,0.1,0.2,0.3,0.3,0.4c0,0.1,0.1,0.2,0.2,0.3c0.1,0.1,0.1,0.3,0.2,0.4c0.1,0.2,0.2,0.4,0.2,0.6
		c0,0,0,0.1,0,0.1c0,0.1,0,0.1,0.1,0.2c0,0.2,0.1,0.5,0.1,0.7c0,0.2,0,0.4,0.1,0.6c0,0.2,0,0.3,0.2,0.3c0,0,0.1,0,0.1,0.1
		c0.7,0.4,1.4,0.8,2,1.4c0.5,0.5,0.9,1.1,1.2,1.7c0,0.1,0.1,0.2,0.1,0.2c0.1,0.1,0.1,0.3,0.2,0.4c0,0.1,0,0.1,0.1,0.2
		c0,0.2,0.1,0.4,0.2,0.5c0,0.2,0.1,0.4,0.1,0.6c0,0.1,0,0.2,0.1,0.4c0,0,0,0.1,0,0.1c0,0.2,0,0.4,0.1,0.6c0,0.2,0,0.3,0,0.5
		c0,0.3,0,0.5,0,0.8c0,0.1,0,0.2,0,0.3c-0.1,0.4-0.1,0.7-0.2,1.1c-0.1,0.2-0.1,0.4-0.2,0.6c-0.2,0.3-0.3,0.7-0.5,1
		c-0.1,0.1-0.1,0.1-0.1,0.2c0,0-0.1,0-0.1,0c-0.1,0.4-0.4,0.6-0.6,0.9c-0.2,0.2-0.3,0.3-0.5,0.5c0,0,0,0,0,0
		c-0.2,0.2-0.4,0.3-0.5,0.5c-0.3,0.2-0.6,0.4-0.9,0.6c-0.1,0-0.2,0.1-0.2,0.1c-0.4,0.1-0.7,0.3-1.1,0.4c-0.2,0-0.3,0.1-0.5,0.1
		c-0.6,0.1-1.2,0.1-1.8,0c-0.1,0-0.2,0-0.3-0.1c-0.4-0.1-0.8-0.2-1.2-0.4c-0.3-0.2-0.7-0.4-1-0.5c-0.1-0.1-0.3-0.2-0.4-0.3
		c-0.2-0.2-0.3-0.1-0.4,0.1c-0.1,0-0.2,0.1-0.2,0.2c-0.1,0-0.1,0.1-0.2,0.1l0,0c-0.5,0.3-1.1,0.6-1.7,0.8c-0.1,0-0.1,0-0.1,0
		c-0.3,0-0.6,0.1-0.9,0.1c-0.1,0-0.1,0-0.2,0c-0.4-0.1-0.8-0.1-1.1-0.2c-0.7-0.2-1.3-0.6-1.9-1.1c-0.1-0.1-0.1-0.2-0.2,0
		c-0.1,0.1-0.2,0.2-0.3,0.3c-0.1,0.1-0.2,0.1-0.3,0.2c-0.1,0-0.2,0.1-0.2,0.1c-0.4,0.2-0.7,0.3-1.1,0.5c-0.2,0-0.3,0.1-0.5,0.1
		c-0.2,0-0.5,0.1-0.7,0.1c-0.1,0-0.2,0-0.2,0c-0.3,0-0.5-0.1-0.8-0.1C274.8,130.3,274.6,130.3,274.4,130.2z M278.9,117.5
		L278.9,117.5c-0.1,0-0.1,0-0.1,0.1l0,0c-0.1,0-0.2,0.1-0.2,0.3c-0.2,0.3-0.1,0.6-0.1,0.9c0,0.1,0,0.2,0,0.2c0,0.2-0.1,0.5,0,0.7
		c0,0.1,0.1,0.2,0.2,0.3c0.1,0.1,0.2,0.2,0.3,0.2c0.1,0.1,0.3,0.1,0.4,0.1c0.3,0,0.5,0,0.8,0c0.1,0,0.1,0,0.2,0c0.3,0,0.5,0,0.8,0
		c0.1,0,0.2,0,0.3,0c0.3,0,0.5,0,0.8,0c0.1,0,0.1,0,0.2,0c0.3,0,0.6,0,0.8,0c0.1,0,0.2,0,0.2,0c0.3,0,0.5,0,0.8,0c0.1,0,0.2,0,0.2,0
		c0.2,0,0.5,0,0.7,0c0.1,0,0.2,0,0.3,0c0.3,0,0.5,0,0.8,0c0.1,0,0.2,0,0.3,0c0.3,0,0.5,0,0.8,0c0.4,0,0.8-0.4,0.8-0.8
		c0-0.3,0-0.7,0-1c0-0.1,0-0.3,0-0.4c0-0.1-0.1-0.2-0.1-0.3c-0.1-0.1-0.1-0.2-0.2-0.2c-0.2-0.1-0.3-0.2-0.6-0.1c-0.1,0-0.2,0-0.3,0
		c-0.2,0-0.5,0-0.7,0c-0.1,0-0.2,0-0.3,0c-0.2,0-0.5,0-0.7,0c-0.1,0-0.2,0-0.3,0c-0.2,0-0.5,0-0.7,0c-0.1,0-0.2,0-0.3,0
		c-0.2,0-0.5,0-0.7,0c-0.1,0-0.2,0-0.3,0c-0.2,0-0.5,0-0.7,0c-0.1,0-0.2,0-0.3,0c-0.2,0-0.5,0-0.7,0c-0.1,0-0.2,0-0.3,0
		c-0.2,0-0.5,0-0.7,0c-0.1,0-0.2,0-0.3,0C279.4,117.4,279.2,117.4,278.9,117.5C278.9,117.5,278.9,117.5,278.9,117.5z M279.4,124
		c-0.5-0.1-1.1,0.4-1,1c0,0.1,0,0.2,0,0.2c0,0.3,0,0.5,0,0.8c0,0.1,0,0.2,0,0.2c0,0.2,0.2,0.4,0.4,0.5c0.1,0.1,0.1,0.1,0.2,0.1
		c0.2,0.1,0.5,0,0.8,0c0.1,0,0.2,0,0.3,0c0.2,0,0.5,0,0.7,0c0.1,0,0.2,0,0.3,0c0.2,0,0.5,0,0.7,0c0.1,0,0.2,0,0.3,0
		c0.2,0,0.5,0,0.7,0c0.1,0,0.2,0,0.3,0c0.2,0,0.5,0,0.7,0c0.1,0,0.2,0,0.3,0c0.2,0,0.5,0,0.7,0c0.1,0,0.2,0,0.3,0c0.2,0,0.5,0,0.7,0
		c0.1,0,0.2,0,0.3,0c0.2,0,0.5,0,0.7,0c0.1,0,0.2,0,0.3,0c0.4,0,0.7-0.2,0.9-0.7c0,0,0-0.1,0-0.1c0-0.4,0-0.9,0-1.3
		c0-0.1,0-0.2-0.1-0.3c-0.1-0.1-0.1-0.3-0.3-0.3c-0.1-0.1-0.2-0.1-0.3-0.1c-0.2,0-0.4,0-0.6,0c-0.1,0-0.2,0-0.3,0
		c-0.2,0-0.5,0-0.7,0c-0.1,0-0.2,0-0.3,0c-0.3,0-0.5,0-0.8,0c-0.1,0-0.2,0-0.2,0c-0.2,0-0.5,0-0.7,0c-0.1,0-0.2,0-0.3,0
		c-0.3,0-0.5,0-0.8,0c-0.1,0-0.2,0-0.3,0c-0.3,0-0.5,0-0.8,0c-0.1,0-0.2,0-0.3,0c-0.3,0-0.5,0-0.7,0c-0.1,0-0.2,0-0.3,0
		c-0.3,0-0.5,0-0.8,0C279.6,124,279.5,124,279.4,124z M278.5,123.2c0.1,0.1,0.2,0.3,0.4,0.3c0.1,0.1,0.2,0.1,0.4,0.1
		c2.7,0,5.4,0,8,0c0.2,0,0.4-0.1,0.6-0.3c0.2-0.2,0.3-0.4,0.3-0.6c0-0.4,0.1-0.9,0-1.3c0-0.2-0.1-0.3-0.2-0.4
		c-0.1-0.1-0.2-0.2-0.3-0.2c-0.2-0.2-0.4-0.1-0.7-0.1c-0.1,0-0.2,0-0.4,0c-0.2,0-0.4,0-0.7,0c-0.1,0-0.2,0-0.4,0c-0.2,0-0.4,0-0.7,0
		c-0.1,0-0.2,0-0.4,0c-0.2,0-0.4,0-0.7,0c-0.1,0-0.2,0-0.4,0c-0.2,0-0.4,0-0.6,0c-0.1,0-0.2,0-0.3,0c-0.3,0-0.5,0-0.8,0
		c-0.1,0-0.2,0-0.4,0c-0.2,0-0.4,0-0.7,0c-0.1,0-0.2,0-0.3,0c-0.2,0-0.5,0-0.7,0c-0.1,0-0.2,0-0.3,0c-0.4,0-0.7,0-1,0.3
		c-0.2,0.3-0.2,0.6-0.2,0.9c0,0.1,0,0.2,0,0.2c0,0.2,0,0.5,0,0.7C278.4,123,278.4,123.1,278.5,123.2z"/>
	<path class="st9" d="M279.2,122.5c0-0.1,0-0.2,0-0.3c0-0.2,0-0.5,0-0.7c0.2,0,0.5,0,0.7,0c0.1,0,0.1,0.1,0.1,0.1c0,0.4,0,0.7,0,1.1
		c-0.1,0-0.1,0-0.2,0c-0.1,0-0.2,0-0.3,0C279.4,122.7,279.1,122.8,279.2,122.5z"/>
	<path class="st9" d="M279.2,119.4c0-0.1,0-0.2,0-0.3c0-0.2,0-0.5,0-0.7c0-0.1,0.1-0.1,0.2-0.2c0.2,0,0.4,0,0.6,0
		c0,0.1,0,0.1,0.1,0.2c0,0.2,0,0.5,0,0.7c0,0.1,0,0.2,0,0.3c0,0,0,0,0,0c-0.1,0-0.2,0-0.3,0c-0.1,0-0.2,0-0.3,0
		C279.3,119.5,279.2,119.5,279.2,119.4z"/>
	<path class="st9" d="M279.7,126c-0.1,0-0.2,0-0.2,0c-0.4,0-0.2-0.3-0.2-0.4c0-0.1,0-0.2,0-0.3c0-0.2-0.1-0.4,0.1-0.5
		c0.1-0.1,0.3,0,0.5,0c0.1,0,0.2,0,0.3,0c0,0.2,0,0.4,0,0.6c0,0.1,0,0.2,0,0.3c0,0,0,0.1,0,0.1C280.1,126,280,126.1,279.7,126
		C279.7,126,279.7,126,279.7,126z"/>
</g>
<path class="st10" d="M222.2,259.1c-0.1-0.5-0.1-0.9-0.1-1.4c0-0.2,0-0.3,0.2-0.4c1.2-0.4,2.5-0.4,3.7,0c1.9,0.6,3.2,1.9,3.9,3.8
	c0,0,0,0.1,0,0.1c0,0.1,0.1,0.3,0.1,0.4c0.2,0.8,0.2,0.6-0.5,0.9c-0.3,0.1-0.6,0.3-1,0.4c-0.2,0.1-0.3,0-0.3-0.2
	c-0.2-1.3-0.8-2.4-2-3.1c-1.2-0.7-2.4-0.9-3.8-0.4C222.3,259.4,222.3,259.4,222.2,259.1 M236.8,268.6c-0.2,0.2-0.3,0.4-0.4,0.6
	c-1,1.4-2.1,2.7-3.3,3.9c-0.1,0.1-0.2,0.1-0.2,0.2c-0.4,0.1-0.9,0.2-1.3,0.3c-0.1-0.1-0.2,0-0.3,0c-0.2,0-0.5,0-0.7,0
	c-2.1,0-4-0.6-5.9-1.3c-1.6-0.7-3.2-1.5-4.7-2.5c-1.9-1.2-3.6-2.5-5.1-4.1c-1.4-1.4-2.6-2.9-3.4-4.7c0-0.1-0.1-0.2-0.1-0.2
	c-0.1-0.2-0.1-0.5-0.2-0.7c0.1-0.1,0.1-0.2,0.2-0.3c0.7-1.8,1.6-3.6,2.7-5.3c0-0.1,0.1-0.1,0.1-0.2c0.1,0,0.2,0,0.3-0.1
	c0.3,0.3,0.6,0.5,0.8,0.7c1.3,1.2,2.5,2.4,3.6,3.7c0.3,0.3,0.3,0.4,0.1,0.7c-0.3,0.5-0.6,0.9-1,1.4c-0.1,0.1-0.1,0.2-0.2,0.3
	c-0.5,0.8-0.5,0.8,0,1.6c0.9,1.4,2,2.6,3.3,3.6c0.9,0.7,1.9,1.3,2.9,1.8c1.2,0.5,2.5,0.9,3.8,0.8c0.1,0,0.3,0,0.4-0.1
	c0.4-0.1,0.7-0.3,0.9-0.6c0.3-0.5,0.6-1.1,1-1.6c0-0.1,0.1-0.1,0.1-0.2c0.2-0.3,0.4-0.3,0.7-0.3c0.7,0.2,1.3,0.4,2,0.6
	c1.1,0.4,2.3,0.8,3.3,1.2c0.2,0.1,0.3,0.2,0.6,0.3C236.7,268.4,236.7,268.5,236.8,268.6 M234.8,260.6c-0.5,0.1-1,0.4-1.5,0.6
	c-0.3,0.1-0.3,0.1-0.4-0.2c-0.9-3.2-3-5.3-6.1-6.3c-1.5-0.5-3.1-0.5-4.6-0.2c-0.3,0.1-0.3,0-0.4-0.3c-0.1-0.5-0.1-1.1-0.2-1.6
	c0.4-0.1,0.7-0.2,1.1-0.3c0.2,0.1,0.3,0,0.5,0c3-0.2,5.7,0.6,8.1,2.5c1.4,1.2,2.5,2.6,3.2,4.3c0,0.1,0.1,0.2,0.2,0.3
	C234.6,259.9,234.7,260.2,234.8,260.6"/>
</svg>
