<?xml version="1.0" encoding="utf-8"?>
<!-- Generator: Adobe Illustrator 19.1.0, SVG Export Plug-In . SVG Version: 6.00 Build 0)  -->
<svg version="1.1" id="Layer_1" xmlns="http://www.w3.org/2000/svg" xmlns:xlink="http://www.w3.org/1999/xlink" x="0px" y="0px"
	 viewBox="0 0 90 90" style="enable-background:new 0 0 90 90;" xml:space="preserve">
<style type="text/css">
	.st0{fill:#B8B8B8;}
	.st1{fill:#FB7C02;}
</style>
<g>
	<path class="st0" d="M29.1,69.8c-1.9,0-3.9-0.2-5.2-1.6c-1.3-1.5-1.2-3.8-0.9-5.8l0.2-1.2l1.9,0c0.5,0,1,0,1.6,0
		c0.9,0,0.9-0.2,0.9-0.6c0-0.2,0-0.4-0.1-0.5c-0.1-0.1-0.4-0.2-0.9-0.2c-0.5,0-1,0-1.6,0l-1.8,0l-0.6-3l1.2-0.4
		c0.1,0,0.2-0.1,0.4-0.1c0.4-0.1,0.8-0.3,1.4-0.3c0.2,0,0.4,0,0.7,0c1.4,0,1.4,0,1.4-0.7c0-0.2,0-0.2,0-0.2c0,0-0.3-0.2-2.1-0.3
		c-0.5,0-1-0.2-1.3-0.3c-0.1,0-0.2-0.1-0.3-0.1l-1.1-0.3l0.4-3l2,0c0.6,0,1.1,0,1.7,0c0.8,0,0.8-0.2,0.8-0.6c0-0.4,0-0.6-0.9-0.7
		c-0.6,0-1.2-0.1-1.8-0.1l-2.3-0.2l0.6-2.9l0.7-0.3c0.8-0.3,1.6-0.3,2.4-0.3c0.4,0,1.1,0,1.3-0.1c0,0,0.1-0.2,0.1-0.6
		c0-0.4-0.1-0.5-0.1-0.5c-0.1-0.1-0.8,0-1.2,0c-0.7,0-1.4,0.1-2.1-0.2l-0.7-0.2l-0.2-0.7c-1-3.7,0-6,3.4-7.3l0-1.8
		c0-2.1,0-4.1,0-6.2c0-9.8,6.3-17.5,15.6-19.2c5.1-0.9,10.4,0.5,14.6,3.8c4.1,3.3,6.7,8.1,6.9,13.2c0.1,2.6,0.1,5.1,0.1,7.6
		c0,0.8,0,1.6,0,2.4c3.4,1.4,3.8,2.4,3.8,6.5l0,7.5c0,4.6,0,9.2,0,13.8c0,3.7-1.7,5.4-5.5,5.4c-4.1,0-8.2,0-12.2,0
		C43,69.7,36.1,69.7,29.1,69.8C29.2,69.8,29.1,69.8,29.1,69.8z M25.6,63.9c-0.1,1.2,0,2,0.4,2.4c0.4,0.5,1.4,0.7,3.1,0.7
		c0,0,0,0,0.1,0c6.9,0,13.8,0,20.7,0c4.1,0,8.2,0,12.2,0c2.2,0,2.7-0.5,2.7-2.7c0-4.6,0-9.2,0-13.8l0-7.5c0-3.1,0-3.1-3-4.2L61,38.3
		v-0.9c0-1.1,0-2.3,0-3.4c0-2.5,0.1-5-0.1-7.5c-0.2-4.3-2.4-8.4-5.9-11.2c-3.6-2.8-8.1-4-12.4-3.3c-8.1,1.4-13.3,7.9-13.4,16.5
		c0,2.1,0,4.1,0,6.2l0,3.8l-0.9,0.3c-2.6,0.8-3.1,1.7-2.7,3.5c0.2,0,0.3,0,0.5,0c1,0,2.3-0.1,3.2,0.8c0.6,0.6,0.9,1.4,0.9,2.4
		c0,1.1-0.3,2-0.9,2.6c0,0-0.1,0.1-0.1,0.1c0.7,0.6,1.1,1.5,1.1,2.6c0,1-0.4,1.9-1.1,2.4c0.2,0.1,0.3,0.3,0.5,0.4
		c0.5,0.6,0.7,1.3,0.6,2.2c-0.1,1.1-0.5,1.8-1,2.3c0.1,0,0.1,0.1,0.2,0.1c0.4,0.4,0.9,1.2,0.9,2.4c0,2-1.4,3.3-3.6,3.3
		c0,0,0,0-0.1,0C26.3,63.9,25.9,63.9,25.6,63.9z M50.4,59.2h-9.7l0.3-1.6c0-0.2,0.1-0.3,0.1-0.4c0.1-0.4,0.1-0.7,0.3-1.1
		c0.3-0.9,0.3-1.2,0-1.7c-1.2-1.7-0.9-3.9,0.7-5.5c1.5-1.4,3.4-1.7,5.2-0.8c2.2,1.1,3.2,3.3,2.3,5.1c-0.7,1.5-0.7,2.7-0.1,4.1
		L50.4,59.2z M44,56.4h2.3c-0.3-1.5,0-2.9,0.7-4.5c0.3-0.5-0.5-1.2-1.1-1.5c-0.8-0.4-1.4-0.3-2,0.3c-0.5,0.5-0.9,1.2-0.4,1.9
		C44.6,54.2,44.3,55.5,44,56.4z M59.1,39H30.8l0.1-1.5c0.1-1.4,0.1-2.9,0.2-4.3c0.1-3.2,0.2-6.5,0.9-9.7c1.4-6.4,8.1-10.6,15.2-9.6
		c6.7,0.9,11.8,6.7,11.9,13.5c0,2.3,0,4.6,0,7c0,1.1,0,2.2,0,3.2V39z M33.7,36.2h22.6c0-0.6,0-1.3,0-1.9c0-2.4,0-4.7,0-6.9
		c-0.1-5.4-4.2-10-9.5-10.8c-5.7-0.8-11,2.5-12.1,7.5c-0.7,2.9-0.8,6-0.9,9.2C33.8,34.3,33.8,35.3,33.7,36.2z"/>
	<path class="st1" d="M21.3,59.6c0,0.8,0,1.6,0,2.4c-0.1,0.1-0.2,0.2-0.3,0.2c-3.7,0.3-3.7,0.3-3.7,4c0,1.2,0,2.4,0,3.6
		c0,2-0.2,3.8,2.1,5c2,1,2.4,3.9,1.5,6.1C20,83,17.9,84.2,15.4,84c-2.2-0.2-4.2-1.9-4.7-4c-0.5-2.4,0.4-4.8,2.6-5.9
		c1.1-0.5,1.4-1.1,1.4-2.3c-0.1-2.1,0-4.3,0-6.4C14.6,61,16.7,59.1,21.3,59.6z M18.6,78.5c0-1.5-1.1-2.5-2.6-2.5
		c-1.5,0-2.7,1.2-2.6,2.7c0.1,1.4,1.2,2.6,2.6,2.6C17.5,81.3,18.6,80,18.6,78.5z"/>
	<path class="st1" d="M69,62.1c0-0.8,0-1.3,0-1.9c0-0.2,0.1-0.3,0.1-0.5c4.1-0.8,6.7,1.2,6.7,5.3c0,2.4-0.1,4.7,0,7.1
		c0,0.6,0.5,1.4,1,1.7c2.4,1.4,3.5,3.8,2.8,6.3c-0.6,2.3-2.8,3.9-5.3,3.9c-2.3,0-4.5-1.6-5.1-3.9c-0.7-2.3,0.3-4.9,2.7-6.2
		c1-0.5,1.2-1.1,1.2-2.1c-0.1-2.1,0-4.3,0-6.4c0-2.8-0.4-3.1-3.2-3.2C69.7,62.2,69.4,62.1,69,62.1z M77.2,78.6
		c0-1.5-1.3-2.7-2.8-2.6c-1.5,0-2.5,1.1-2.5,2.6c0,1.5,1.1,2.6,2.5,2.7C75.9,81.3,77.2,80,77.2,78.6z"/>
	<path class="st1" d="M65.7,35.4c4.3,0,8.3,0,12.2,0c1,0,1.6-0.2,2-1.2c1.2-2.4,3.6-3.4,6.1-2.7c2.3,0.6,4,2.8,4,5.2
		c0,2.5-1.6,4.5-4,5.2c-2.4,0.7-4.9-0.3-6-2.6c-0.6-1.1-1.2-1.3-2.4-1.3c-1.8,0.1-3.7,0-5.5,0C68.7,38.1,68.7,38.1,65.7,35.4z
		 M84.9,34.1c-1.4-0.1-2.8,1.1-2.8,2.6c-0.1,1.4,1.1,2.6,2.5,2.7c1.4,0.1,2.7-1,2.8-2.4C87.5,35.5,86.4,34.2,84.9,34.1z"/>
	<path class="st1" d="M24.4,35.4c-1.4,2.6-3.7,3-6.2,2.7c-1.2-0.1-2.4,0-3.6,0c-2-0.1-3.7-0.1-5,2.2c-1,2-4,2.3-6.1,1.4
		c-2.1-0.9-3.4-3.1-3.3-5.4C0.5,34,2.2,32,4.5,31.5c2.3-0.6,4.7,0.3,5.8,2.4c0.7,1.3,1.5,1.5,2.8,1.5C16.8,35.4,20.6,35.4,24.4,35.4
		z M8.4,37c0.1-1.3-0.9-2.7-2.3-2.9c-1.4-0.2-2.8,0.9-2.9,2.4C3,38,4,39.2,5.4,39.4C6.9,39.6,8.2,38.5,8.4,37z"/>
	<path class="st1" d="M25.3,24.5c-0.1,0.9-0.1,1.6-0.2,2.3c-3.2,0.3-5.4-1.5-5.4-4.6c0-1.7-0.3-2.7-1.9-3.7c-2-1.2-2.6-3.8-1.9-6
		c0.8-2.3,2.9-3.7,5.3-3.6c2.3,0.1,4.4,1.7,5,3.9c0.6,2.3-0.1,4.8-2.2,5.9c-1.8,0.9-1.7,2.1-1.6,3.6C22.6,23.7,23.1,24,25.3,24.5z
		 M21,11.8c-1.5,0-2.6,1.2-2.6,2.8c0,1.4,1.2,2.5,2.7,2.5c1.5,0,2.6-1.1,2.6-2.5C23.7,13,22.5,11.8,21,11.8z"/>
	<path class="st1" d="M65.2,26.9c-0.1-0.8-0.1-1.5-0.2-2.2c3-1.1,3.1-1.2,2.9-3.9c0-0.5-0.5-1.2-1-1.5c-2.4-1.4-3.5-3.8-2.8-6.3
		c0.6-2.3,2.8-3.9,5.1-3.9c2.6,0,4.7,1.6,5.4,4.1c0.6,2.4-0.4,4.9-2.9,6.1c-1.4,0.6-0.9,1.6-1,2.5C70.7,25.3,68.7,27.2,65.2,26.9z
		 M72,14.3c0-1.5-1.3-2.7-2.8-2.6c-1.4,0.1-2.6,1.4-2.5,2.7c0.1,1.4,1.2,2.6,2.7,2.6C70.9,17,72.1,15.9,72,14.3z"/>
	<path class="st1" d="M21.3,49c0,0.3,0,1.1,0,1.5c-0.8,0.8-1.5,1.3-1.9,1.9c-1.3,2.1-3.7,3.2-6.1,2.6c-2.3-0.6-4.1-2.9-4.1-5.2
		c0-2.4,1.7-4.6,4.1-5.3c2.3-0.7,4.8,0.4,6.1,2.6C19.8,47.7,20.5,48.2,21.3,49z M17.4,49.7c0-1.4-1.2-2.5-2.7-2.5
		c-1.6,0-2.7,1.1-2.6,2.7c0,1.4,1.2,2.6,2.6,2.6C16.2,52.4,17.4,51.2,17.4,49.7z"/>
	<path class="st1" d="M69.1,50.4c0-0.2,0-1,0-1.3c0.9-0.9,1.6-1.4,2-2.1c1.3-2.1,3.8-3.1,6.1-2.5c2.3,0.7,3.9,2.8,4,5.1
		c0.1,2.4-1.6,4.7-3.9,5.3c-2.4,0.7-4.7-0.3-6.2-2.4C70.7,51.9,70,51.3,69.1,50.4z M78.4,49.8c0-1.5-1.2-2.7-2.7-2.7
		c-1.4,0-2.6,1.2-2.6,2.6c-0.1,1.4,1.2,2.7,2.7,2.7C77.2,52.4,78.4,51.2,78.4,49.8z"/>
</g>
</svg>
