<?xml version="1.0" encoding="utf-8"?>
<!-- Generator: Adobe Illustrator 19.1.0, SVG Export Plug-In . SVG Version: 6.00 Build 0)  -->
<svg version="1.1" id="Layer_1" xmlns="http://www.w3.org/2000/svg" xmlns:xlink="http://www.w3.org/1999/xlink" x="0px" y="0px"
	 viewBox="0 0 90 90" style="enable-background:new 0 0 90 90;" xml:space="preserve">
<style type="text/css">
	.st0{fill:#B8B8B8;}
	.st1{fill:#FB7C02;}
</style>
<g>
	<path class="st0" d="M81.3,78.9C79.7,64.1,69,51.7,54.6,47.8c0.8-1.5,1.2-3.1,1.2-4.8c0-1.9-0.5-3.6-1.3-5.2h5.5v-7.1H48.4V0.5
		h-7.1v30.2H29.7v7.1h6c-0.9,1.6-1.3,3.3-1.3,5.2c0,1.7,0.4,3.4,1.2,4.8C21.2,51.7,10.5,64.1,8.8,79C7.1,80.2,6,82.1,6,84.2
		c0,3.4,2.8,6.2,6.2,6.2s6.2-2.8,6.2-6.2c0-2-0.9-3.8-2.5-5c1.7-13.1,12.2-23.6,25.3-25.3v25.4c-1.5,1.2-2.4,3-2.4,4.9
		c0,3.4,2.8,6.2,6.2,6.2s6.2-2.8,6.2-6.2c0-2.2-1.1-4.1-2.9-5.3V53.8c13.4,1.5,24.1,12.1,25.8,25.5c-1.5,1.2-2.3,2.9-2.3,4.9
		c0,3.4,2.8,6.2,6.2,6.2c3.4,0,6.2-2.8,6.2-6.2C84.3,82,83.1,80,81.3,78.9z M44.9,46.5c-0.4,0-0.8-0.1-1.1-0.2
		c-1.4-0.5-2.3-1.8-2.3-3.3c0-1.5,0.9-2.8,2.3-3.3c0.4-0.1,0.7-0.2,1.1-0.2l0.2,0c0.3,0,0.6,0,1,0.1c1.5,0.4,2.6,1.8,2.6,3.4
		s-1.1,3-2.6,3.4c-0.3,0.1-0.6,0.1-1,0.1L44.9,46.5z"/>
	<path class="st1" d="M44.9,46.5c-0.4,0-0.8-0.1-1.1-0.2c-1.4-0.5-2.3-1.8-2.3-3.3c0-1.5,0.9-2.8,2.3-3.3c0.4-0.1,0.7-0.2,1.1-0.2
		l0.2,0c0.3,0,0.6,0,1,0.1c1.5,0.4,2.6,1.8,2.6,3.4s-1.1,3-2.6,3.4c-0.3,0.1-0.6,0.1-1,0.1L44.9,46.5z"/>
	<path class="st1" d="M44.9,88c-0.4,0-0.8-0.1-1.1-0.2c-1.4-0.5-2.3-1.8-2.3-3.3c0-1.5,0.9-2.8,2.3-3.3c0.4-0.1,0.7-0.2,1.1-0.2
		l0.2,0c0.3,0,0.6,0,1,0.1c1.5,0.4,2.6,1.8,2.6,3.4s-1.1,3-2.6,3.4C45.7,88,45.4,88,45,88L44.9,88z"/>
	<path class="st1" d="M78.4,88c-0.4,0-0.8-0.1-1.1-0.2c-1.4-0.5-2.3-1.8-2.3-3.3c0-1.5,0.9-2.8,2.3-3.3c0.4-0.1,0.7-0.2,1.1-0.2
		l0.2,0c0.3,0,0.6,0,1,0.1c1.5,0.4,2.6,1.8,2.6,3.4s-1.1,3-2.6,3.4c-0.3,0.1-0.6,0.1-1,0.1L78.4,88z"/>
	<path class="st1" d="M11.7,88c-0.4,0-0.8-0.1-1.1-0.2c-1.4-0.5-2.3-1.8-2.3-3.3c0-1.5,0.9-2.8,2.3-3.3c0.4-0.1,0.7-0.2,1.1-0.2
		l0.2,0c0.3,0,0.6,0,1,0.1c1.5,0.4,2.6,1.8,2.6,3.4s-1.1,3-2.6,3.4c-0.3,0.1-0.6,0.1-1,0.1L11.7,88z"/>
</g>
</svg>
