<?xml version="1.0" encoding="utf-8"?>
<!-- Generator: Adobe Illustrator 19.1.0, SVG Export Plug-In . SVG Version: 6.00 Build 0)  -->
<svg version="1.1" id="Layer_1" xmlns="http://www.w3.org/2000/svg" xmlns:xlink="http://www.w3.org/1999/xlink" x="0px" y="0px"
	 viewBox="0 0 90 90" style="enable-background:new 0 0 90 90;" xml:space="preserve">
<style type="text/css">
	.st0{fill:#B8B8B8;}
	.st1{fill:#FB7C02;}
</style>
<g>
	<g>
		<path class="st0" d="M45.1,72.8c-0.4,0-1-0.1-1.4-0.7l-0.2-0.3l0-9l0.3-0.3c0.7-0.7,1.6-0.6,2.1-0.5c0.1,0,0.2,0,0.3,0
			c1.3-5.1,4.3-9.1,7.4-12.7c0.2-0.2,0.3-0.4,0.5-0.6c0.2-0.3,0.5-0.5,0.7-0.8c0.3-0.4,0.7-0.6,1.2-0.6c0.4,0,0.8,0.2,1.2,0.5
			c1.8,1.8,3.6,3.6,5.4,5.4c0.5,0.5,0.9,1.2,0,2.2c-0.9,1.1-1.8,2.2-2.7,3.2l-0.1,0.1c-1.7,2.1-2.9,4.4-3.5,7
			c-0.3,1.2-0.6,2.2-1.1,3.2c-1.1,2.4-3,3.7-5.6,3.7c-1.4,0-2.7,0-4.1,0l-0.3,0C45.3,72.8,45.2,72.8,45.1,72.8z M45.6,70.8
			L45.6,70.8c1.5,0,2.8,0,4.2,0c1.8,0,3-0.8,3.8-2.5c0.4-0.9,0.7-1.8,0.9-2.9c0.7-2.9,2-5.5,3.9-7.8l0.1-0.1c0.8-1,1.6-2,2.5-3
			c-1.6-1.6-3.2-3.2-4.8-4.8c-0.1,0.2-0.3,0.3-0.4,0.5c-0.2,0.2-0.3,0.4-0.5,0.5c-3,3.4-5.8,7.3-7,12c-0.3,1.3-1.4,1.3-1.7,1.4
			c-0.2,0-0.5,0-0.8,0c-0.1,0-0.1,0-0.2,0L45.6,70.8z"/>
		<path class="st0" d="M41.1,72.8c-0.9,0-1.9,0-2.8-0.1c-2.1-0.2-3.6-1.4-4.5-3.4c-0.3-0.7-0.7-1.6-0.9-2.7
			c-0.7-3.3-2.3-6.4-5.2-9.7c-0.1-0.2-0.3-0.3-0.4-0.5c-0.2-0.3-0.4-0.5-0.7-0.8c-0.4-0.4-0.6-0.8-0.6-1.2c0-0.6,0.4-1.1,0.6-1.3
			c1.8-1.7,3.5-3.5,5.2-5.2c0.2-0.2,0.6-0.6,1.2-0.6c0.6,0,1,0.5,1.1,0.6c2.3,2.6,4.6,5.4,6.5,8.7c0.9,1.6,1.6,3.3,2.1,5.4
			c0,0,0,0,0,0c0,0,0,0,0,0c0.1,0,0.2,0,0.3,0c0.5-0.1,1.3-0.1,2.1,0.5l0.4,0.3l0,9.3l-0.5,0.3c0,0-0.3,0.2-0.7,0.2
			c-0.4,0-0.8,0-1.3,0C42.5,72.7,41.8,72.8,41.1,72.8z M28.3,54.5c0.2,0.2,0.4,0.4,0.6,0.7c0.1,0.1,0.2,0.3,0.4,0.4
			c3.1,3.6,5,6.9,5.7,10.6c0.2,0.8,0.5,1.6,0.8,2.2c0.6,1.3,1.6,2,2.9,2.2c1.5,0.2,2.9,0.1,4.5,0.1c0.1,0,0.3,0,0.4,0l0-6.6
			c-0.1,0-0.1,0-0.2,0c-0.2,0-0.4,0-0.5,0c-1.1,0-1.8-0.5-2-1.5c-0.5-1.9-1.1-3.5-1.9-4.9c-1.6-2.9-3.8-5.5-5.8-7.9
			C31.4,51.3,29.9,52.9,28.3,54.5z"/>
		<path class="st0" d="M29.8,22.4c-0.6,0-1-0.4-1.1-0.6c-1.7-1.7-3.5-3.5-5.3-5.3c-0.5-0.5-1.1-1.4,0-2.6c4.6-4.9,9.9-7.8,16-8.8
			c0.6-0.1,1.1-0.1,1.7-0.2c0.7-0.1,1.4-0.1,2.1-0.3c0.7-0.2,1.2-0.1,1.6,0.3c0.4,0.4,0.6,0.9,0.6,1.6c0,0.8,0,1.6,0,2.4
			c0,0.4,0,0.7,0,1.1l0,1c0,0.8,0,1.7,0,2.5c0,1.1-0.6,1.8-1.7,1.8c-4.5,0.3-8.3,1.9-11.3,4.8c-0.6,0.5-1,1-1.4,1.5
			C30.8,21.9,30.5,22.3,29.8,22.4C29.8,22.3,29.8,22.4,29.8,22.4z M24.9,15.2c1.7,1.6,3.3,3.3,4.8,4.8c0.4-0.4,0.8-0.8,1.2-1.2
			c3.4-3.2,7.5-5,12.4-5.4c0-0.8,0-1.5,0-2.3l0-1c0-0.4,0-0.7,0-1.1c0-0.8,0-1.5,0-2.3c-0.7,0.1-1.4,0.2-2.1,0.3
			c-0.5,0-1.1,0.1-1.6,0.2C34.1,8,29.2,10.7,24.9,15.2z"/>
		<path class="st0" d="M59.2,22.3C59.2,22.3,59.2,22.3,59.2,22.3c-0.7,0-1.1-0.5-1.3-0.7c-3.4-3.9-7.6-5.9-12.6-6.2
			c-1.6-0.1-1.8-1.2-1.8-1.9c0-0.8,0-1.7,0-2.5l0-1.1l0-1c0-0.8,0-1.7,0-2.5c0-0.4,0-0.9,0.5-1.4c0.5-0.5,1.1-0.4,1.3-0.4
			c8,0.4,14.8,3.5,20.2,9.3c0.9,1,0.9,1.9-0.1,2.8c-1.7,1.6-3.3,3.3-5,5C60.3,21.9,59.9,22.3,59.2,22.3z M45.7,13.4
			c5.4,0.3,10,2.6,13.6,6.6c1.6-1.6,3.2-3.2,4.8-4.8c-5-5.3-11.1-8.1-18.4-8.6c0,0.7,0,1.5,0,2.2l0,1l0,1.1
			C45.7,11.8,45.7,12.6,45.7,13.4z"/>
		<path class="st0" d="M17.8,37.3c-1,0-1.6-0.6-1.7-1.6c-0.6-7.5,1.4-14.3,6-20.3c0.2-0.2,0.6-0.8,1.3-0.8c0.7,0,1.2,0.5,1.4,0.7
			c1.5,1.6,3.2,3.3,5.1,5.2c0.8,0.7,0.8,1.5,0.2,2.4c-2.7,3.8-3.7,8-3.1,12.6c0,0.2,0.1,0.9-0.3,1.3c-0.4,0.5-1,0.5-1.3,0.5
			c-0.9,0-1.8,0-2.7,0l-1.1,0l-1.1,0C19.6,37.2,18.7,37.2,17.8,37.3C17.8,37.3,17.8,37.3,17.8,37.3z M23.5,16.9
			c-4.1,5.4-5.9,11.5-5.4,18.3c0.8,0,1.6,0,2.4,0l1.1,0l1.1,0c0.7,0,1.5,0,2.2,0c-0.5-4.9,0.6-9.4,3.4-13.4
			C26.5,20,24.9,18.4,23.5,16.9z"/>
		<path class="st0" d="M71.4,37.1c0,0-0.1,0-0.1,0c-0.9,0-1.7,0-2.6,0l-1.1,0l-1.1,0c-0.9,0-1.7,0-2.6,0c-0.2,0-0.9,0-1.3-0.5
			c-0.4-0.5-0.4-1.2-0.3-1.4c0.6-4.5-0.5-8.7-3.2-12.5c-0.6-0.8-0.5-1.6,0.2-2.3l0.4-0.4c1.6-1.6,3.3-3.3,4.9-4.9
			c0.4-0.4,0.8-0.6,1.3-0.6c0.6,0,1,0.5,1.2,0.8l0.1,0.1c2.7,3.4,4.5,7.3,5.5,11.7c0.5,2.5,0.7,5.1,0.5,8.3
			C73.2,36.5,72.5,37.1,71.4,37.1z M69.8,35.1c0.5,0,0.9,0,1.4,0c0.1-2.9,0-5.3-0.5-7.6c-0.8-3.9-2.5-7.4-4.9-10.5
			c-1.5,1.6-3.1,3.1-4.6,4.6L61,21.8c2.8,4.1,4,8.5,3.4,13.3c0.7,0,1.4,0,2.2,0l1.1,0l1.1,0C69.1,35.1,69.5,35.1,69.8,35.1z"/>
		<path class="st0" d="M62.6,55c-0.6,0-1-0.4-1.2-0.5c-1.8-1.8-3.6-3.6-5.4-5.3c-0.4-0.3-1.1-1.3,0-2.4l0.5-0.5
			c0.7-0.7,1.3-1.4,1.9-2.1c1.7-2.1,2.8-4.5,3.4-7.1c0.2-1.1,0.9-1.6,2-1.6c0.8,0,1.7,0,2.5,0l2.1,0l0,0c0.8,0,1.6,0,2.5,0
			c0.3,0,1,0,1.5,0.5c0.5,0.5,0.4,1.3,0.3,1.5c-0.9,5.3-3,10.1-6.4,14c-0.5,0.6-1,1.2-1.6,1.7c-0.4,0.4-0.7,0.8-1.1,1.2
			C63.6,54.5,63.2,55,62.6,55C62.6,55,62.6,55,62.6,55z M57.8,47.9c1.6,1.6,3.2,3.2,4.8,4.7c0.3-0.3,0.5-0.6,0.8-0.9
			c0.5-0.5,1-1.1,1.5-1.6c3-3.6,5-7.8,5.9-12.6c-0.7,0-1.5,0-2.2,0l-2.1,0c-0.9,0-1.7,0-2.6,0c-0.6,3-1.9,5.6-3.8,7.9
			c-0.6,0.8-1.4,1.5-2,2.2L57.8,47.9z"/>
		<path class="st0" d="M26.3,55c-0.4,0-0.8-0.2-1.1-0.5c-5.1-5-8.1-10.6-9.1-17c0-0.3-0.2-1,0.3-1.5c0.5-0.5,1.1-0.5,1.5-0.5
			c0.8,0,1.7,0,2.5,0l1.1,0l1.1,0c0.9,0,1.8,0,2.6,0c0.9,0,1.6,0.5,1.8,1.4c0.8,3.5,2.5,6.6,5.3,9.2c0.2,0.1,0.3,0.3,0.4,0.5
			c0.1,0.1,0.2,0.2,0.2,0.3c0.6,0.7,0.6,1.5-0.1,2.2c-1.8,1.8-3.6,3.6-5.4,5.4C27.1,54.8,26.7,55,26.3,55z M18.2,37.6
			c1,5.7,3.6,10.6,8.1,15.1c1.6-1.6,3.2-3.2,4.7-4.7c-0.1-0.1-0.2-0.2-0.3-0.3c-3-2.8-4.9-6.2-5.8-10.1c-0.8,0-1.7,0-2.5,0l-1.1,0
			l-1,0C19.7,37.6,18.9,37.6,18.2,37.6z"/>
	</g>
	<path class="st0" d="M40.2,29.9c0.8-3.7,4.6-5.1,7.4-2.9c0.8,0.6,1.3,1.5,1.5,2.5c0.1,0.5,0.2,0.7,0.8,0.6c2.3-0.1,3.9,1.1,4.6,3.1
		c0.6,1.8-0.2,4.1-2,5c-0.2,0.1-0.3,0.2-0.3,0.4c-0.8,0-1.5,0.4-2.3,0.3c0-1.9,0-3.8,0-5.6c0-1.3-0.4-1.7-1.7-1.7
		c-2.6,0-5.2,0-7.8,0C40.2,31.1,40.3,30.5,40.2,29.9z"/>
	<path class="st0" d="M44.6,75.6c-2.1,0-4.3,0-6.4,0c-0.2,0-0.4,0-0.6,0c-1.1-0.1-1.8-0.7-1.8-1.5c0-0.8,0.8-1.5,1.8-1.5
		c3,0,5.9,0,8.9,0c1.6,0,3.2,0,4.9,0c0.4,0,0.8,0,1.1,0.2c0.6,0.3,1,0.7,1,1.4c0,0.6-0.4,1-1,1.3c-0.4,0.2-0.7,0.2-1.1,0.2
		C49,75.6,46.8,75.6,44.6,75.6z"/>
	<path class="st1" d="M44.6,80.1c2.1,0,4.2,0,6.4,0c0.2,0,0.5,0,0.7,0c1,0.1,1.7,0.7,1.8,1.5c0,0.8-0.8,1.5-1.8,1.5
		c-4.7,0-9.4,0-14.1,0c-1,0-1.8-0.7-1.8-1.6c0-0.8,0.8-1.4,1.8-1.4C39.9,80.1,42.2,80.1,44.6,80.1z"/>
	<path class="st1" d="M44.5,79.3c-2.2,0-4.4,0-6.6,0c-0.3,0-0.6,0-0.9-0.1c-0.7-0.2-1.3-0.6-1.3-1.4c0-0.8,0.5-1.2,1.2-1.4
		c0.3-0.1,0.7-0.1,1-0.1c4.4,0,8.8,0,13.1,0c0.2,0,0.4,0,0.6,0c1,0.1,1.7,0.8,1.7,1.6c0,0.8-0.8,1.4-1.8,1.4c-2,0-3.9,0-5.9,0
		C45.3,79.3,44.9,79.3,44.5,79.3z"/>
	<path class="st0" d="M49.9,39c0.8,0.1,1.5-0.3,2.3-0.3c1,2,0.5,4.3-1.3,5.6c-1.8,1.4-4.2,1.1-6-0.6c0.5-1.1,1.2-2.2,1-3.6
		c0.8,0,1.7,0,2.5,0C49.2,40.2,49.8,39.9,49.9,39z"/>
	<path class="st0" d="M45.9,40.2c0.2,1.3-0.5,2.4-1,3.6c-0.2,0.1-0.4,0.2-0.5,0.3c-1.9,1.5-4.1,1.5-5.8,0.2
		c-1.7-1.4-2.1-3.5-1.1-5.6c0.5,0.1,1,0.2,1.5,0.3c0.1,0.5,0.1,1.2,0.7,1.2c1.3,0.1,0.9,0.7,0.7,1.4c-0.1,0.3-0.2,0.5-0.3,0.8
		c0,0.2-0.1,0.4,0,0.5c0.2,0.1,0.3,0,0.5-0.1c0.2-0.1,0.4-0.2,0.6-0.3C42.7,41.7,44.2,40.8,45.9,40.2z"/>
	<path class="st0" d="M38.9,38.8c-0.5-0.1-1-0.2-1.5-0.3c-0.8-0.6-1.7-1.1-2.1-2.1c-1.5-3.1,0.6-6.5,4-6.5c0.3,0,0.6,0.1,0.9,0
		c0.1,0.6,0,1.2,0.2,1.8c-1.3,0-1.5,0.3-1.5,1.6C38.9,35.1,38.9,37,38.9,38.8z"/>
	<path class="st1" d="M44.6,83.8c1.5,0,2.9,0,4.4,0c0.6,0,0.7,0.2,0.5,0.7c-0.3,0.7-0.8,1.2-1.4,1.5c-2.4,1.2-4.7,1.2-7.1-0.1
		c-0.6-0.3-1.1-0.8-1.3-1.5c-0.2-0.5-0.1-0.7,0.4-0.7C41.5,83.8,43,83.8,44.6,83.8z"/>
	<path class="st1" d="M38.9,38.8c0-1.9,0-3.7,0-5.6c0-1.3,0.3-1.5,1.5-1.6c2.6,0,5.2,0,7.8,0c1.4,0,1.7,0.3,1.7,1.7
		c0,1.9,0,3.8,0,5.6c-0.1,0.9-0.7,1.2-1.5,1.2c-0.8,0-1.7,0-2.5,0c-1.7,0.6-3.2,1.5-4.8,2.2c-0.2,0.1-0.4,0.2-0.6,0.3
		c-0.2,0.1-0.3,0.2-0.5,0.1c-0.1-0.1-0.1-0.3,0-0.5c0.1-0.3,0.2-0.6,0.3-0.8c0.3-0.7,0.6-1.4-0.7-1.4C39,40,38.9,39.4,38.9,38.8z"/>
</g>
</svg>
